%TF.GenerationSoftware,KiCad,Pcbnew,8.0.4*%
%TF.CreationDate,2024-07-25T03:06:04-05:00*%
%TF.ProjectId,stm32devBoardf405rg,73746d33-3264-4657-9642-6f6172646634,rev?*%
%TF.SameCoordinates,Original*%
%TF.FileFunction,Copper,L2,Inr*%
%TF.FilePolarity,Positive*%
%FSLAX46Y46*%
G04 Gerber Fmt 4.6, Leading zero omitted, Abs format (unit mm)*
G04 Created by KiCad (PCBNEW 8.0.4) date 2024-07-25 03:06:04*
%MOMM*%
%LPD*%
G01*
G04 APERTURE LIST*
G04 Aperture macros list*
%AMRoundRect*
0 Rectangle with rounded corners*
0 $1 Rounding radius*
0 $2 $3 $4 $5 $6 $7 $8 $9 X,Y pos of 4 corners*
0 Add a 4 corners polygon primitive as box body*
4,1,4,$2,$3,$4,$5,$6,$7,$8,$9,$2,$3,0*
0 Add four circle primitives for the rounded corners*
1,1,$1+$1,$2,$3*
1,1,$1+$1,$4,$5*
1,1,$1+$1,$6,$7*
1,1,$1+$1,$8,$9*
0 Add four rect primitives between the rounded corners*
20,1,$1+$1,$2,$3,$4,$5,0*
20,1,$1+$1,$4,$5,$6,$7,0*
20,1,$1+$1,$6,$7,$8,$9,0*
20,1,$1+$1,$8,$9,$2,$3,0*%
G04 Aperture macros list end*
%TA.AperFunction,ComponentPad*%
%ADD10R,2.400000X2.400000*%
%TD*%
%TA.AperFunction,ComponentPad*%
%ADD11C,2.400000*%
%TD*%
%TA.AperFunction,ComponentPad*%
%ADD12C,0.900000*%
%TD*%
%TA.AperFunction,ComponentPad*%
%ADD13C,8.600000*%
%TD*%
%TA.AperFunction,ComponentPad*%
%ADD14RoundRect,0.200000X-0.200000X-0.450000X0.200000X-0.450000X0.200000X0.450000X-0.200000X0.450000X0*%
%TD*%
%TA.AperFunction,ComponentPad*%
%ADD15O,0.800000X1.300000*%
%TD*%
%TA.AperFunction,ComponentPad*%
%ADD16RoundRect,0.200000X0.200000X0.450000X-0.200000X0.450000X-0.200000X-0.450000X0.200000X-0.450000X0*%
%TD*%
%TA.AperFunction,ComponentPad*%
%ADD17O,1.700000X1.350000*%
%TD*%
%TA.AperFunction,ComponentPad*%
%ADD18O,1.500000X1.100000*%
%TD*%
%TA.AperFunction,ViaPad*%
%ADD19C,0.800000*%
%TD*%
G04 APERTURE END LIST*
D10*
%TO.N,+12V*%
%TO.C,J1*%
X124460000Y-142240000D03*
D11*
%TO.N,GND*%
X124460000Y-138740000D03*
%TD*%
D12*
%TO.N,GND*%
%TO.C,H3*%
X72544000Y-150622000D03*
X73488581Y-148341581D03*
X73488581Y-152902419D03*
X75769000Y-147397000D03*
D13*
X75769000Y-150622000D03*
D12*
X75769000Y-153847000D03*
X78049419Y-148341581D03*
X78049419Y-152902419D03*
X78994000Y-150622000D03*
%TD*%
D14*
%TO.N,+3.3V*%
%TO.C,J4*%
X93883000Y-147398000D03*
D15*
%TO.N,UART3_TX*%
X95133000Y-147398000D03*
%TO.N,UART3_RX*%
X96383000Y-147398000D03*
%TO.N,GND*%
X97633000Y-147398000D03*
%TD*%
D12*
%TO.N,GND*%
%TO.C,H2*%
X73488581Y-115829581D03*
X74433162Y-113549162D03*
X74433162Y-118110000D03*
X76713581Y-112604581D03*
D13*
X76713581Y-115829581D03*
D12*
X76713581Y-119054581D03*
X78994000Y-113549162D03*
X78994000Y-118110000D03*
X79938581Y-115829581D03*
%TD*%
%TO.N,GND*%
%TO.C,H1*%
X121775000Y-115824000D03*
X122719581Y-113543581D03*
X122719581Y-118104419D03*
X125000000Y-112599000D03*
D13*
X125000000Y-115824000D03*
D12*
X125000000Y-119049000D03*
X127280419Y-113543581D03*
X127280419Y-118104419D03*
X128225000Y-115824000D03*
%TD*%
%TO.N,GND*%
%TO.C,H4*%
X122000000Y-150291000D03*
X122944581Y-148010581D03*
X122944581Y-152571419D03*
X125225000Y-147066000D03*
D13*
X125225000Y-150291000D03*
D12*
X125225000Y-153516000D03*
X127505419Y-148010581D03*
X127505419Y-152571419D03*
X128450000Y-150291000D03*
%TD*%
D16*
%TO.N,+3.3V*%
%TO.C,J3*%
X96520000Y-116840000D03*
D15*
%TO.N,I2C1_SCL*%
X95270000Y-116840000D03*
%TO.N,I2C1_SDA*%
X94020000Y-116840000D03*
%TO.N,GND*%
X92770000Y-116840000D03*
%TD*%
D17*
%TO.N,unconnected-(J5-Shield-Pad6)_3*%
%TO.C,J5*%
X129680000Y-129230000D03*
D18*
X126680000Y-128920000D03*
X126680000Y-124080000D03*
D17*
X129680000Y-123770000D03*
%TD*%
D19*
%TO.N,GND*%
X120650000Y-123952000D03*
X123698000Y-125222000D03*
X118618000Y-137668000D03*
X115062000Y-138938000D03*
X78994000Y-129032000D03*
X100838000Y-143002000D03*
X120142000Y-141478000D03*
X92964000Y-124206000D03*
X117348000Y-136906000D03*
X87376000Y-139446000D03*
X88138000Y-128524000D03*
X91948000Y-142240000D03*
X86360000Y-124968000D03*
X111506000Y-110744000D03*
X102616000Y-127254000D03*
X84582000Y-135128000D03*
X83820000Y-129286000D03*
X124460000Y-124206000D03*
X105156000Y-129032000D03*
X81026000Y-136144000D03*
X104902000Y-127000000D03*
X124714000Y-125222000D03*
X123444000Y-124206000D03*
X104140000Y-128016000D03*
X119380000Y-147320000D03*
X105664000Y-136652000D03*
X105664000Y-138938000D03*
X92710000Y-143002000D03*
X86614000Y-128524000D03*
X107696000Y-110744000D03*
X81026000Y-134366000D03*
X110236000Y-110744000D03*
X118872000Y-140462000D03*
X86614000Y-134874000D03*
X103632000Y-140208000D03*
X112500000Y-149500000D03*
X101600000Y-142494000D03*
%TO.N,+3.3V*%
X115824000Y-146304000D03*
X104902000Y-148336000D03*
X108204000Y-137668000D03*
X93726000Y-143002000D03*
X107188000Y-138938000D03*
X102108000Y-139446000D03*
X82550000Y-138938000D03*
X112776000Y-110744000D03*
X109220000Y-139700000D03*
X109728000Y-126492000D03*
X92964000Y-122174000D03*
X89154000Y-125984000D03*
X86614000Y-129794000D03*
X102870000Y-129032000D03*
X81788000Y-137160000D03*
X87122000Y-130810000D03*
X93980000Y-141478000D03*
X102108000Y-140970000D03*
X78994000Y-124968000D03*
X109220000Y-128270000D03*
X111252000Y-140208000D03*
X97536000Y-122428000D03*
%TO.N,SWDIO*%
X99060000Y-130302000D03*
X113538000Y-125222000D03*
%TO.N,NRST*%
X97536000Y-129794000D03*
X97536000Y-123952000D03*
%TD*%
%TA.AperFunction,Conductor*%
%TO.N,+3.3V*%
G36*
X131261039Y-108985685D02*
G01*
X131306794Y-109038489D01*
X131318000Y-109090000D01*
X131318000Y-156340000D01*
X131298315Y-156407039D01*
X131245511Y-156452794D01*
X131194000Y-156464000D01*
X70228000Y-156464000D01*
X70160961Y-156444315D01*
X70115206Y-156391511D01*
X70104000Y-156340000D01*
X70104000Y-150621996D01*
X70963661Y-150621996D01*
X70963661Y-150622003D01*
X70983005Y-151052737D01*
X70983006Y-151052746D01*
X71040885Y-151480027D01*
X71136830Y-151900391D01*
X71270073Y-152310472D01*
X71270076Y-152310480D01*
X71439533Y-152706947D01*
X71439537Y-152706955D01*
X71439539Y-152706958D01*
X71643863Y-153086655D01*
X71643867Y-153086661D01*
X71643867Y-153086662D01*
X71881394Y-153446501D01*
X71881404Y-153446514D01*
X72150225Y-153783607D01*
X72150235Y-153783618D01*
X72150236Y-153783619D01*
X72448210Y-154095274D01*
X72772920Y-154378965D01*
X72772930Y-154378972D01*
X72772931Y-154378973D01*
X72970565Y-154522563D01*
X73121753Y-154632407D01*
X73491900Y-154853560D01*
X73491903Y-154853561D01*
X73491904Y-154853562D01*
X73491906Y-154853563D01*
X73880372Y-155040639D01*
X73880386Y-155040645D01*
X74284055Y-155192144D01*
X74284059Y-155192145D01*
X74284069Y-155192149D01*
X74699711Y-155306859D01*
X75123964Y-155383850D01*
X75553409Y-155422500D01*
X75553416Y-155422500D01*
X75984584Y-155422500D01*
X75984591Y-155422500D01*
X76414036Y-155383850D01*
X76838289Y-155306859D01*
X77253931Y-155192149D01*
X77657619Y-155040643D01*
X78046100Y-154853560D01*
X78416247Y-154632407D01*
X78765080Y-154378965D01*
X79089790Y-154095274D01*
X79387764Y-153783619D01*
X79656601Y-153446507D01*
X79671132Y-153424493D01*
X83926464Y-153424493D01*
X83926464Y-153575507D01*
X83965550Y-153721377D01*
X83965551Y-153721380D01*
X83990316Y-153764273D01*
X84041057Y-153852159D01*
X84147841Y-153958943D01*
X84239767Y-154012016D01*
X84278619Y-154034448D01*
X84278620Y-154034448D01*
X84278623Y-154034450D01*
X84424493Y-154073536D01*
X84575504Y-154073536D01*
X84575507Y-154073536D01*
X84721377Y-154034450D01*
X84852159Y-153958943D01*
X84958943Y-153852159D01*
X85034450Y-153721377D01*
X85073536Y-153575507D01*
X85076000Y-153500000D01*
X85073536Y-153424493D01*
X117926464Y-153424493D01*
X117926464Y-153575507D01*
X117965550Y-153721377D01*
X117965551Y-153721380D01*
X117990316Y-153764273D01*
X118041057Y-153852159D01*
X118147841Y-153958943D01*
X118239767Y-154012016D01*
X118278619Y-154034448D01*
X118278620Y-154034448D01*
X118278623Y-154034450D01*
X118424493Y-154073536D01*
X118575504Y-154073536D01*
X118575507Y-154073536D01*
X118721377Y-154034450D01*
X118852159Y-153958943D01*
X118958943Y-153852159D01*
X119034450Y-153721377D01*
X119073536Y-153575507D01*
X119076000Y-153500000D01*
X119073536Y-153424493D01*
X119034450Y-153278623D01*
X118958943Y-153147841D01*
X118852159Y-153041057D01*
X118813303Y-153018623D01*
X118721380Y-152965551D01*
X118721381Y-152965551D01*
X118709419Y-152962345D01*
X118575507Y-152926464D01*
X118575504Y-152926464D01*
X118424496Y-152926464D01*
X118424493Y-152926464D01*
X118290580Y-152962345D01*
X118278619Y-152965551D01*
X118147844Y-153041055D01*
X118147838Y-153041059D01*
X118041059Y-153147838D01*
X118041055Y-153147844D01*
X117965551Y-153278619D01*
X117965550Y-153278623D01*
X117926464Y-153424493D01*
X85073536Y-153424493D01*
X85034450Y-153278623D01*
X84958943Y-153147841D01*
X84852159Y-153041057D01*
X84813303Y-153018623D01*
X84721380Y-152965551D01*
X84721381Y-152965551D01*
X84709419Y-152962345D01*
X84575507Y-152926464D01*
X84575504Y-152926464D01*
X84424496Y-152926464D01*
X84424493Y-152926464D01*
X84290580Y-152962345D01*
X84278619Y-152965551D01*
X84147844Y-153041055D01*
X84147838Y-153041059D01*
X84041059Y-153147838D01*
X84041055Y-153147844D01*
X83965551Y-153278619D01*
X83965550Y-153278623D01*
X83926464Y-153424493D01*
X79671132Y-153424493D01*
X79894137Y-153086655D01*
X80098461Y-152706958D01*
X80267926Y-152310475D01*
X80401168Y-151900397D01*
X80497115Y-151480026D01*
X80554994Y-151052747D01*
X80574339Y-150622000D01*
X80554994Y-150191253D01*
X80497115Y-149763974D01*
X80436865Y-149500000D01*
X111594540Y-149500000D01*
X111614326Y-149688256D01*
X111614327Y-149688259D01*
X111672818Y-149868277D01*
X111672821Y-149868284D01*
X111767467Y-150032216D01*
X111894129Y-150172888D01*
X112047265Y-150284148D01*
X112047270Y-150284151D01*
X112220192Y-150361142D01*
X112220197Y-150361144D01*
X112405354Y-150400500D01*
X112405355Y-150400500D01*
X112594644Y-150400500D01*
X112594646Y-150400500D01*
X112779803Y-150361144D01*
X112937356Y-150290996D01*
X120419661Y-150290996D01*
X120419661Y-150291003D01*
X120439005Y-150721737D01*
X120439006Y-150721746D01*
X120496885Y-151149027D01*
X120592830Y-151569391D01*
X120726073Y-151979472D01*
X120726076Y-151979480D01*
X120895533Y-152375947D01*
X120895537Y-152375955D01*
X120895539Y-152375958D01*
X121099863Y-152755655D01*
X121099867Y-152755661D01*
X121099867Y-152755662D01*
X121337394Y-153115501D01*
X121337404Y-153115514D01*
X121606225Y-153452607D01*
X121606235Y-153452618D01*
X121606236Y-153452619D01*
X121904210Y-153764274D01*
X122127026Y-153958943D01*
X122213448Y-154034448D01*
X122228920Y-154047965D01*
X122577753Y-154301407D01*
X122947900Y-154522560D01*
X122947903Y-154522561D01*
X122947904Y-154522562D01*
X122947906Y-154522563D01*
X123336372Y-154709639D01*
X123336386Y-154709645D01*
X123740055Y-154861144D01*
X123740059Y-154861145D01*
X123740069Y-154861149D01*
X124155711Y-154975859D01*
X124579964Y-155052850D01*
X125009409Y-155091500D01*
X125009416Y-155091500D01*
X125440584Y-155091500D01*
X125440591Y-155091500D01*
X125870036Y-155052850D01*
X126294289Y-154975859D01*
X126709931Y-154861149D01*
X127113619Y-154709643D01*
X127502100Y-154522560D01*
X127872247Y-154301407D01*
X128221080Y-154047965D01*
X128545790Y-153764274D01*
X128843764Y-153452619D01*
X128848639Y-153446507D01*
X129086813Y-153147844D01*
X129112601Y-153115507D01*
X129350137Y-152755655D01*
X129554461Y-152375958D01*
X129723926Y-151979475D01*
X129857168Y-151569397D01*
X129953115Y-151149026D01*
X130010994Y-150721747D01*
X130030339Y-150291000D01*
X130030031Y-150284151D01*
X130018717Y-150032214D01*
X130010994Y-149860253D01*
X129953115Y-149432974D01*
X129857168Y-149012603D01*
X129723926Y-148602525D01*
X129631624Y-148386574D01*
X129554466Y-148206052D01*
X129554462Y-148206044D01*
X129528252Y-148157338D01*
X129350137Y-147826345D01*
X129350132Y-147826337D01*
X129112605Y-147466498D01*
X129112595Y-147466485D01*
X128843774Y-147129392D01*
X128843762Y-147129379D01*
X128545794Y-146817730D01*
X128545793Y-146817729D01*
X128545790Y-146817726D01*
X128309852Y-146611593D01*
X128221085Y-146534039D01*
X128221068Y-146534026D01*
X127872256Y-146280599D01*
X127872251Y-146280596D01*
X127872247Y-146280593D01*
X127502100Y-146059440D01*
X127502095Y-146059437D01*
X127502093Y-146059436D01*
X127113627Y-145872360D01*
X127113613Y-145872354D01*
X126709944Y-145720855D01*
X126709919Y-145720847D01*
X126294295Y-145606142D01*
X125870043Y-145529151D01*
X125870040Y-145529150D01*
X125870036Y-145529150D01*
X125440591Y-145490500D01*
X125009409Y-145490500D01*
X124579964Y-145529150D01*
X124579960Y-145529150D01*
X124579956Y-145529151D01*
X124155704Y-145606142D01*
X123740080Y-145720847D01*
X123740055Y-145720855D01*
X123336386Y-145872354D01*
X123336372Y-145872360D01*
X122947906Y-146059436D01*
X122947904Y-146059437D01*
X122577743Y-146280599D01*
X122228931Y-146534026D01*
X122228914Y-146534039D01*
X121904210Y-146817726D01*
X121904205Y-146817730D01*
X121606237Y-147129379D01*
X121606225Y-147129392D01*
X121337404Y-147466485D01*
X121337394Y-147466498D01*
X121099867Y-147826337D01*
X121099867Y-147826338D01*
X120895537Y-148206044D01*
X120895533Y-148206052D01*
X120726076Y-148602519D01*
X120726073Y-148602527D01*
X120592830Y-149012608D01*
X120496885Y-149432972D01*
X120439006Y-149860253D01*
X120439005Y-149860262D01*
X120419661Y-150290996D01*
X112937356Y-150290996D01*
X112952730Y-150284151D01*
X113105871Y-150172888D01*
X113232533Y-150032216D01*
X113327179Y-149868284D01*
X113385674Y-149688256D01*
X113405460Y-149500000D01*
X113385674Y-149311744D01*
X113327179Y-149131716D01*
X113232533Y-148967784D01*
X113105871Y-148827112D01*
X113105870Y-148827111D01*
X112952734Y-148715851D01*
X112952729Y-148715848D01*
X112779807Y-148638857D01*
X112779802Y-148638855D01*
X112634001Y-148607865D01*
X112594646Y-148599500D01*
X112405354Y-148599500D01*
X112372897Y-148606398D01*
X112220197Y-148638855D01*
X112220192Y-148638857D01*
X112047270Y-148715848D01*
X112047265Y-148715851D01*
X111894129Y-148827111D01*
X111767466Y-148967785D01*
X111672821Y-149131715D01*
X111672818Y-149131722D01*
X111614327Y-149311740D01*
X111614326Y-149311744D01*
X111594540Y-149500000D01*
X80436865Y-149500000D01*
X80401168Y-149343603D01*
X80267926Y-148933525D01*
X80174887Y-148715849D01*
X80098466Y-148537052D01*
X80098462Y-148537044D01*
X80098461Y-148537042D01*
X79894137Y-148157345D01*
X79773840Y-147975102D01*
X79727290Y-147904582D01*
X92983001Y-147904582D01*
X92989408Y-147975102D01*
X92989409Y-147975107D01*
X93039981Y-148137396D01*
X93127927Y-148282877D01*
X93248122Y-148403072D01*
X93393604Y-148491019D01*
X93393603Y-148491019D01*
X93555894Y-148541590D01*
X93555893Y-148541590D01*
X93626408Y-148547998D01*
X93626426Y-148547999D01*
X93632999Y-148547998D01*
X93633000Y-148547998D01*
X93633000Y-147648000D01*
X92983001Y-147648000D01*
X92983001Y-147904582D01*
X79727290Y-147904582D01*
X79656605Y-147797498D01*
X79656595Y-147797485D01*
X79387774Y-147460392D01*
X79387762Y-147460379D01*
X79280576Y-147348272D01*
X93633000Y-147348272D01*
X93633000Y-147447728D01*
X93671060Y-147539614D01*
X93741386Y-147609940D01*
X93833272Y-147648000D01*
X93932728Y-147648000D01*
X94024614Y-147609940D01*
X94094940Y-147539614D01*
X94133000Y-147447728D01*
X94133000Y-148547999D01*
X94139581Y-148547999D01*
X94210102Y-148541591D01*
X94210107Y-148541590D01*
X94372398Y-148491018D01*
X94515662Y-148404411D01*
X94583217Y-148386574D01*
X94648702Y-148407425D01*
X94706453Y-148446013D01*
X94706455Y-148446014D01*
X94706457Y-148446015D01*
X94815106Y-148491018D01*
X94870334Y-148513894D01*
X94870336Y-148513894D01*
X94870341Y-148513896D01*
X95044304Y-148548499D01*
X95044307Y-148548500D01*
X95044309Y-148548500D01*
X95221693Y-148548500D01*
X95221694Y-148548499D01*
X95279682Y-148536964D01*
X95395658Y-148513896D01*
X95395661Y-148513894D01*
X95395666Y-148513894D01*
X95559547Y-148446013D01*
X95689109Y-148359442D01*
X95755786Y-148338564D01*
X95823166Y-148357048D01*
X95826891Y-148359442D01*
X95956453Y-148446013D01*
X95956455Y-148446014D01*
X95956459Y-148446016D01*
X96065106Y-148491018D01*
X96120334Y-148513894D01*
X96120336Y-148513894D01*
X96120341Y-148513896D01*
X96294304Y-148548499D01*
X96294307Y-148548500D01*
X96294309Y-148548500D01*
X96471693Y-148548500D01*
X96471694Y-148548499D01*
X96529682Y-148536964D01*
X96645658Y-148513896D01*
X96645661Y-148513894D01*
X96645666Y-148513894D01*
X96809547Y-148446013D01*
X96939109Y-148359442D01*
X97005786Y-148338564D01*
X97073166Y-148357048D01*
X97076891Y-148359442D01*
X97206453Y-148446013D01*
X97206455Y-148446014D01*
X97206459Y-148446016D01*
X97315106Y-148491018D01*
X97370334Y-148513894D01*
X97370336Y-148513894D01*
X97370341Y-148513896D01*
X97544304Y-148548499D01*
X97544307Y-148548500D01*
X97544309Y-148548500D01*
X97721693Y-148548500D01*
X97721694Y-148548499D01*
X97779682Y-148536964D01*
X97895658Y-148513896D01*
X97895661Y-148513894D01*
X97895666Y-148513894D01*
X98059547Y-148446013D01*
X98207035Y-148347464D01*
X98332464Y-148222035D01*
X98431013Y-148074547D01*
X98498894Y-147910666D01*
X98500105Y-147904582D01*
X98533499Y-147736695D01*
X98533500Y-147736693D01*
X98533500Y-147320000D01*
X118474540Y-147320000D01*
X118494326Y-147508256D01*
X118494327Y-147508259D01*
X118552818Y-147688277D01*
X118552821Y-147688284D01*
X118647467Y-147852216D01*
X118694618Y-147904582D01*
X118774129Y-147992888D01*
X118927265Y-148104148D01*
X118927270Y-148104151D01*
X119100192Y-148181142D01*
X119100197Y-148181144D01*
X119285354Y-148220500D01*
X119285355Y-148220500D01*
X119474644Y-148220500D01*
X119474646Y-148220500D01*
X119659803Y-148181144D01*
X119832730Y-148104151D01*
X119985871Y-147992888D01*
X120112533Y-147852216D01*
X120207179Y-147688284D01*
X120265674Y-147508256D01*
X120285460Y-147320000D01*
X120265674Y-147131744D01*
X120207179Y-146951716D01*
X120112533Y-146787784D01*
X119985871Y-146647112D01*
X119985870Y-146647111D01*
X119832734Y-146535851D01*
X119832729Y-146535848D01*
X119659807Y-146458857D01*
X119659802Y-146458855D01*
X119514001Y-146427865D01*
X119474646Y-146419500D01*
X119285354Y-146419500D01*
X119252897Y-146426398D01*
X119100197Y-146458855D01*
X119100192Y-146458857D01*
X118927270Y-146535848D01*
X118927265Y-146535851D01*
X118774129Y-146647111D01*
X118647466Y-146787785D01*
X118552821Y-146951715D01*
X118552818Y-146951722D01*
X118495090Y-147129392D01*
X118494326Y-147131744D01*
X118474540Y-147320000D01*
X98533500Y-147320000D01*
X98533500Y-147059306D01*
X98533499Y-147059304D01*
X98498896Y-146885341D01*
X98498893Y-146885332D01*
X98431016Y-146721459D01*
X98431009Y-146721446D01*
X98332464Y-146573965D01*
X98332461Y-146573961D01*
X98207038Y-146448538D01*
X98207034Y-146448535D01*
X98059553Y-146349990D01*
X98059540Y-146349983D01*
X97895667Y-146282106D01*
X97895658Y-146282103D01*
X97721694Y-146247500D01*
X97721691Y-146247500D01*
X97544309Y-146247500D01*
X97544306Y-146247500D01*
X97370341Y-146282103D01*
X97370332Y-146282106D01*
X97206459Y-146349983D01*
X97206446Y-146349990D01*
X97076891Y-146436557D01*
X97010213Y-146457435D01*
X96942833Y-146438950D01*
X96939109Y-146436557D01*
X96809553Y-146349990D01*
X96809540Y-146349983D01*
X96645667Y-146282106D01*
X96645658Y-146282103D01*
X96471694Y-146247500D01*
X96471691Y-146247500D01*
X96294309Y-146247500D01*
X96294306Y-146247500D01*
X96120341Y-146282103D01*
X96120332Y-146282106D01*
X95956459Y-146349983D01*
X95956446Y-146349990D01*
X95826891Y-146436557D01*
X95760213Y-146457435D01*
X95692833Y-146438950D01*
X95689109Y-146436557D01*
X95559553Y-146349990D01*
X95559540Y-146349983D01*
X95395667Y-146282106D01*
X95395658Y-146282103D01*
X95221694Y-146247500D01*
X95221691Y-146247500D01*
X95044309Y-146247500D01*
X95044306Y-146247500D01*
X94870341Y-146282103D01*
X94870332Y-146282106D01*
X94706459Y-146349983D01*
X94706448Y-146349989D01*
X94648702Y-146388574D01*
X94582024Y-146409451D01*
X94515662Y-146391588D01*
X94372395Y-146304980D01*
X94372396Y-146304980D01*
X94210105Y-146254409D01*
X94210106Y-146254409D01*
X94139572Y-146248000D01*
X94133000Y-146248000D01*
X94133000Y-147348272D01*
X94094940Y-147256386D01*
X94024614Y-147186060D01*
X93932728Y-147148000D01*
X93833272Y-147148000D01*
X93741386Y-147186060D01*
X93671060Y-147256386D01*
X93633000Y-147348272D01*
X79280576Y-147348272D01*
X79089794Y-147148730D01*
X79089793Y-147148729D01*
X79089790Y-147148726D01*
X78795288Y-146891427D01*
X92983000Y-146891427D01*
X92983000Y-147148000D01*
X93633000Y-147148000D01*
X93633000Y-146248000D01*
X93632999Y-146247999D01*
X93626436Y-146248000D01*
X93626417Y-146248001D01*
X93555897Y-146254408D01*
X93555892Y-146254409D01*
X93393603Y-146304981D01*
X93248122Y-146392927D01*
X93127927Y-146513122D01*
X93039980Y-146658604D01*
X92989409Y-146820893D01*
X92983000Y-146891427D01*
X78795288Y-146891427D01*
X78765080Y-146865035D01*
X78704324Y-146820893D01*
X78416256Y-146611599D01*
X78416251Y-146611596D01*
X78416247Y-146611593D01*
X78046100Y-146390440D01*
X78046095Y-146390437D01*
X78046093Y-146390436D01*
X77657627Y-146203360D01*
X77657613Y-146203354D01*
X77253944Y-146051855D01*
X77253919Y-146051847D01*
X76838295Y-145937142D01*
X76414043Y-145860151D01*
X76414040Y-145860150D01*
X76414036Y-145860150D01*
X75984591Y-145821500D01*
X75553409Y-145821500D01*
X75123964Y-145860150D01*
X75123960Y-145860150D01*
X75123956Y-145860151D01*
X74699704Y-145937142D01*
X74284080Y-146051847D01*
X74284055Y-146051855D01*
X73880386Y-146203354D01*
X73880372Y-146203360D01*
X73491906Y-146390436D01*
X73491904Y-146390437D01*
X73121743Y-146611599D01*
X72772931Y-146865026D01*
X72772914Y-146865039D01*
X72448210Y-147148726D01*
X72448205Y-147148730D01*
X72150237Y-147460379D01*
X72150225Y-147460392D01*
X71881404Y-147797485D01*
X71881394Y-147797498D01*
X71643867Y-148157337D01*
X71643867Y-148157338D01*
X71439537Y-148537044D01*
X71439533Y-148537052D01*
X71270076Y-148933519D01*
X71270073Y-148933527D01*
X71136830Y-149343608D01*
X71040885Y-149763972D01*
X70983006Y-150191253D01*
X70983005Y-150191262D01*
X70963661Y-150621996D01*
X70104000Y-150621996D01*
X70104000Y-142240000D01*
X91042540Y-142240000D01*
X91062326Y-142428256D01*
X91062327Y-142428259D01*
X91120818Y-142608277D01*
X91120821Y-142608284D01*
X91215467Y-142772216D01*
X91296559Y-142862277D01*
X91342129Y-142912888D01*
X91495265Y-143024148D01*
X91495270Y-143024151D01*
X91668191Y-143101142D01*
X91668193Y-143101142D01*
X91668197Y-143101144D01*
X91734781Y-143115296D01*
X91796260Y-143148488D01*
X91826929Y-143198268D01*
X91882818Y-143370277D01*
X91882821Y-143370284D01*
X91977467Y-143534216D01*
X91989413Y-143547483D01*
X92104129Y-143674888D01*
X92257265Y-143786148D01*
X92257270Y-143786151D01*
X92430192Y-143863142D01*
X92430197Y-143863144D01*
X92615354Y-143902500D01*
X92615355Y-143902500D01*
X92804644Y-143902500D01*
X92804646Y-143902500D01*
X92989803Y-143863144D01*
X93162730Y-143786151D01*
X93315871Y-143674888D01*
X93442533Y-143534216D01*
X93537179Y-143370284D01*
X93595674Y-143190256D01*
X93615460Y-143002000D01*
X99932540Y-143002000D01*
X99952326Y-143190256D01*
X99952327Y-143190259D01*
X100010818Y-143370277D01*
X100010821Y-143370284D01*
X100105467Y-143534216D01*
X100117413Y-143547483D01*
X100232129Y-143674888D01*
X100385265Y-143786148D01*
X100385270Y-143786151D01*
X100558192Y-143863142D01*
X100558197Y-143863144D01*
X100743354Y-143902500D01*
X100743355Y-143902500D01*
X100932644Y-143902500D01*
X100932646Y-143902500D01*
X101117803Y-143863144D01*
X101290730Y-143786151D01*
X101443871Y-143674888D01*
X101570533Y-143534216D01*
X101617517Y-143452836D01*
X101668082Y-143404623D01*
X101699120Y-143393548D01*
X101879803Y-143355144D01*
X102052730Y-143278151D01*
X102205871Y-143166888D01*
X102332533Y-143026216D01*
X102427179Y-142862284D01*
X102485674Y-142682256D01*
X102505460Y-142494000D01*
X102485674Y-142305744D01*
X102427179Y-142125716D01*
X102332533Y-141961784D01*
X102205871Y-141821112D01*
X102205870Y-141821111D01*
X102052734Y-141709851D01*
X102052729Y-141709848D01*
X101879807Y-141632857D01*
X101879802Y-141632855D01*
X101734001Y-141601865D01*
X101694646Y-141593500D01*
X101505354Y-141593500D01*
X101472897Y-141600398D01*
X101320197Y-141632855D01*
X101320192Y-141632857D01*
X101147270Y-141709848D01*
X101147265Y-141709851D01*
X100994129Y-141821111D01*
X100867467Y-141961783D01*
X100820483Y-142043162D01*
X100769915Y-142091377D01*
X100738877Y-142102451D01*
X100558197Y-142140855D01*
X100558192Y-142140857D01*
X100385270Y-142217848D01*
X100385265Y-142217851D01*
X100232129Y-142329111D01*
X100105466Y-142469785D01*
X100010821Y-142633715D01*
X100010818Y-142633722D01*
X99965820Y-142772214D01*
X99952326Y-142813744D01*
X99932540Y-143002000D01*
X93615460Y-143002000D01*
X93595674Y-142813744D01*
X93537179Y-142633716D01*
X93442533Y-142469784D01*
X93315871Y-142329112D01*
X93283708Y-142305744D01*
X93162734Y-142217851D01*
X93162729Y-142217848D01*
X92989807Y-142140857D01*
X92989805Y-142140856D01*
X92923218Y-142126702D01*
X92861737Y-142093508D01*
X92831070Y-142043730D01*
X92830885Y-142043162D01*
X92820180Y-142010214D01*
X92775181Y-141871721D01*
X92775178Y-141871715D01*
X92680533Y-141707784D01*
X92553871Y-141567112D01*
X92553870Y-141567111D01*
X92400734Y-141455851D01*
X92400729Y-141455848D01*
X92227807Y-141378857D01*
X92227802Y-141378855D01*
X92082001Y-141347865D01*
X92042646Y-141339500D01*
X91853354Y-141339500D01*
X91820897Y-141346398D01*
X91668197Y-141378855D01*
X91668192Y-141378857D01*
X91495270Y-141455848D01*
X91495265Y-141455851D01*
X91342129Y-141567111D01*
X91215466Y-141707785D01*
X91120821Y-141871715D01*
X91120818Y-141871722D01*
X91075820Y-142010214D01*
X91062326Y-142051744D01*
X91042540Y-142240000D01*
X70104000Y-142240000D01*
X70104000Y-139446000D01*
X86470540Y-139446000D01*
X86490326Y-139634256D01*
X86490327Y-139634259D01*
X86548818Y-139814277D01*
X86548821Y-139814284D01*
X86643467Y-139978216D01*
X86770129Y-140118888D01*
X86923265Y-140230148D01*
X86923270Y-140230151D01*
X87096192Y-140307142D01*
X87096197Y-140307144D01*
X87281354Y-140346500D01*
X87281355Y-140346500D01*
X87470644Y-140346500D01*
X87470646Y-140346500D01*
X87655803Y-140307144D01*
X87828730Y-140230151D01*
X87859218Y-140208000D01*
X102726540Y-140208000D01*
X102746326Y-140396256D01*
X102746327Y-140396259D01*
X102804818Y-140576277D01*
X102804821Y-140576284D01*
X102899467Y-140740216D01*
X102951200Y-140797671D01*
X103026129Y-140880888D01*
X103179265Y-140992148D01*
X103179270Y-140992151D01*
X103352192Y-141069142D01*
X103352197Y-141069144D01*
X103537354Y-141108500D01*
X103537355Y-141108500D01*
X103726644Y-141108500D01*
X103726646Y-141108500D01*
X103911803Y-141069144D01*
X104084730Y-140992151D01*
X104237871Y-140880888D01*
X104364533Y-140740216D01*
X104459179Y-140576284D01*
X104496312Y-140462000D01*
X117966540Y-140462000D01*
X117986326Y-140650256D01*
X117986327Y-140650259D01*
X118044818Y-140830277D01*
X118044821Y-140830284D01*
X118139467Y-140994216D01*
X118266129Y-141134888D01*
X118419265Y-141246148D01*
X118419270Y-141246151D01*
X118592192Y-141323142D01*
X118592197Y-141323144D01*
X118777354Y-141362500D01*
X118777355Y-141362500D01*
X118966644Y-141362500D01*
X118966646Y-141362500D01*
X119088185Y-141336666D01*
X119157849Y-141341982D01*
X119213582Y-141384119D01*
X119237688Y-141449698D01*
X119237284Y-141470911D01*
X119236540Y-141477993D01*
X119236540Y-141477997D01*
X119236540Y-141478000D01*
X119256326Y-141666256D01*
X119256327Y-141666259D01*
X119314818Y-141846277D01*
X119314821Y-141846284D01*
X119409467Y-142010216D01*
X119514352Y-142126702D01*
X119536129Y-142150888D01*
X119689265Y-142262148D01*
X119689270Y-142262151D01*
X119862192Y-142339142D01*
X119862197Y-142339144D01*
X120047354Y-142378500D01*
X120047355Y-142378500D01*
X120236644Y-142378500D01*
X120236646Y-142378500D01*
X120421803Y-142339144D01*
X120594730Y-142262151D01*
X120747871Y-142150888D01*
X120874533Y-142010216D01*
X120969179Y-141846284D01*
X121027674Y-141666256D01*
X121047460Y-141478000D01*
X121027674Y-141289744D01*
X120969179Y-141109716D01*
X120874533Y-140945784D01*
X120747871Y-140805112D01*
X120747870Y-140805111D01*
X120594734Y-140693851D01*
X120594729Y-140693848D01*
X120421807Y-140616857D01*
X120421802Y-140616855D01*
X120276001Y-140585865D01*
X120236646Y-140577500D01*
X120047354Y-140577500D01*
X120047353Y-140577500D01*
X119925816Y-140603333D01*
X119856149Y-140598017D01*
X119800416Y-140555880D01*
X119776311Y-140490300D01*
X119776716Y-140469078D01*
X119776933Y-140467011D01*
X119777460Y-140462000D01*
X119757674Y-140273744D01*
X119699179Y-140093716D01*
X119604533Y-139929784D01*
X119477871Y-139789112D01*
X119477870Y-139789111D01*
X119324734Y-139677851D01*
X119324729Y-139677848D01*
X119151807Y-139600857D01*
X119151802Y-139600855D01*
X119006001Y-139569865D01*
X118966646Y-139561500D01*
X118777354Y-139561500D01*
X118744897Y-139568398D01*
X118592197Y-139600855D01*
X118592192Y-139600857D01*
X118419270Y-139677848D01*
X118419265Y-139677851D01*
X118266129Y-139789111D01*
X118139466Y-139929785D01*
X118044821Y-140093715D01*
X118044818Y-140093722D01*
X118004825Y-140216809D01*
X117986326Y-140273744D01*
X117966540Y-140462000D01*
X104496312Y-140462000D01*
X104517674Y-140396256D01*
X104537460Y-140208000D01*
X104517674Y-140019744D01*
X104459179Y-139839716D01*
X104364533Y-139675784D01*
X104237871Y-139535112D01*
X104237870Y-139535111D01*
X104084734Y-139423851D01*
X104084729Y-139423848D01*
X103911807Y-139346857D01*
X103911802Y-139346855D01*
X103766001Y-139315865D01*
X103726646Y-139307500D01*
X103537354Y-139307500D01*
X103504897Y-139314398D01*
X103352197Y-139346855D01*
X103352192Y-139346857D01*
X103179270Y-139423848D01*
X103179265Y-139423851D01*
X103026129Y-139535111D01*
X102899466Y-139675785D01*
X102804821Y-139839715D01*
X102804818Y-139839722D01*
X102759820Y-139978214D01*
X102746326Y-140019744D01*
X102726540Y-140208000D01*
X87859218Y-140208000D01*
X87981871Y-140118888D01*
X88108533Y-139978216D01*
X88203179Y-139814284D01*
X88261674Y-139634256D01*
X88281460Y-139446000D01*
X88261674Y-139257744D01*
X88203179Y-139077716D01*
X88122514Y-138938000D01*
X104758540Y-138938000D01*
X104778326Y-139126256D01*
X104778327Y-139126259D01*
X104836818Y-139306277D01*
X104836821Y-139306284D01*
X104931467Y-139470216D01*
X104940176Y-139479888D01*
X105058129Y-139610888D01*
X105211265Y-139722148D01*
X105211270Y-139722151D01*
X105384192Y-139799142D01*
X105384197Y-139799144D01*
X105569354Y-139838500D01*
X105569355Y-139838500D01*
X105758644Y-139838500D01*
X105758646Y-139838500D01*
X105943803Y-139799144D01*
X106116730Y-139722151D01*
X106269871Y-139610888D01*
X106396533Y-139470216D01*
X106491179Y-139306284D01*
X106549674Y-139126256D01*
X106569460Y-138938000D01*
X114156540Y-138938000D01*
X114176326Y-139126256D01*
X114176327Y-139126259D01*
X114234818Y-139306277D01*
X114234821Y-139306284D01*
X114329467Y-139470216D01*
X114338176Y-139479888D01*
X114456129Y-139610888D01*
X114609265Y-139722148D01*
X114609270Y-139722151D01*
X114782192Y-139799142D01*
X114782197Y-139799144D01*
X114967354Y-139838500D01*
X114967355Y-139838500D01*
X115156644Y-139838500D01*
X115156646Y-139838500D01*
X115341803Y-139799144D01*
X115514730Y-139722151D01*
X115667871Y-139610888D01*
X115794533Y-139470216D01*
X115889179Y-139306284D01*
X115947674Y-139126256D01*
X115967460Y-138938000D01*
X115947674Y-138749744D01*
X115944506Y-138739995D01*
X122754732Y-138739995D01*
X122754732Y-138740004D01*
X122773777Y-138994154D01*
X122803928Y-139126256D01*
X122830492Y-139242637D01*
X122923607Y-139479888D01*
X123051041Y-139700612D01*
X123209950Y-139899877D01*
X123396783Y-140073232D01*
X123607366Y-140216805D01*
X123607371Y-140216807D01*
X123607372Y-140216808D01*
X123607373Y-140216809D01*
X123725593Y-140273740D01*
X123787972Y-140303780D01*
X123839832Y-140350602D01*
X123858145Y-140418029D01*
X123837097Y-140484653D01*
X123783371Y-140529321D01*
X123734171Y-140539500D01*
X123212129Y-140539500D01*
X123212123Y-140539501D01*
X123152516Y-140545908D01*
X123017671Y-140596202D01*
X123017664Y-140596206D01*
X122902455Y-140682452D01*
X122902452Y-140682455D01*
X122816206Y-140797664D01*
X122816202Y-140797671D01*
X122765908Y-140932517D01*
X122764482Y-140945785D01*
X122759501Y-140992123D01*
X122759500Y-140992135D01*
X122759500Y-143487870D01*
X122759501Y-143487876D01*
X122765908Y-143547483D01*
X122816202Y-143682328D01*
X122816206Y-143682335D01*
X122902452Y-143797544D01*
X122902455Y-143797547D01*
X123017664Y-143883793D01*
X123017671Y-143883797D01*
X123152517Y-143934091D01*
X123152516Y-143934091D01*
X123159444Y-143934835D01*
X123212127Y-143940500D01*
X125707872Y-143940499D01*
X125767483Y-143934091D01*
X125902331Y-143883796D01*
X126017546Y-143797546D01*
X126103796Y-143682331D01*
X126154091Y-143547483D01*
X126160500Y-143487873D01*
X126160499Y-140992128D01*
X126154091Y-140932517D01*
X126103796Y-140797669D01*
X126103795Y-140797668D01*
X126103793Y-140797664D01*
X126017547Y-140682455D01*
X126017544Y-140682452D01*
X125902335Y-140596206D01*
X125902328Y-140596202D01*
X125767482Y-140545908D01*
X125767483Y-140545908D01*
X125707883Y-140539501D01*
X125707881Y-140539500D01*
X125707873Y-140539500D01*
X125707865Y-140539500D01*
X125185829Y-140539500D01*
X125118790Y-140519815D01*
X125073035Y-140467011D01*
X125063091Y-140397853D01*
X125092116Y-140334297D01*
X125132027Y-140303780D01*
X125312634Y-140216805D01*
X125523217Y-140073232D01*
X125710050Y-139899877D01*
X125868959Y-139700612D01*
X125996393Y-139479888D01*
X126089508Y-139242637D01*
X126146222Y-138994157D01*
X126165268Y-138740000D01*
X126159411Y-138661848D01*
X126146222Y-138485845D01*
X126095841Y-138265112D01*
X126089508Y-138237363D01*
X125996393Y-138000112D01*
X125868959Y-137779388D01*
X125710050Y-137580123D01*
X125523217Y-137406768D01*
X125312634Y-137263195D01*
X125312630Y-137263193D01*
X125312627Y-137263191D01*
X125312626Y-137263190D01*
X125083006Y-137152612D01*
X125083008Y-137152612D01*
X124839466Y-137077489D01*
X124839462Y-137077488D01*
X124839458Y-137077487D01*
X124718231Y-137059214D01*
X124587440Y-137039500D01*
X124587435Y-137039500D01*
X124332565Y-137039500D01*
X124332559Y-137039500D01*
X124175609Y-137063157D01*
X124080542Y-137077487D01*
X124080539Y-137077488D01*
X124080533Y-137077489D01*
X123836992Y-137152612D01*
X123607373Y-137263190D01*
X123607372Y-137263191D01*
X123396782Y-137406768D01*
X123209952Y-137580121D01*
X123209950Y-137580123D01*
X123051041Y-137779388D01*
X122923608Y-138000109D01*
X122830492Y-138237362D01*
X122830490Y-138237369D01*
X122773777Y-138485845D01*
X122754732Y-138739995D01*
X115944506Y-138739995D01*
X115889179Y-138569716D01*
X115794533Y-138405784D01*
X115667871Y-138265112D01*
X115629678Y-138237363D01*
X115514734Y-138153851D01*
X115514729Y-138153848D01*
X115341807Y-138076857D01*
X115341802Y-138076855D01*
X115196001Y-138045865D01*
X115156646Y-138037500D01*
X114967354Y-138037500D01*
X114934897Y-138044398D01*
X114782197Y-138076855D01*
X114782192Y-138076857D01*
X114609270Y-138153848D01*
X114609265Y-138153851D01*
X114456129Y-138265111D01*
X114329466Y-138405785D01*
X114234821Y-138569715D01*
X114234818Y-138569722D01*
X114176327Y-138749740D01*
X114176326Y-138749744D01*
X114156540Y-138938000D01*
X106569460Y-138938000D01*
X106549674Y-138749744D01*
X106491179Y-138569716D01*
X106396533Y-138405784D01*
X106269871Y-138265112D01*
X106231678Y-138237363D01*
X106116734Y-138153851D01*
X106116729Y-138153848D01*
X105943807Y-138076857D01*
X105943802Y-138076855D01*
X105798001Y-138045865D01*
X105758646Y-138037500D01*
X105569354Y-138037500D01*
X105536897Y-138044398D01*
X105384197Y-138076855D01*
X105384192Y-138076857D01*
X105211270Y-138153848D01*
X105211265Y-138153851D01*
X105058129Y-138265111D01*
X104931466Y-138405785D01*
X104836821Y-138569715D01*
X104836818Y-138569722D01*
X104778327Y-138749740D01*
X104778326Y-138749744D01*
X104758540Y-138938000D01*
X88122514Y-138938000D01*
X88108533Y-138913784D01*
X87981871Y-138773112D01*
X87949708Y-138749744D01*
X87828734Y-138661851D01*
X87828729Y-138661848D01*
X87655807Y-138584857D01*
X87655802Y-138584855D01*
X87510001Y-138553865D01*
X87470646Y-138545500D01*
X87281354Y-138545500D01*
X87248897Y-138552398D01*
X87096197Y-138584855D01*
X87096192Y-138584857D01*
X86923270Y-138661848D01*
X86923265Y-138661851D01*
X86770129Y-138773111D01*
X86643466Y-138913785D01*
X86548821Y-139077715D01*
X86548818Y-139077722D01*
X86490327Y-139257740D01*
X86490326Y-139257744D01*
X86470540Y-139446000D01*
X70104000Y-139446000D01*
X70104000Y-134366000D01*
X80120540Y-134366000D01*
X80140326Y-134554256D01*
X80140327Y-134554259D01*
X80198818Y-134734277D01*
X80198821Y-134734284D01*
X80293467Y-134898216D01*
X80420129Y-135038888D01*
X80578527Y-135153971D01*
X80576976Y-135156105D01*
X80617098Y-135198199D01*
X80630309Y-135266808D01*
X80604330Y-135331668D01*
X80577634Y-135354800D01*
X80578527Y-135356029D01*
X80420129Y-135471111D01*
X80293466Y-135611785D01*
X80198821Y-135775715D01*
X80198818Y-135775722D01*
X80168884Y-135867851D01*
X80140326Y-135955744D01*
X80120540Y-136144000D01*
X80140326Y-136332256D01*
X80140327Y-136332259D01*
X80198818Y-136512277D01*
X80198821Y-136512284D01*
X80293467Y-136676216D01*
X80360995Y-136751213D01*
X80420129Y-136816888D01*
X80573265Y-136928148D01*
X80573270Y-136928151D01*
X80746192Y-137005142D01*
X80746197Y-137005144D01*
X80931354Y-137044500D01*
X80931355Y-137044500D01*
X81120644Y-137044500D01*
X81120646Y-137044500D01*
X81305803Y-137005144D01*
X81478730Y-136928151D01*
X81631871Y-136816888D01*
X81758533Y-136676216D01*
X81772514Y-136652000D01*
X104758540Y-136652000D01*
X104778326Y-136840256D01*
X104778327Y-136840259D01*
X104836818Y-137020277D01*
X104836821Y-137020284D01*
X104931467Y-137184216D01*
X105058129Y-137324888D01*
X105211265Y-137436148D01*
X105211270Y-137436151D01*
X105384192Y-137513142D01*
X105384197Y-137513144D01*
X105569354Y-137552500D01*
X105569355Y-137552500D01*
X105758644Y-137552500D01*
X105758646Y-137552500D01*
X105943803Y-137513144D01*
X106116730Y-137436151D01*
X106269871Y-137324888D01*
X106396533Y-137184216D01*
X106491179Y-137020284D01*
X106528312Y-136906000D01*
X116442540Y-136906000D01*
X116462326Y-137094256D01*
X116462327Y-137094259D01*
X116520818Y-137274277D01*
X116520821Y-137274284D01*
X116615467Y-137438216D01*
X116682931Y-137513142D01*
X116742129Y-137578888D01*
X116895265Y-137690148D01*
X116895270Y-137690151D01*
X117068192Y-137767142D01*
X117068197Y-137767144D01*
X117253354Y-137806500D01*
X117253355Y-137806500D01*
X117442644Y-137806500D01*
X117442646Y-137806500D01*
X117589280Y-137775332D01*
X117658946Y-137780648D01*
X117714680Y-137822785D01*
X117732991Y-137858304D01*
X117790818Y-138036277D01*
X117790821Y-138036284D01*
X117885467Y-138200216D01*
X117918920Y-138237369D01*
X118012129Y-138340888D01*
X118165265Y-138452148D01*
X118165270Y-138452151D01*
X118338192Y-138529142D01*
X118338197Y-138529144D01*
X118523354Y-138568500D01*
X118523355Y-138568500D01*
X118712644Y-138568500D01*
X118712646Y-138568500D01*
X118897803Y-138529144D01*
X119070730Y-138452151D01*
X119223871Y-138340888D01*
X119350533Y-138200216D01*
X119445179Y-138036284D01*
X119503674Y-137856256D01*
X119523460Y-137668000D01*
X119503674Y-137479744D01*
X119445179Y-137299716D01*
X119350533Y-137135784D01*
X119223871Y-136995112D01*
X119223870Y-136995111D01*
X119070734Y-136883851D01*
X119070729Y-136883848D01*
X118897807Y-136806857D01*
X118897802Y-136806855D01*
X118752001Y-136775865D01*
X118712646Y-136767500D01*
X118523354Y-136767500D01*
X118376719Y-136798668D01*
X118307052Y-136793351D01*
X118251319Y-136751213D01*
X118233008Y-136715695D01*
X118175181Y-136537721D01*
X118175178Y-136537715D01*
X118080533Y-136373784D01*
X117953871Y-136233112D01*
X117953870Y-136233111D01*
X117800734Y-136121851D01*
X117800729Y-136121848D01*
X117627807Y-136044857D01*
X117627802Y-136044855D01*
X117482001Y-136013865D01*
X117442646Y-136005500D01*
X117253354Y-136005500D01*
X117220897Y-136012398D01*
X117068197Y-136044855D01*
X117068192Y-136044857D01*
X116895270Y-136121848D01*
X116895265Y-136121851D01*
X116742129Y-136233111D01*
X116615466Y-136373785D01*
X116520821Y-136537715D01*
X116520818Y-136537722D01*
X116462327Y-136717740D01*
X116462326Y-136717744D01*
X116442540Y-136906000D01*
X106528312Y-136906000D01*
X106549674Y-136840256D01*
X106569460Y-136652000D01*
X106549674Y-136463744D01*
X106491179Y-136283716D01*
X106396533Y-136119784D01*
X106269871Y-135979112D01*
X106237708Y-135955744D01*
X106116734Y-135867851D01*
X106116729Y-135867848D01*
X105943807Y-135790857D01*
X105943802Y-135790855D01*
X105798001Y-135759865D01*
X105758646Y-135751500D01*
X105569354Y-135751500D01*
X105536897Y-135758398D01*
X105384197Y-135790855D01*
X105384192Y-135790857D01*
X105211270Y-135867848D01*
X105211265Y-135867851D01*
X105058129Y-135979111D01*
X104931466Y-136119785D01*
X104836821Y-136283715D01*
X104836818Y-136283722D01*
X104778327Y-136463740D01*
X104778326Y-136463744D01*
X104758540Y-136652000D01*
X81772514Y-136652000D01*
X81853179Y-136512284D01*
X81911674Y-136332256D01*
X81931460Y-136144000D01*
X81911674Y-135955744D01*
X81853179Y-135775716D01*
X81758533Y-135611784D01*
X81631871Y-135471112D01*
X81631870Y-135471111D01*
X81473473Y-135356029D01*
X81475028Y-135353888D01*
X81434921Y-135311840D01*
X81421685Y-135243235D01*
X81447642Y-135178366D01*
X81474370Y-135155205D01*
X81473473Y-135153971D01*
X81509219Y-135128000D01*
X83676540Y-135128000D01*
X83696326Y-135316256D01*
X83696327Y-135316259D01*
X83754818Y-135496277D01*
X83754821Y-135496284D01*
X83849467Y-135660216D01*
X83967095Y-135790855D01*
X83976129Y-135800888D01*
X84129265Y-135912148D01*
X84129270Y-135912151D01*
X84302192Y-135989142D01*
X84302197Y-135989144D01*
X84487354Y-136028500D01*
X84487355Y-136028500D01*
X84676644Y-136028500D01*
X84676646Y-136028500D01*
X84861803Y-135989144D01*
X85034730Y-135912151D01*
X85187871Y-135800888D01*
X85314533Y-135660216D01*
X85409179Y-135496284D01*
X85467674Y-135316256D01*
X85487460Y-135128000D01*
X85485397Y-135108374D01*
X85497964Y-135039647D01*
X85524685Y-135011080D01*
X85516320Y-135008274D01*
X85502401Y-134990917D01*
X85671314Y-134990917D01*
X85679676Y-134993722D01*
X85723389Y-135048228D01*
X85726648Y-135057093D01*
X85786819Y-135242280D01*
X85786821Y-135242284D01*
X85881467Y-135406216D01*
X85939899Y-135471111D01*
X86008129Y-135546888D01*
X86161265Y-135658148D01*
X86161270Y-135658151D01*
X86334192Y-135735142D01*
X86334197Y-135735144D01*
X86519354Y-135774500D01*
X86519355Y-135774500D01*
X86708644Y-135774500D01*
X86708646Y-135774500D01*
X86893803Y-135735144D01*
X87066730Y-135658151D01*
X87219871Y-135546888D01*
X87346533Y-135406216D01*
X87441179Y-135242284D01*
X87499674Y-135062256D01*
X87519460Y-134874000D01*
X87499674Y-134685744D01*
X87441179Y-134505716D01*
X87346533Y-134341784D01*
X87219871Y-134201112D01*
X87187708Y-134177744D01*
X87066734Y-134089851D01*
X87066729Y-134089848D01*
X86893807Y-134012857D01*
X86893802Y-134012855D01*
X86748001Y-133981865D01*
X86708646Y-133973500D01*
X86519354Y-133973500D01*
X86486897Y-133980398D01*
X86334197Y-134012855D01*
X86334192Y-134012857D01*
X86161270Y-134089848D01*
X86161265Y-134089851D01*
X86008129Y-134201111D01*
X85881466Y-134341785D01*
X85786821Y-134505715D01*
X85786818Y-134505722D01*
X85728327Y-134685740D01*
X85728326Y-134685744D01*
X85720551Y-134759722D01*
X85708540Y-134874000D01*
X85710603Y-134893626D01*
X85698033Y-134962356D01*
X85671314Y-134990917D01*
X85502401Y-134990917D01*
X85472608Y-134953767D01*
X85469351Y-134944905D01*
X85409181Y-134759722D01*
X85409180Y-134759721D01*
X85409179Y-134759716D01*
X85314533Y-134595784D01*
X85187871Y-134455112D01*
X85187870Y-134455111D01*
X85034734Y-134343851D01*
X85034729Y-134343848D01*
X84861807Y-134266857D01*
X84861802Y-134266855D01*
X84716001Y-134235865D01*
X84676646Y-134227500D01*
X84487354Y-134227500D01*
X84454897Y-134234398D01*
X84302197Y-134266855D01*
X84302192Y-134266857D01*
X84129270Y-134343848D01*
X84129265Y-134343851D01*
X83976129Y-134455111D01*
X83849466Y-134595785D01*
X83754821Y-134759715D01*
X83754818Y-134759722D01*
X83709820Y-134898214D01*
X83696326Y-134939744D01*
X83676540Y-135128000D01*
X81509219Y-135128000D01*
X81599703Y-135062259D01*
X81631871Y-135038888D01*
X81758533Y-134898216D01*
X81853179Y-134734284D01*
X81911674Y-134554256D01*
X81931460Y-134366000D01*
X81911674Y-134177744D01*
X81853179Y-133997716D01*
X81758533Y-133833784D01*
X81631871Y-133693112D01*
X81631870Y-133693111D01*
X81478734Y-133581851D01*
X81478729Y-133581848D01*
X81305807Y-133504857D01*
X81305802Y-133504855D01*
X81160001Y-133473865D01*
X81120646Y-133465500D01*
X80931354Y-133465500D01*
X80898897Y-133472398D01*
X80746197Y-133504855D01*
X80746192Y-133504857D01*
X80573270Y-133581848D01*
X80573265Y-133581851D01*
X80420129Y-133693111D01*
X80293466Y-133833785D01*
X80198821Y-133997715D01*
X80198818Y-133997722D01*
X80168884Y-134089851D01*
X80140326Y-134177744D01*
X80120540Y-134366000D01*
X70104000Y-134366000D01*
X70104000Y-129032000D01*
X78088540Y-129032000D01*
X78108326Y-129220256D01*
X78108327Y-129220259D01*
X78166818Y-129400277D01*
X78166821Y-129400284D01*
X78261467Y-129564216D01*
X78319899Y-129629111D01*
X78388129Y-129704888D01*
X78541265Y-129816148D01*
X78541270Y-129816151D01*
X78714192Y-129893142D01*
X78714197Y-129893144D01*
X78899354Y-129932500D01*
X78899355Y-129932500D01*
X79088644Y-129932500D01*
X79088646Y-129932500D01*
X79273803Y-129893144D01*
X79446730Y-129816151D01*
X79599871Y-129704888D01*
X79726533Y-129564216D01*
X79821179Y-129400284D01*
X79858312Y-129286000D01*
X82914540Y-129286000D01*
X82934326Y-129474256D01*
X82934327Y-129474259D01*
X82992818Y-129654277D01*
X82992821Y-129654284D01*
X83087467Y-129818216D01*
X83214129Y-129958888D01*
X83367265Y-130070148D01*
X83367270Y-130070151D01*
X83540192Y-130147142D01*
X83540197Y-130147144D01*
X83725354Y-130186500D01*
X83725355Y-130186500D01*
X83914644Y-130186500D01*
X83914646Y-130186500D01*
X84099803Y-130147144D01*
X84272730Y-130070151D01*
X84425871Y-129958888D01*
X84552533Y-129818216D01*
X84566514Y-129794000D01*
X96630540Y-129794000D01*
X96650326Y-129982256D01*
X96650327Y-129982259D01*
X96708818Y-130162277D01*
X96708821Y-130162284D01*
X96803467Y-130326216D01*
X96930129Y-130466888D01*
X97083265Y-130578148D01*
X97083270Y-130578151D01*
X97256192Y-130655142D01*
X97256197Y-130655144D01*
X97441354Y-130694500D01*
X97441355Y-130694500D01*
X97630644Y-130694500D01*
X97630646Y-130694500D01*
X97815803Y-130655144D01*
X97988730Y-130578151D01*
X98023908Y-130552593D01*
X98089714Y-130529112D01*
X98157768Y-130544937D01*
X98206463Y-130595042D01*
X98214725Y-130614591D01*
X98232819Y-130670280D01*
X98232821Y-130670284D01*
X98327467Y-130834216D01*
X98454129Y-130974888D01*
X98607265Y-131086148D01*
X98607270Y-131086151D01*
X98780192Y-131163142D01*
X98780197Y-131163144D01*
X98965354Y-131202500D01*
X98965355Y-131202500D01*
X99154644Y-131202500D01*
X99154646Y-131202500D01*
X99339803Y-131163144D01*
X99512730Y-131086151D01*
X99665871Y-130974888D01*
X99792533Y-130834216D01*
X99887179Y-130670284D01*
X99945674Y-130490256D01*
X99965460Y-130302000D01*
X99945674Y-130113744D01*
X99887179Y-129933716D01*
X99792533Y-129769784D01*
X99665871Y-129629112D01*
X99633708Y-129605744D01*
X99512734Y-129517851D01*
X99512729Y-129517848D01*
X99339807Y-129440857D01*
X99339802Y-129440855D01*
X99194001Y-129409865D01*
X99154646Y-129401500D01*
X98965354Y-129401500D01*
X98932897Y-129408398D01*
X98780197Y-129440855D01*
X98780192Y-129440857D01*
X98607270Y-129517848D01*
X98607268Y-129517850D01*
X98572088Y-129543409D01*
X98506282Y-129566887D01*
X98438228Y-129551060D01*
X98389534Y-129500954D01*
X98381274Y-129481406D01*
X98363182Y-129425724D01*
X98363180Y-129425720D01*
X98363179Y-129425716D01*
X98268533Y-129261784D01*
X98141871Y-129121112D01*
X98109708Y-129097744D01*
X97988734Y-129009851D01*
X97988729Y-129009848D01*
X97815807Y-128932857D01*
X97815802Y-128932855D01*
X97670001Y-128901865D01*
X97630646Y-128893500D01*
X97441354Y-128893500D01*
X97408897Y-128900398D01*
X97256197Y-128932855D01*
X97256192Y-128932857D01*
X97083270Y-129009848D01*
X97083265Y-129009851D01*
X96930129Y-129121111D01*
X96803466Y-129261785D01*
X96708821Y-129425715D01*
X96708818Y-129425722D01*
X96655553Y-129589657D01*
X96650326Y-129605744D01*
X96630540Y-129794000D01*
X84566514Y-129794000D01*
X84647179Y-129654284D01*
X84705674Y-129474256D01*
X84725460Y-129286000D01*
X84705674Y-129097744D01*
X84647179Y-128917716D01*
X84552533Y-128753784D01*
X84425871Y-128613112D01*
X84425870Y-128613111D01*
X84303219Y-128524000D01*
X85708540Y-128524000D01*
X85728326Y-128712256D01*
X85728327Y-128712259D01*
X85786818Y-128892277D01*
X85786821Y-128892284D01*
X85881467Y-129056216D01*
X85939899Y-129121111D01*
X86008129Y-129196888D01*
X86161265Y-129308148D01*
X86161270Y-129308151D01*
X86334192Y-129385142D01*
X86334197Y-129385144D01*
X86519354Y-129424500D01*
X86519355Y-129424500D01*
X86708644Y-129424500D01*
X86708646Y-129424500D01*
X86893803Y-129385144D01*
X87066730Y-129308151D01*
X87219871Y-129196888D01*
X87283850Y-129125831D01*
X87343337Y-129089183D01*
X87413194Y-129090514D01*
X87468150Y-129125832D01*
X87532129Y-129196888D01*
X87685265Y-129308148D01*
X87685270Y-129308151D01*
X87858192Y-129385142D01*
X87858197Y-129385144D01*
X88043354Y-129424500D01*
X88043355Y-129424500D01*
X88232644Y-129424500D01*
X88232646Y-129424500D01*
X88417803Y-129385144D01*
X88590730Y-129308151D01*
X88743871Y-129196888D01*
X88870533Y-129056216D01*
X88965179Y-128892284D01*
X89023674Y-128712256D01*
X89043460Y-128524000D01*
X89023674Y-128335744D01*
X88965179Y-128155716D01*
X88870533Y-127991784D01*
X88743871Y-127851112D01*
X88743870Y-127851111D01*
X88590734Y-127739851D01*
X88590729Y-127739848D01*
X88417807Y-127662857D01*
X88417802Y-127662855D01*
X88272001Y-127631865D01*
X88232646Y-127623500D01*
X88043354Y-127623500D01*
X88010897Y-127630398D01*
X87858197Y-127662855D01*
X87858192Y-127662857D01*
X87685270Y-127739848D01*
X87685265Y-127739851D01*
X87532129Y-127851111D01*
X87532128Y-127851112D01*
X87468149Y-127922168D01*
X87408663Y-127958816D01*
X87338806Y-127957485D01*
X87283851Y-127922168D01*
X87219871Y-127851112D01*
X87219870Y-127851111D01*
X87066734Y-127739851D01*
X87066729Y-127739848D01*
X86893807Y-127662857D01*
X86893802Y-127662855D01*
X86748001Y-127631865D01*
X86708646Y-127623500D01*
X86519354Y-127623500D01*
X86486897Y-127630398D01*
X86334197Y-127662855D01*
X86334192Y-127662857D01*
X86161270Y-127739848D01*
X86161265Y-127739851D01*
X86008129Y-127851111D01*
X85881466Y-127991785D01*
X85786821Y-128155715D01*
X85786818Y-128155722D01*
X85728327Y-128335740D01*
X85728326Y-128335744D01*
X85708540Y-128524000D01*
X84303219Y-128524000D01*
X84272734Y-128501851D01*
X84272729Y-128501848D01*
X84099807Y-128424857D01*
X84099802Y-128424855D01*
X83954001Y-128393865D01*
X83914646Y-128385500D01*
X83725354Y-128385500D01*
X83692897Y-128392398D01*
X83540197Y-128424855D01*
X83540192Y-128424857D01*
X83367270Y-128501848D01*
X83367265Y-128501851D01*
X83214129Y-128613111D01*
X83087466Y-128753785D01*
X82992821Y-128917715D01*
X82992818Y-128917722D01*
X82936675Y-129090514D01*
X82934326Y-129097744D01*
X82914540Y-129286000D01*
X79858312Y-129286000D01*
X79879674Y-129220256D01*
X79899460Y-129032000D01*
X79879674Y-128843744D01*
X79821179Y-128663716D01*
X79726533Y-128499784D01*
X79599871Y-128359112D01*
X79588699Y-128350995D01*
X79446734Y-128247851D01*
X79446729Y-128247848D01*
X79273807Y-128170857D01*
X79273802Y-128170855D01*
X79117316Y-128137594D01*
X79088646Y-128131500D01*
X78899354Y-128131500D01*
X78876428Y-128136373D01*
X78714197Y-128170855D01*
X78714192Y-128170857D01*
X78541270Y-128247848D01*
X78541265Y-128247851D01*
X78388129Y-128359111D01*
X78261466Y-128499785D01*
X78166821Y-128663715D01*
X78166818Y-128663722D01*
X78114055Y-128826111D01*
X78108326Y-128843744D01*
X78088540Y-129032000D01*
X70104000Y-129032000D01*
X70104000Y-128350995D01*
X75263499Y-128350995D01*
X75290418Y-128486322D01*
X75290421Y-128486332D01*
X75343221Y-128613804D01*
X75343228Y-128613817D01*
X75419885Y-128728541D01*
X75419888Y-128728545D01*
X75517454Y-128826111D01*
X75517458Y-128826114D01*
X75632182Y-128902771D01*
X75632195Y-128902778D01*
X75757634Y-128954736D01*
X75759672Y-128955580D01*
X75759676Y-128955580D01*
X75759677Y-128955581D01*
X75895004Y-128982500D01*
X75895007Y-128982500D01*
X76032995Y-128982500D01*
X76124041Y-128964389D01*
X76168328Y-128955580D01*
X76266924Y-128914740D01*
X76295804Y-128902778D01*
X76295804Y-128902777D01*
X76295811Y-128902775D01*
X76410542Y-128826114D01*
X76508114Y-128728542D01*
X76584775Y-128613811D01*
X76637580Y-128486328D01*
X76646389Y-128442041D01*
X76664500Y-128350995D01*
X76664500Y-128213004D01*
X76637581Y-128077677D01*
X76637580Y-128077676D01*
X76637580Y-128077672D01*
X76637578Y-128077667D01*
X76584778Y-127950195D01*
X76584771Y-127950182D01*
X76508114Y-127835458D01*
X76508111Y-127835454D01*
X76410545Y-127737888D01*
X76410541Y-127737885D01*
X76295817Y-127661228D01*
X76295804Y-127661221D01*
X76168332Y-127608421D01*
X76168322Y-127608418D01*
X76032995Y-127581500D01*
X76032993Y-127581500D01*
X75895007Y-127581500D01*
X75895005Y-127581500D01*
X75759677Y-127608418D01*
X75759667Y-127608421D01*
X75632195Y-127661221D01*
X75632182Y-127661228D01*
X75517458Y-127737885D01*
X75517454Y-127737888D01*
X75419888Y-127835454D01*
X75419885Y-127835458D01*
X75343228Y-127950182D01*
X75343221Y-127950195D01*
X75290421Y-128077667D01*
X75290418Y-128077677D01*
X75263500Y-128213004D01*
X75263500Y-128213007D01*
X75263500Y-128350993D01*
X75263500Y-128350995D01*
X75263499Y-128350995D01*
X70104000Y-128350995D01*
X70104000Y-127254000D01*
X101710540Y-127254000D01*
X101730326Y-127442256D01*
X101730327Y-127442259D01*
X101788818Y-127622277D01*
X101788821Y-127622284D01*
X101883467Y-127786216D01*
X101994804Y-127909868D01*
X102010129Y-127926888D01*
X102163265Y-128038148D01*
X102163270Y-128038151D01*
X102336192Y-128115142D01*
X102336197Y-128115144D01*
X102521354Y-128154500D01*
X102521355Y-128154500D01*
X102710644Y-128154500D01*
X102710646Y-128154500D01*
X102895803Y-128115144D01*
X103068730Y-128038151D01*
X103068730Y-128038150D01*
X103073435Y-128036056D01*
X103142685Y-128026771D01*
X103205961Y-128056399D01*
X103243175Y-128115533D01*
X103247190Y-128136366D01*
X103254326Y-128204256D01*
X103254327Y-128204259D01*
X103312818Y-128384277D01*
X103312821Y-128384284D01*
X103407467Y-128548216D01*
X103534129Y-128688888D01*
X103687265Y-128800148D01*
X103687270Y-128800151D01*
X103860192Y-128877142D01*
X103860197Y-128877144D01*
X104045354Y-128916500D01*
X104045355Y-128916500D01*
X104126750Y-128916500D01*
X104193789Y-128936185D01*
X104239544Y-128988989D01*
X104250071Y-129027538D01*
X104250540Y-129032000D01*
X104270326Y-129220256D01*
X104270327Y-129220259D01*
X104328818Y-129400277D01*
X104328821Y-129400284D01*
X104423467Y-129564216D01*
X104481899Y-129629111D01*
X104550129Y-129704888D01*
X104703265Y-129816148D01*
X104703270Y-129816151D01*
X104876192Y-129893142D01*
X104876197Y-129893144D01*
X105061354Y-129932500D01*
X105061355Y-129932500D01*
X105250644Y-129932500D01*
X105250646Y-129932500D01*
X105435803Y-129893144D01*
X105608730Y-129816151D01*
X105761871Y-129704888D01*
X105888533Y-129564216D01*
X105983179Y-129400284D01*
X106041674Y-129220256D01*
X106061460Y-129032000D01*
X106041674Y-128843744D01*
X106032832Y-128816530D01*
X125429500Y-128816530D01*
X125429500Y-129023469D01*
X125469868Y-129226412D01*
X125469870Y-129226420D01*
X125549059Y-129417598D01*
X125591694Y-129481406D01*
X125664024Y-129589657D01*
X125810342Y-129735975D01*
X125810345Y-129735977D01*
X125982402Y-129850941D01*
X126173580Y-129930130D01*
X126376530Y-129970499D01*
X126376534Y-129970500D01*
X126376535Y-129970500D01*
X126983466Y-129970500D01*
X126983467Y-129970499D01*
X127186420Y-129930130D01*
X127377598Y-129850941D01*
X127549655Y-129735977D01*
X127695977Y-129589655D01*
X127810941Y-129417598D01*
X127890130Y-129226420D01*
X127907820Y-129137486D01*
X128329500Y-129137486D01*
X128329500Y-129322513D01*
X128358445Y-129505265D01*
X128415619Y-129681232D01*
X128415620Y-129681235D01*
X128484363Y-129816148D01*
X128499622Y-129846096D01*
X128608379Y-129995787D01*
X128739213Y-130126621D01*
X128888904Y-130235378D01*
X128969763Y-130276577D01*
X129053764Y-130319379D01*
X129053767Y-130319380D01*
X129141750Y-130347967D01*
X129229736Y-130376555D01*
X129412486Y-130405500D01*
X129412487Y-130405500D01*
X129947513Y-130405500D01*
X129947514Y-130405500D01*
X130130264Y-130376555D01*
X130306235Y-130319379D01*
X130471096Y-130235378D01*
X130620787Y-130126621D01*
X130751621Y-129995787D01*
X130860378Y-129846096D01*
X130944379Y-129681235D01*
X131001555Y-129505264D01*
X131030500Y-129322514D01*
X131030500Y-129137486D01*
X131001555Y-128954736D01*
X130965492Y-128843744D01*
X130944380Y-128778767D01*
X130944379Y-128778764D01*
X130898584Y-128688888D01*
X130860378Y-128613904D01*
X130751621Y-128464213D01*
X130620787Y-128333379D01*
X130471096Y-128224622D01*
X130306235Y-128140620D01*
X130306232Y-128140619D01*
X130130265Y-128083445D01*
X130038889Y-128068972D01*
X129947514Y-128054500D01*
X129412486Y-128054500D01*
X129384005Y-128059011D01*
X129229734Y-128083445D01*
X129053767Y-128140619D01*
X129053764Y-128140620D01*
X128888903Y-128224622D01*
X128853503Y-128250342D01*
X128739213Y-128333379D01*
X128739211Y-128333381D01*
X128739210Y-128333381D01*
X128608381Y-128464210D01*
X128608381Y-128464211D01*
X128608379Y-128464213D01*
X128564941Y-128524000D01*
X128499622Y-128613903D01*
X128415620Y-128778764D01*
X128415619Y-128778767D01*
X128358445Y-128954734D01*
X128329500Y-129137486D01*
X127907820Y-129137486D01*
X127930500Y-129023465D01*
X127930500Y-128816535D01*
X127890130Y-128613580D01*
X127810941Y-128422402D01*
X127695977Y-128250345D01*
X127695975Y-128250342D01*
X127549657Y-128104024D01*
X127417918Y-128016000D01*
X127377598Y-127989059D01*
X127304585Y-127958816D01*
X127186420Y-127909870D01*
X127186412Y-127909868D01*
X126983469Y-127869500D01*
X126983465Y-127869500D01*
X126376535Y-127869500D01*
X126376530Y-127869500D01*
X126173587Y-127909868D01*
X126173579Y-127909870D01*
X125982403Y-127989058D01*
X125810342Y-128104024D01*
X125664024Y-128250342D01*
X125549058Y-128422403D01*
X125469870Y-128613579D01*
X125469868Y-128613587D01*
X125429500Y-128816530D01*
X106032832Y-128816530D01*
X105983179Y-128663716D01*
X105888533Y-128499784D01*
X105761871Y-128359112D01*
X105750699Y-128350995D01*
X105608734Y-128247851D01*
X105608729Y-128247848D01*
X105435807Y-128170857D01*
X105435802Y-128170855D01*
X105279316Y-128137594D01*
X105250646Y-128131500D01*
X105169250Y-128131500D01*
X105102211Y-128111815D01*
X105056456Y-128059011D01*
X105045930Y-128020466D01*
X105044190Y-128003917D01*
X105056756Y-127935187D01*
X105104486Y-127884161D01*
X105141724Y-127869662D01*
X105181803Y-127861144D01*
X105181807Y-127861142D01*
X105181808Y-127861142D01*
X105240058Y-127835206D01*
X105354730Y-127784151D01*
X105507871Y-127672888D01*
X105634533Y-127532216D01*
X105729179Y-127368284D01*
X105787674Y-127188256D01*
X105807460Y-127000000D01*
X105787674Y-126811744D01*
X105729179Y-126631716D01*
X105634533Y-126467784D01*
X105507871Y-126327112D01*
X105507870Y-126327111D01*
X105354734Y-126215851D01*
X105354729Y-126215848D01*
X105181807Y-126138857D01*
X105181802Y-126138855D01*
X105036001Y-126107865D01*
X104996646Y-126099500D01*
X104807354Y-126099500D01*
X104774897Y-126106398D01*
X104622197Y-126138855D01*
X104622192Y-126138857D01*
X104449270Y-126215848D01*
X104449265Y-126215851D01*
X104296129Y-126327111D01*
X104169466Y-126467785D01*
X104074821Y-126631715D01*
X104074818Y-126631722D01*
X104016327Y-126811740D01*
X104016326Y-126811744D01*
X104008551Y-126885722D01*
X103996540Y-127000002D01*
X103997810Y-127012089D01*
X103985239Y-127080819D01*
X103937505Y-127131841D01*
X103900273Y-127146337D01*
X103860197Y-127154856D01*
X103682564Y-127233944D01*
X103613314Y-127243228D01*
X103550037Y-127213600D01*
X103512824Y-127154465D01*
X103508809Y-127133638D01*
X103501674Y-127065744D01*
X103443179Y-126885716D01*
X103348533Y-126721784D01*
X103221871Y-126581112D01*
X103221870Y-126581111D01*
X103068734Y-126469851D01*
X103068729Y-126469848D01*
X102895807Y-126392857D01*
X102895802Y-126392855D01*
X102750001Y-126361865D01*
X102710646Y-126353500D01*
X102521354Y-126353500D01*
X102488897Y-126360398D01*
X102336197Y-126392855D01*
X102336192Y-126392857D01*
X102163270Y-126469848D01*
X102163265Y-126469851D01*
X102010129Y-126581111D01*
X101883466Y-126721785D01*
X101788821Y-126885715D01*
X101788818Y-126885722D01*
X101730327Y-127065740D01*
X101730326Y-127065744D01*
X101710540Y-127254000D01*
X70104000Y-127254000D01*
X70104000Y-125350995D01*
X75263499Y-125350995D01*
X75290418Y-125486322D01*
X75290421Y-125486332D01*
X75343221Y-125613804D01*
X75343228Y-125613817D01*
X75419885Y-125728541D01*
X75419888Y-125728545D01*
X75517454Y-125826111D01*
X75517458Y-125826114D01*
X75632182Y-125902771D01*
X75632195Y-125902778D01*
X75759667Y-125955578D01*
X75759672Y-125955580D01*
X75759676Y-125955580D01*
X75759677Y-125955581D01*
X75895004Y-125982500D01*
X75895007Y-125982500D01*
X76032995Y-125982500D01*
X76124041Y-125964389D01*
X76168328Y-125955580D01*
X76295811Y-125902775D01*
X76410542Y-125826114D01*
X76508114Y-125728542D01*
X76584775Y-125613811D01*
X76637580Y-125486328D01*
X76664500Y-125350993D01*
X76664500Y-125213007D01*
X76664500Y-125213004D01*
X76637581Y-125077677D01*
X76637580Y-125077676D01*
X76637580Y-125077672D01*
X76633218Y-125067142D01*
X76592153Y-124968000D01*
X85454540Y-124968000D01*
X85474326Y-125156256D01*
X85474327Y-125156259D01*
X85532818Y-125336277D01*
X85532821Y-125336284D01*
X85627467Y-125500216D01*
X85729749Y-125613811D01*
X85754129Y-125640888D01*
X85907265Y-125752148D01*
X85907270Y-125752151D01*
X86080192Y-125829142D01*
X86080197Y-125829144D01*
X86265354Y-125868500D01*
X86265355Y-125868500D01*
X86454644Y-125868500D01*
X86454646Y-125868500D01*
X86639803Y-125829144D01*
X86812730Y-125752151D01*
X86965871Y-125640888D01*
X87092533Y-125500216D01*
X87187179Y-125336284D01*
X87224312Y-125222000D01*
X112632540Y-125222000D01*
X112652326Y-125410256D01*
X112652327Y-125410259D01*
X112710818Y-125590277D01*
X112710821Y-125590284D01*
X112805467Y-125754216D01*
X112872931Y-125829142D01*
X112932129Y-125894888D01*
X113085265Y-126006148D01*
X113085270Y-126006151D01*
X113258192Y-126083142D01*
X113258197Y-126083144D01*
X113443354Y-126122500D01*
X113443355Y-126122500D01*
X113632644Y-126122500D01*
X113632646Y-126122500D01*
X113817803Y-126083144D01*
X113990730Y-126006151D01*
X114143871Y-125894888D01*
X114270533Y-125754216D01*
X114365179Y-125590284D01*
X114423674Y-125410256D01*
X114443460Y-125222000D01*
X114423674Y-125033744D01*
X114365179Y-124853716D01*
X114270533Y-124689784D01*
X114143871Y-124549112D01*
X114143870Y-124549111D01*
X113990734Y-124437851D01*
X113990729Y-124437848D01*
X113817807Y-124360857D01*
X113817802Y-124360855D01*
X113672001Y-124329865D01*
X113632646Y-124321500D01*
X113443354Y-124321500D01*
X113410897Y-124328398D01*
X113258197Y-124360855D01*
X113258192Y-124360857D01*
X113085270Y-124437848D01*
X113085265Y-124437851D01*
X112932129Y-124549111D01*
X112805466Y-124689785D01*
X112710821Y-124853715D01*
X112710818Y-124853722D01*
X112666491Y-124990148D01*
X112652326Y-125033744D01*
X112632540Y-125222000D01*
X87224312Y-125222000D01*
X87245674Y-125156256D01*
X87265460Y-124968000D01*
X87245674Y-124779744D01*
X87187179Y-124599716D01*
X87092533Y-124435784D01*
X86965871Y-124295112D01*
X86965870Y-124295111D01*
X86843219Y-124206000D01*
X92058540Y-124206000D01*
X92078326Y-124394256D01*
X92078327Y-124394259D01*
X92136818Y-124574277D01*
X92136821Y-124574284D01*
X92231467Y-124738216D01*
X92337774Y-124856281D01*
X92358129Y-124878888D01*
X92511265Y-124990148D01*
X92511270Y-124990151D01*
X92684192Y-125067142D01*
X92684197Y-125067144D01*
X92869354Y-125106500D01*
X92869355Y-125106500D01*
X93058644Y-125106500D01*
X93058646Y-125106500D01*
X93243803Y-125067144D01*
X93416730Y-124990151D01*
X93569871Y-124878888D01*
X93696533Y-124738216D01*
X93791179Y-124574284D01*
X93849674Y-124394256D01*
X93869460Y-124206000D01*
X93849674Y-124017744D01*
X93828312Y-123952000D01*
X96630540Y-123952000D01*
X96650326Y-124140256D01*
X96650327Y-124140259D01*
X96708818Y-124320277D01*
X96708821Y-124320284D01*
X96803467Y-124484216D01*
X96915299Y-124608418D01*
X96930129Y-124624888D01*
X97083265Y-124736148D01*
X97083270Y-124736151D01*
X97256192Y-124813142D01*
X97256197Y-124813144D01*
X97441354Y-124852500D01*
X97441355Y-124852500D01*
X97630644Y-124852500D01*
X97630646Y-124852500D01*
X97815803Y-124813144D01*
X97988730Y-124736151D01*
X98141871Y-124624888D01*
X98268533Y-124484216D01*
X98363179Y-124320284D01*
X98421674Y-124140256D01*
X98441460Y-123952000D01*
X119744540Y-123952000D01*
X119764326Y-124140256D01*
X119764327Y-124140259D01*
X119822818Y-124320277D01*
X119822821Y-124320284D01*
X119917467Y-124484216D01*
X120029299Y-124608418D01*
X120044129Y-124624888D01*
X120197265Y-124736148D01*
X120197270Y-124736151D01*
X120370192Y-124813142D01*
X120370197Y-124813144D01*
X120555354Y-124852500D01*
X120555355Y-124852500D01*
X120744644Y-124852500D01*
X120744646Y-124852500D01*
X120929803Y-124813144D01*
X121102730Y-124736151D01*
X121255871Y-124624888D01*
X121382533Y-124484216D01*
X121477179Y-124320284D01*
X121514312Y-124206000D01*
X122538540Y-124206000D01*
X122558326Y-124394256D01*
X122558327Y-124394259D01*
X122616818Y-124574277D01*
X122616821Y-124574284D01*
X122711467Y-124738216D01*
X122748859Y-124779744D01*
X122808237Y-124845690D01*
X122838467Y-124908681D01*
X122834019Y-124966978D01*
X122812326Y-125033743D01*
X122806400Y-125090129D01*
X122792540Y-125222000D01*
X122812326Y-125410256D01*
X122812327Y-125410259D01*
X122870818Y-125590277D01*
X122870821Y-125590284D01*
X122965467Y-125754216D01*
X123032931Y-125829142D01*
X123092129Y-125894888D01*
X123245265Y-126006148D01*
X123245270Y-126006151D01*
X123418192Y-126083142D01*
X123418197Y-126083144D01*
X123603354Y-126122500D01*
X123603355Y-126122500D01*
X123792644Y-126122500D01*
X123792646Y-126122500D01*
X123977803Y-126083144D01*
X124150730Y-126006151D01*
X124150734Y-126006148D01*
X124155563Y-126003998D01*
X124224813Y-125994712D01*
X124256437Y-126003998D01*
X124261265Y-126006148D01*
X124261270Y-126006151D01*
X124434197Y-126083144D01*
X124619354Y-126122500D01*
X124619355Y-126122500D01*
X124808644Y-126122500D01*
X124808646Y-126122500D01*
X124993803Y-126083144D01*
X125166730Y-126006151D01*
X125319871Y-125894888D01*
X125446533Y-125754216D01*
X125541179Y-125590284D01*
X125599674Y-125410256D01*
X125619460Y-125222000D01*
X125599674Y-125033744D01*
X125591574Y-125008817D01*
X125589579Y-124938979D01*
X125625659Y-124879146D01*
X125688360Y-124848317D01*
X125757774Y-124856281D01*
X125797187Y-124882820D01*
X125810342Y-124895975D01*
X125810345Y-124895977D01*
X125982402Y-125010941D01*
X126173580Y-125090130D01*
X126376530Y-125130499D01*
X126376534Y-125130500D01*
X126376535Y-125130500D01*
X126983466Y-125130500D01*
X126983467Y-125130499D01*
X127186420Y-125090130D01*
X127377598Y-125010941D01*
X127549655Y-124895977D01*
X127695977Y-124749655D01*
X127810941Y-124577598D01*
X127890130Y-124386420D01*
X127930500Y-124183465D01*
X127930500Y-123976535D01*
X127890130Y-123773580D01*
X127850326Y-123677486D01*
X128329500Y-123677486D01*
X128329500Y-123862513D01*
X128358445Y-124045265D01*
X128415619Y-124221232D01*
X128415620Y-124221235D01*
X128486762Y-124360857D01*
X128499622Y-124386096D01*
X128608379Y-124535787D01*
X128739213Y-124666621D01*
X128888904Y-124775378D01*
X128963020Y-124813142D01*
X129053764Y-124859379D01*
X129053767Y-124859380D01*
X129141750Y-124887967D01*
X129229736Y-124916555D01*
X129412486Y-124945500D01*
X129412487Y-124945500D01*
X129947513Y-124945500D01*
X129947514Y-124945500D01*
X130130264Y-124916555D01*
X130306235Y-124859379D01*
X130471096Y-124775378D01*
X130620787Y-124666621D01*
X130751621Y-124535787D01*
X130860378Y-124386096D01*
X130944379Y-124221235D01*
X131001555Y-124045264D01*
X131030500Y-123862514D01*
X131030500Y-123677486D01*
X131001555Y-123494736D01*
X130952857Y-123344857D01*
X130944380Y-123318767D01*
X130944379Y-123318764D01*
X130867483Y-123167849D01*
X130860378Y-123153904D01*
X130751621Y-123004213D01*
X130620787Y-122873379D01*
X130471096Y-122764622D01*
X130306235Y-122680620D01*
X130306232Y-122680619D01*
X130130265Y-122623445D01*
X130038889Y-122608972D01*
X129947514Y-122594500D01*
X129412486Y-122594500D01*
X129351569Y-122604148D01*
X129229734Y-122623445D01*
X129053767Y-122680619D01*
X129053764Y-122680620D01*
X128888903Y-122764622D01*
X128803499Y-122826672D01*
X128739213Y-122873379D01*
X128739211Y-122873381D01*
X128739210Y-122873381D01*
X128608381Y-123004210D01*
X128608381Y-123004211D01*
X128608379Y-123004213D01*
X128590007Y-123029500D01*
X128499622Y-123153903D01*
X128415620Y-123318764D01*
X128415619Y-123318767D01*
X128358445Y-123494734D01*
X128329500Y-123677486D01*
X127850326Y-123677486D01*
X127810941Y-123582402D01*
X127695977Y-123410345D01*
X127695975Y-123410342D01*
X127549657Y-123264024D01*
X127384849Y-123153904D01*
X127377598Y-123149059D01*
X127186420Y-123069870D01*
X127186412Y-123069868D01*
X126983469Y-123029500D01*
X126983465Y-123029500D01*
X126376535Y-123029500D01*
X126376530Y-123029500D01*
X126173587Y-123069868D01*
X126173579Y-123069870D01*
X125982403Y-123149058D01*
X125810342Y-123264024D01*
X125664024Y-123410342D01*
X125549057Y-123582403D01*
X125474309Y-123762863D01*
X125430468Y-123817266D01*
X125364174Y-123839331D01*
X125296474Y-123822052D01*
X125252361Y-123777410D01*
X125192533Y-123673784D01*
X125065871Y-123533112D01*
X125013051Y-123494736D01*
X124912734Y-123421851D01*
X124912729Y-123421848D01*
X124739807Y-123344857D01*
X124739802Y-123344855D01*
X124594001Y-123313865D01*
X124554646Y-123305500D01*
X124365354Y-123305500D01*
X124332897Y-123312398D01*
X124180197Y-123344855D01*
X124180192Y-123344857D01*
X124002436Y-123424001D01*
X123933186Y-123433286D01*
X123901564Y-123424001D01*
X123723807Y-123344857D01*
X123723802Y-123344855D01*
X123578001Y-123313865D01*
X123538646Y-123305500D01*
X123349354Y-123305500D01*
X123316897Y-123312398D01*
X123164197Y-123344855D01*
X123164192Y-123344857D01*
X122991270Y-123421848D01*
X122991265Y-123421851D01*
X122838129Y-123533111D01*
X122711466Y-123673785D01*
X122616821Y-123837715D01*
X122616818Y-123837722D01*
X122558327Y-124017740D01*
X122558326Y-124017744D01*
X122538540Y-124206000D01*
X121514312Y-124206000D01*
X121535674Y-124140256D01*
X121555460Y-123952000D01*
X121535674Y-123763744D01*
X121477179Y-123583716D01*
X121382533Y-123419784D01*
X121255871Y-123279112D01*
X121255870Y-123279111D01*
X121102734Y-123167851D01*
X121102729Y-123167848D01*
X120929807Y-123090857D01*
X120929802Y-123090855D01*
X120784001Y-123059865D01*
X120744646Y-123051500D01*
X120555354Y-123051500D01*
X120522897Y-123058398D01*
X120370197Y-123090855D01*
X120370192Y-123090857D01*
X120197270Y-123167848D01*
X120197265Y-123167851D01*
X120044129Y-123279111D01*
X119917466Y-123419785D01*
X119822821Y-123583715D01*
X119822818Y-123583722D01*
X119764612Y-123762863D01*
X119764326Y-123763744D01*
X119744540Y-123952000D01*
X98441460Y-123952000D01*
X98421674Y-123763744D01*
X98363179Y-123583716D01*
X98268533Y-123419784D01*
X98141871Y-123279112D01*
X98141870Y-123279111D01*
X97988734Y-123167851D01*
X97988729Y-123167848D01*
X97815807Y-123090857D01*
X97815802Y-123090855D01*
X97670001Y-123059865D01*
X97630646Y-123051500D01*
X97441354Y-123051500D01*
X97408897Y-123058398D01*
X97256197Y-123090855D01*
X97256192Y-123090857D01*
X97083270Y-123167848D01*
X97083265Y-123167851D01*
X96930129Y-123279111D01*
X96803466Y-123419785D01*
X96708821Y-123583715D01*
X96708818Y-123583722D01*
X96650612Y-123762863D01*
X96650326Y-123763744D01*
X96630540Y-123952000D01*
X93828312Y-123952000D01*
X93791179Y-123837716D01*
X93696533Y-123673784D01*
X93569871Y-123533112D01*
X93517051Y-123494736D01*
X93416734Y-123421851D01*
X93416729Y-123421848D01*
X93243807Y-123344857D01*
X93243802Y-123344855D01*
X93098001Y-123313865D01*
X93058646Y-123305500D01*
X92869354Y-123305500D01*
X92836897Y-123312398D01*
X92684197Y-123344855D01*
X92684192Y-123344857D01*
X92511270Y-123421848D01*
X92511265Y-123421851D01*
X92358129Y-123533111D01*
X92231466Y-123673785D01*
X92136821Y-123837715D01*
X92136818Y-123837722D01*
X92078327Y-124017740D01*
X92078326Y-124017744D01*
X92058540Y-124206000D01*
X86843219Y-124206000D01*
X86812734Y-124183851D01*
X86812729Y-124183848D01*
X86639807Y-124106857D01*
X86639802Y-124106855D01*
X86494001Y-124075865D01*
X86454646Y-124067500D01*
X86265354Y-124067500D01*
X86232897Y-124074398D01*
X86080197Y-124106855D01*
X86080192Y-124106857D01*
X85907270Y-124183848D01*
X85907265Y-124183851D01*
X85754129Y-124295111D01*
X85627466Y-124435785D01*
X85532821Y-124599715D01*
X85532818Y-124599722D01*
X85474327Y-124779740D01*
X85474326Y-124779744D01*
X85454540Y-124968000D01*
X76592153Y-124968000D01*
X76584778Y-124950195D01*
X76584771Y-124950182D01*
X76508114Y-124835458D01*
X76508111Y-124835454D01*
X76410545Y-124737888D01*
X76410541Y-124737885D01*
X76295817Y-124661228D01*
X76295804Y-124661221D01*
X76168332Y-124608421D01*
X76168322Y-124608418D01*
X76032995Y-124581500D01*
X76032993Y-124581500D01*
X75895007Y-124581500D01*
X75895005Y-124581500D01*
X75759677Y-124608418D01*
X75759667Y-124608421D01*
X75632195Y-124661221D01*
X75632182Y-124661228D01*
X75517458Y-124737885D01*
X75517454Y-124737888D01*
X75419888Y-124835454D01*
X75419885Y-124835458D01*
X75343228Y-124950182D01*
X75343221Y-124950195D01*
X75290421Y-125077667D01*
X75290418Y-125077677D01*
X75263500Y-125213004D01*
X75263500Y-125213007D01*
X75263500Y-125350993D01*
X75263500Y-125350995D01*
X75263499Y-125350995D01*
X70104000Y-125350995D01*
X70104000Y-115829577D01*
X71908242Y-115829577D01*
X71908242Y-115829584D01*
X71927586Y-116260318D01*
X71927587Y-116260327D01*
X71985466Y-116687608D01*
X72081411Y-117107972D01*
X72214654Y-117518053D01*
X72214657Y-117518061D01*
X72384114Y-117914528D01*
X72384118Y-117914536D01*
X72424726Y-117989998D01*
X72588444Y-118294236D01*
X72588448Y-118294242D01*
X72588448Y-118294243D01*
X72825975Y-118654082D01*
X72825985Y-118654095D01*
X73094806Y-118991188D01*
X73094816Y-118991199D01*
X73094817Y-118991200D01*
X73392791Y-119302855D01*
X73717501Y-119586546D01*
X73717511Y-119586553D01*
X73717512Y-119586554D01*
X74058642Y-119834400D01*
X74066334Y-119839988D01*
X74436481Y-120061141D01*
X74436484Y-120061142D01*
X74436485Y-120061143D01*
X74436487Y-120061144D01*
X74824953Y-120248220D01*
X74824967Y-120248226D01*
X75228636Y-120399725D01*
X75228640Y-120399726D01*
X75228650Y-120399730D01*
X75644292Y-120514440D01*
X76068545Y-120591431D01*
X76497990Y-120630081D01*
X76497997Y-120630081D01*
X76929165Y-120630081D01*
X76929172Y-120630081D01*
X77358617Y-120591431D01*
X77782870Y-120514440D01*
X78198512Y-120399730D01*
X78602200Y-120248224D01*
X78990681Y-120061141D01*
X79360828Y-119839988D01*
X79709661Y-119586546D01*
X80034371Y-119302855D01*
X80332345Y-118991200D01*
X80336806Y-118985607D01*
X80601176Y-118654095D01*
X80601182Y-118654088D01*
X80838718Y-118294236D01*
X81043042Y-117914539D01*
X81045428Y-117908958D01*
X81150111Y-117664038D01*
X81212507Y-117518056D01*
X81345749Y-117107978D01*
X81441696Y-116687607D01*
X81466933Y-116501304D01*
X91869500Y-116501304D01*
X91869500Y-117178695D01*
X91904103Y-117352658D01*
X91904106Y-117352667D01*
X91971983Y-117516540D01*
X91971990Y-117516553D01*
X92070535Y-117664034D01*
X92070538Y-117664038D01*
X92195961Y-117789461D01*
X92195965Y-117789464D01*
X92343446Y-117888009D01*
X92343459Y-117888016D01*
X92407493Y-117914539D01*
X92507334Y-117955894D01*
X92507336Y-117955894D01*
X92507341Y-117955896D01*
X92681304Y-117990499D01*
X92681307Y-117990500D01*
X92681309Y-117990500D01*
X92858693Y-117990500D01*
X92858694Y-117990499D01*
X92916682Y-117978964D01*
X93032658Y-117955896D01*
X93032661Y-117955894D01*
X93032666Y-117955894D01*
X93196547Y-117888013D01*
X93326109Y-117801442D01*
X93392786Y-117780564D01*
X93460166Y-117799048D01*
X93463891Y-117801442D01*
X93593453Y-117888013D01*
X93593455Y-117888014D01*
X93593459Y-117888016D01*
X93657493Y-117914539D01*
X93757334Y-117955894D01*
X93757336Y-117955894D01*
X93757341Y-117955896D01*
X93931304Y-117990499D01*
X93931307Y-117990500D01*
X93931309Y-117990500D01*
X94108693Y-117990500D01*
X94108694Y-117990499D01*
X94166682Y-117978964D01*
X94282658Y-117955896D01*
X94282661Y-117955894D01*
X94282666Y-117955894D01*
X94446547Y-117888013D01*
X94576109Y-117801442D01*
X94642786Y-117780564D01*
X94710166Y-117799048D01*
X94713891Y-117801442D01*
X94843453Y-117888013D01*
X94843455Y-117888014D01*
X94843459Y-117888016D01*
X94907493Y-117914539D01*
X95007334Y-117955894D01*
X95007336Y-117955894D01*
X95007341Y-117955896D01*
X95181304Y-117990499D01*
X95181307Y-117990500D01*
X95181309Y-117990500D01*
X95358693Y-117990500D01*
X95358694Y-117990499D01*
X95416682Y-117978964D01*
X95532658Y-117955896D01*
X95532661Y-117955894D01*
X95532666Y-117955894D01*
X95696547Y-117888013D01*
X95754298Y-117849424D01*
X95820970Y-117828547D01*
X95887336Y-117846410D01*
X96030604Y-117933019D01*
X96030603Y-117933019D01*
X96192894Y-117983590D01*
X96192893Y-117983590D01*
X96263408Y-117989998D01*
X96263426Y-117989999D01*
X96770000Y-117989999D01*
X96776581Y-117989999D01*
X96847102Y-117983591D01*
X96847107Y-117983590D01*
X97009396Y-117933018D01*
X97154877Y-117845072D01*
X97275072Y-117724877D01*
X97363019Y-117579395D01*
X97413590Y-117417106D01*
X97420000Y-117346572D01*
X97420000Y-117090000D01*
X96770000Y-117090000D01*
X96770000Y-117989999D01*
X96263426Y-117989999D01*
X96269999Y-117989998D01*
X96270000Y-117989998D01*
X96270000Y-116889728D01*
X96308060Y-116981614D01*
X96378386Y-117051940D01*
X96470272Y-117090000D01*
X96569728Y-117090000D01*
X96661614Y-117051940D01*
X96731940Y-116981614D01*
X96770000Y-116889728D01*
X96770000Y-116790272D01*
X96731940Y-116698386D01*
X96661614Y-116628060D01*
X96569728Y-116590000D01*
X96770000Y-116590000D01*
X97419999Y-116590000D01*
X97419999Y-116333417D01*
X97413591Y-116262897D01*
X97413590Y-116262892D01*
X97363018Y-116100603D01*
X97275072Y-115955122D01*
X97154877Y-115834927D01*
X97136795Y-115823996D01*
X120194661Y-115823996D01*
X120194661Y-115824003D01*
X120214005Y-116254737D01*
X120214006Y-116254746D01*
X120271885Y-116682027D01*
X120367830Y-117102391D01*
X120501073Y-117512472D01*
X120501076Y-117512480D01*
X120670533Y-117908947D01*
X120670537Y-117908955D01*
X120714149Y-117989999D01*
X120874863Y-118288655D01*
X120874867Y-118288661D01*
X120874867Y-118288662D01*
X121112394Y-118648501D01*
X121112404Y-118648514D01*
X121381225Y-118985607D01*
X121381235Y-118985618D01*
X121381236Y-118985619D01*
X121679210Y-119297274D01*
X122003920Y-119580965D01*
X122352753Y-119834407D01*
X122722900Y-120055560D01*
X122722903Y-120055561D01*
X122722904Y-120055562D01*
X122722906Y-120055563D01*
X123111372Y-120242639D01*
X123111386Y-120242645D01*
X123515055Y-120394144D01*
X123515059Y-120394145D01*
X123515069Y-120394149D01*
X123930711Y-120508859D01*
X124354964Y-120585850D01*
X124784409Y-120624500D01*
X124784416Y-120624500D01*
X125215584Y-120624500D01*
X125215591Y-120624500D01*
X125645036Y-120585850D01*
X126069289Y-120508859D01*
X126484931Y-120394149D01*
X126888619Y-120242643D01*
X127277100Y-120055560D01*
X127647247Y-119834407D01*
X127996080Y-119580965D01*
X128320790Y-119297274D01*
X128618764Y-118985619D01*
X128887601Y-118648507D01*
X129125137Y-118288655D01*
X129329461Y-117908958D01*
X129338413Y-117888015D01*
X129384339Y-117780564D01*
X129498926Y-117512475D01*
X129632168Y-117102397D01*
X129728115Y-116682026D01*
X129785994Y-116254747D01*
X129804848Y-115834927D01*
X129805339Y-115824003D01*
X129805339Y-115823996D01*
X129786245Y-115398843D01*
X129785994Y-115393253D01*
X129728115Y-114965974D01*
X129632168Y-114545603D01*
X129498926Y-114135525D01*
X129331851Y-113744633D01*
X129329466Y-113739052D01*
X129329462Y-113739044D01*
X129240398Y-113573536D01*
X129125137Y-113359345D01*
X129094745Y-113313303D01*
X128887605Y-112999498D01*
X128887595Y-112999485D01*
X128618774Y-112662392D01*
X128618762Y-112662379D01*
X128320794Y-112350730D01*
X128320793Y-112350729D01*
X128320790Y-112350726D01*
X127996080Y-112067035D01*
X127996068Y-112067026D01*
X127647256Y-111813599D01*
X127647251Y-111813596D01*
X127647247Y-111813593D01*
X127277100Y-111592440D01*
X127277095Y-111592437D01*
X127277093Y-111592436D01*
X126888627Y-111405360D01*
X126888613Y-111405354D01*
X126484944Y-111253855D01*
X126484919Y-111253847D01*
X126069295Y-111139142D01*
X125645043Y-111062151D01*
X125645040Y-111062150D01*
X125645036Y-111062150D01*
X125215591Y-111023500D01*
X124784409Y-111023500D01*
X124354964Y-111062150D01*
X124354960Y-111062150D01*
X124354956Y-111062151D01*
X123930704Y-111139142D01*
X123515080Y-111253847D01*
X123515055Y-111253855D01*
X123111386Y-111405354D01*
X123111372Y-111405360D01*
X122722906Y-111592436D01*
X122722904Y-111592437D01*
X122352743Y-111813599D01*
X122003931Y-112067026D01*
X122003914Y-112067039D01*
X121679210Y-112350726D01*
X121679205Y-112350730D01*
X121381237Y-112662379D01*
X121381225Y-112662392D01*
X121112404Y-112999485D01*
X121112394Y-112999498D01*
X120874867Y-113359337D01*
X120874867Y-113359338D01*
X120874864Y-113359343D01*
X120874863Y-113359345D01*
X120871860Y-113364926D01*
X120670537Y-113739044D01*
X120670533Y-113739052D01*
X120501076Y-114135519D01*
X120501073Y-114135527D01*
X120367830Y-114545608D01*
X120271885Y-114965972D01*
X120214006Y-115393253D01*
X120214005Y-115393262D01*
X120194661Y-115823996D01*
X97136795Y-115823996D01*
X97009395Y-115746980D01*
X97009396Y-115746980D01*
X96847105Y-115696409D01*
X96847106Y-115696409D01*
X96776572Y-115690000D01*
X96770000Y-115690000D01*
X96770000Y-116590000D01*
X96569728Y-116590000D01*
X96470272Y-116590000D01*
X96378386Y-116628060D01*
X96308060Y-116698386D01*
X96270000Y-116790272D01*
X96270000Y-115690000D01*
X96269999Y-115689999D01*
X96263436Y-115690000D01*
X96263417Y-115690001D01*
X96192897Y-115696408D01*
X96192892Y-115696409D01*
X96030601Y-115746981D01*
X96030599Y-115746982D01*
X95887334Y-115833588D01*
X95819779Y-115851424D01*
X95754295Y-115830573D01*
X95696547Y-115791987D01*
X95696544Y-115791985D01*
X95696543Y-115791985D01*
X95696542Y-115791984D01*
X95532667Y-115724106D01*
X95532658Y-115724103D01*
X95358694Y-115689500D01*
X95358691Y-115689500D01*
X95181309Y-115689500D01*
X95181306Y-115689500D01*
X95007341Y-115724103D01*
X95007332Y-115724106D01*
X94843459Y-115791983D01*
X94843446Y-115791990D01*
X94713891Y-115878557D01*
X94647213Y-115899435D01*
X94579833Y-115880950D01*
X94576109Y-115878557D01*
X94446553Y-115791990D01*
X94446540Y-115791983D01*
X94282667Y-115724106D01*
X94282658Y-115724103D01*
X94108694Y-115689500D01*
X94108691Y-115689500D01*
X93931309Y-115689500D01*
X93931306Y-115689500D01*
X93757341Y-115724103D01*
X93757332Y-115724106D01*
X93593459Y-115791983D01*
X93593446Y-115791990D01*
X93463891Y-115878557D01*
X93397213Y-115899435D01*
X93329833Y-115880950D01*
X93326109Y-115878557D01*
X93196553Y-115791990D01*
X93196540Y-115791983D01*
X93032667Y-115724106D01*
X93032658Y-115724103D01*
X92858694Y-115689500D01*
X92858691Y-115689500D01*
X92681309Y-115689500D01*
X92681306Y-115689500D01*
X92507341Y-115724103D01*
X92507332Y-115724106D01*
X92343459Y-115791983D01*
X92343446Y-115791990D01*
X92195965Y-115890535D01*
X92195961Y-115890538D01*
X92070538Y-116015961D01*
X92070535Y-116015965D01*
X91971990Y-116163446D01*
X91971983Y-116163459D01*
X91904106Y-116327332D01*
X91904103Y-116327341D01*
X91869500Y-116501304D01*
X81466933Y-116501304D01*
X81499575Y-116260328D01*
X81516182Y-115890538D01*
X81518920Y-115829584D01*
X81518920Y-115829577D01*
X81499575Y-115398843D01*
X81499575Y-115398834D01*
X81441696Y-114971555D01*
X81345749Y-114551184D01*
X81212507Y-114141106D01*
X81148957Y-113992424D01*
X81043047Y-113744633D01*
X81043043Y-113744625D01*
X81040039Y-113739042D01*
X80838718Y-113364926D01*
X80835034Y-113359345D01*
X80601186Y-113005079D01*
X80601176Y-113005066D01*
X80536922Y-112924493D01*
X84426464Y-112924493D01*
X84426464Y-113075507D01*
X84465550Y-113221377D01*
X84465551Y-113221380D01*
X84518623Y-113313303D01*
X84541057Y-113352159D01*
X84647841Y-113458943D01*
X84739767Y-113512016D01*
X84778619Y-113534448D01*
X84778620Y-113534448D01*
X84778623Y-113534450D01*
X84924493Y-113573536D01*
X85075504Y-113573536D01*
X85075507Y-113573536D01*
X85221377Y-113534450D01*
X85352159Y-113458943D01*
X85458943Y-113352159D01*
X85534450Y-113221377D01*
X85573536Y-113075507D01*
X85576000Y-113000000D01*
X85573536Y-112924493D01*
X117926464Y-112924493D01*
X117926464Y-113075507D01*
X117965550Y-113221377D01*
X117965551Y-113221380D01*
X118018623Y-113313303D01*
X118041057Y-113352159D01*
X118147841Y-113458943D01*
X118239767Y-113512016D01*
X118278619Y-113534448D01*
X118278620Y-113534448D01*
X118278623Y-113534450D01*
X118424493Y-113573536D01*
X118575504Y-113573536D01*
X118575507Y-113573536D01*
X118721377Y-113534450D01*
X118852159Y-113458943D01*
X118958943Y-113352159D01*
X119034450Y-113221377D01*
X119073536Y-113075507D01*
X119076000Y-113000000D01*
X119073536Y-112924493D01*
X119034450Y-112778623D01*
X118958943Y-112647841D01*
X118852159Y-112541057D01*
X118813303Y-112518623D01*
X118721380Y-112465551D01*
X118721381Y-112465551D01*
X118709419Y-112462345D01*
X118575507Y-112426464D01*
X118575504Y-112426464D01*
X118424496Y-112426464D01*
X118424493Y-112426464D01*
X118290580Y-112462345D01*
X118278619Y-112465551D01*
X118147844Y-112541055D01*
X118147838Y-112541059D01*
X118041059Y-112647838D01*
X118041055Y-112647844D01*
X117965551Y-112778619D01*
X117965550Y-112778623D01*
X117926464Y-112924493D01*
X85573536Y-112924493D01*
X85534450Y-112778623D01*
X85458943Y-112647841D01*
X85352159Y-112541057D01*
X85313303Y-112518623D01*
X85221380Y-112465551D01*
X85221381Y-112465551D01*
X85209419Y-112462345D01*
X85075507Y-112426464D01*
X85075504Y-112426464D01*
X84924496Y-112426464D01*
X84924493Y-112426464D01*
X84790580Y-112462345D01*
X84778619Y-112465551D01*
X84647844Y-112541055D01*
X84647838Y-112541059D01*
X84541059Y-112647838D01*
X84541055Y-112647844D01*
X84465551Y-112778619D01*
X84465550Y-112778623D01*
X84426464Y-112924493D01*
X80536922Y-112924493D01*
X80332355Y-112667973D01*
X80332343Y-112667960D01*
X80327019Y-112662392D01*
X80189562Y-112518623D01*
X80034375Y-112356311D01*
X80034374Y-112356310D01*
X80034371Y-112356307D01*
X79709661Y-112072616D01*
X79701985Y-112067039D01*
X79360837Y-111819180D01*
X79360832Y-111819177D01*
X79360828Y-111819174D01*
X78990681Y-111598021D01*
X78990676Y-111598018D01*
X78990674Y-111598017D01*
X78602208Y-111410941D01*
X78602194Y-111410935D01*
X78198525Y-111259436D01*
X78198500Y-111259428D01*
X77782876Y-111144723D01*
X77358624Y-111067732D01*
X77358621Y-111067731D01*
X77358617Y-111067731D01*
X76929172Y-111029081D01*
X76497990Y-111029081D01*
X76068545Y-111067731D01*
X76068541Y-111067731D01*
X76068537Y-111067732D01*
X75644285Y-111144723D01*
X75228661Y-111259428D01*
X75228636Y-111259436D01*
X74824967Y-111410935D01*
X74824953Y-111410941D01*
X74436487Y-111598017D01*
X74436485Y-111598018D01*
X74066324Y-111819180D01*
X73717512Y-112072607D01*
X73717495Y-112072620D01*
X73392791Y-112356307D01*
X73392786Y-112356311D01*
X73094818Y-112667960D01*
X73094806Y-112667973D01*
X72825985Y-113005066D01*
X72825975Y-113005079D01*
X72588448Y-113364918D01*
X72588448Y-113364919D01*
X72384118Y-113744625D01*
X72384114Y-113744633D01*
X72214657Y-114141100D01*
X72214654Y-114141108D01*
X72081411Y-114551189D01*
X71985466Y-114971553D01*
X71927587Y-115398834D01*
X71927586Y-115398843D01*
X71908242Y-115829577D01*
X70104000Y-115829577D01*
X70104000Y-110744000D01*
X106790540Y-110744000D01*
X106810326Y-110932256D01*
X106810327Y-110932259D01*
X106868818Y-111112277D01*
X106868821Y-111112284D01*
X106963467Y-111276216D01*
X107061000Y-111384537D01*
X107090129Y-111416888D01*
X107243265Y-111528148D01*
X107243270Y-111528151D01*
X107416192Y-111605142D01*
X107416197Y-111605144D01*
X107601354Y-111644500D01*
X107601355Y-111644500D01*
X107790644Y-111644500D01*
X107790646Y-111644500D01*
X107975803Y-111605144D01*
X108148730Y-111528151D01*
X108301871Y-111416888D01*
X108428533Y-111276216D01*
X108523179Y-111112284D01*
X108581674Y-110932256D01*
X108601460Y-110744000D01*
X109330540Y-110744000D01*
X109350326Y-110932256D01*
X109350327Y-110932259D01*
X109408818Y-111112277D01*
X109408821Y-111112284D01*
X109503467Y-111276216D01*
X109601000Y-111384537D01*
X109630129Y-111416888D01*
X109783265Y-111528148D01*
X109783270Y-111528151D01*
X109956192Y-111605142D01*
X109956197Y-111605144D01*
X110141354Y-111644500D01*
X110141355Y-111644500D01*
X110330644Y-111644500D01*
X110330646Y-111644500D01*
X110515803Y-111605144D01*
X110688730Y-111528151D01*
X110798117Y-111448676D01*
X110863920Y-111425198D01*
X110931974Y-111441023D01*
X110943871Y-111448668D01*
X111053266Y-111528148D01*
X111053270Y-111528151D01*
X111226192Y-111605142D01*
X111226197Y-111605144D01*
X111411354Y-111644500D01*
X111411355Y-111644500D01*
X111600644Y-111644500D01*
X111600646Y-111644500D01*
X111785803Y-111605144D01*
X111958730Y-111528151D01*
X112111871Y-111416888D01*
X112238533Y-111276216D01*
X112333179Y-111112284D01*
X112391674Y-110932256D01*
X112411460Y-110744000D01*
X112391674Y-110555744D01*
X112333179Y-110375716D01*
X112238533Y-110211784D01*
X112111871Y-110071112D01*
X112100432Y-110062801D01*
X111958734Y-109959851D01*
X111958729Y-109959848D01*
X111785807Y-109882857D01*
X111785802Y-109882855D01*
X111640001Y-109851865D01*
X111600646Y-109843500D01*
X111411354Y-109843500D01*
X111378897Y-109850398D01*
X111226197Y-109882855D01*
X111226192Y-109882857D01*
X111053270Y-109959848D01*
X111053265Y-109959851D01*
X110943885Y-110039321D01*
X110878079Y-110062801D01*
X110810025Y-110046975D01*
X110798115Y-110039321D01*
X110688734Y-109959851D01*
X110688729Y-109959848D01*
X110515807Y-109882857D01*
X110515802Y-109882855D01*
X110370001Y-109851865D01*
X110330646Y-109843500D01*
X110141354Y-109843500D01*
X110108897Y-109850398D01*
X109956197Y-109882855D01*
X109956192Y-109882857D01*
X109783270Y-109959848D01*
X109783265Y-109959851D01*
X109630129Y-110071111D01*
X109503466Y-110211785D01*
X109408821Y-110375715D01*
X109408818Y-110375722D01*
X109350327Y-110555740D01*
X109350326Y-110555744D01*
X109330540Y-110744000D01*
X108601460Y-110744000D01*
X108581674Y-110555744D01*
X108523179Y-110375716D01*
X108428533Y-110211784D01*
X108301871Y-110071112D01*
X108290432Y-110062801D01*
X108148734Y-109959851D01*
X108148729Y-109959848D01*
X107975807Y-109882857D01*
X107975802Y-109882855D01*
X107830001Y-109851865D01*
X107790646Y-109843500D01*
X107601354Y-109843500D01*
X107568897Y-109850398D01*
X107416197Y-109882855D01*
X107416192Y-109882857D01*
X107243270Y-109959848D01*
X107243265Y-109959851D01*
X107090129Y-110071111D01*
X106963466Y-110211785D01*
X106868821Y-110375715D01*
X106868818Y-110375722D01*
X106810327Y-110555740D01*
X106810326Y-110555744D01*
X106790540Y-110744000D01*
X70104000Y-110744000D01*
X70104000Y-109090000D01*
X70123685Y-109022961D01*
X70176489Y-108977206D01*
X70228000Y-108966000D01*
X131194000Y-108966000D01*
X131261039Y-108985685D01*
G37*
%TD.AperFunction*%
%TD*%
M02*
