%TF.GenerationSoftware,KiCad,Pcbnew,8.0.4*%
%TF.CreationDate,2024-07-25T03:06:04-05:00*%
%TF.ProjectId,stm32devBoardf405rg,73746d33-3264-4657-9642-6f6172646634,rev?*%
%TF.SameCoordinates,Original*%
%TF.FileFunction,Copper,L4,Bot*%
%TF.FilePolarity,Positive*%
%FSLAX46Y46*%
G04 Gerber Fmt 4.6, Leading zero omitted, Abs format (unit mm)*
G04 Created by KiCad (PCBNEW 8.0.4) date 2024-07-25 03:06:04*
%MOMM*%
%LPD*%
G01*
G04 APERTURE LIST*
G04 Aperture macros list*
%AMRoundRect*
0 Rectangle with rounded corners*
0 $1 Rounding radius*
0 $2 $3 $4 $5 $6 $7 $8 $9 X,Y pos of 4 corners*
0 Add a 4 corners polygon primitive as box body*
4,1,4,$2,$3,$4,$5,$6,$7,$8,$9,$2,$3,0*
0 Add four circle primitives for the rounded corners*
1,1,$1+$1,$2,$3*
1,1,$1+$1,$4,$5*
1,1,$1+$1,$6,$7*
1,1,$1+$1,$8,$9*
0 Add four rect primitives between the rounded corners*
20,1,$1+$1,$2,$3,$4,$5,0*
20,1,$1+$1,$4,$5,$6,$7,0*
20,1,$1+$1,$6,$7,$8,$9,0*
20,1,$1+$1,$8,$9,$2,$3,0*%
G04 Aperture macros list end*
%TA.AperFunction,ComponentPad*%
%ADD10R,2.400000X2.400000*%
%TD*%
%TA.AperFunction,ComponentPad*%
%ADD11C,2.400000*%
%TD*%
%TA.AperFunction,ComponentPad*%
%ADD12C,0.900000*%
%TD*%
%TA.AperFunction,ComponentPad*%
%ADD13C,8.600000*%
%TD*%
%TA.AperFunction,ComponentPad*%
%ADD14RoundRect,0.200000X-0.200000X-0.450000X0.200000X-0.450000X0.200000X0.450000X-0.200000X0.450000X0*%
%TD*%
%TA.AperFunction,ComponentPad*%
%ADD15O,0.800000X1.300000*%
%TD*%
%TA.AperFunction,ComponentPad*%
%ADD16RoundRect,0.200000X0.200000X0.450000X-0.200000X0.450000X-0.200000X-0.450000X0.200000X-0.450000X0*%
%TD*%
%TA.AperFunction,ComponentPad*%
%ADD17O,1.700000X1.350000*%
%TD*%
%TA.AperFunction,ComponentPad*%
%ADD18O,1.500000X1.100000*%
%TD*%
%TA.AperFunction,ViaPad*%
%ADD19C,0.800000*%
%TD*%
%TA.AperFunction,Conductor*%
%ADD20C,0.300000*%
%TD*%
G04 APERTURE END LIST*
D10*
%TO.P,J1,1,Pin_1*%
%TO.N,+12V*%
X124460000Y-142240000D03*
D11*
%TO.P,J1,2,Pin_2*%
%TO.N,GND*%
X124460000Y-138740000D03*
%TD*%
D12*
%TO.P,H3,1,1*%
%TO.N,GND*%
X72544000Y-150622000D03*
X73488581Y-148341581D03*
X73488581Y-152902419D03*
X75769000Y-147397000D03*
D13*
X75769000Y-150622000D03*
D12*
X75769000Y-153847000D03*
X78049419Y-148341581D03*
X78049419Y-152902419D03*
X78994000Y-150622000D03*
%TD*%
D14*
%TO.P,J4,1,Pin_1*%
%TO.N,+3.3V*%
X93883000Y-147398000D03*
D15*
%TO.P,J4,2,Pin_2*%
%TO.N,UART3_TX*%
X95133000Y-147398000D03*
%TO.P,J4,3,Pin_3*%
%TO.N,UART3_RX*%
X96383000Y-147398000D03*
%TO.P,J4,4,Pin_4*%
%TO.N,GND*%
X97633000Y-147398000D03*
%TD*%
D12*
%TO.P,H2,1,1*%
%TO.N,GND*%
X73488581Y-115829581D03*
X74433162Y-113549162D03*
X74433162Y-118110000D03*
X76713581Y-112604581D03*
D13*
X76713581Y-115829581D03*
D12*
X76713581Y-119054581D03*
X78994000Y-113549162D03*
X78994000Y-118110000D03*
X79938581Y-115829581D03*
%TD*%
%TO.P,H1,1,1*%
%TO.N,GND*%
X121775000Y-115824000D03*
X122719581Y-113543581D03*
X122719581Y-118104419D03*
X125000000Y-112599000D03*
D13*
X125000000Y-115824000D03*
D12*
X125000000Y-119049000D03*
X127280419Y-113543581D03*
X127280419Y-118104419D03*
X128225000Y-115824000D03*
%TD*%
%TO.P,H4,1,1*%
%TO.N,GND*%
X122000000Y-150291000D03*
X122944581Y-148010581D03*
X122944581Y-152571419D03*
X125225000Y-147066000D03*
D13*
X125225000Y-150291000D03*
D12*
X125225000Y-153516000D03*
X127505419Y-148010581D03*
X127505419Y-152571419D03*
X128450000Y-150291000D03*
%TD*%
D16*
%TO.P,J3,1,Pin_1*%
%TO.N,+3.3V*%
X96520000Y-116840000D03*
D15*
%TO.P,J3,2,Pin_2*%
%TO.N,I2C1_SCL*%
X95270000Y-116840000D03*
%TO.P,J3,3,Pin_3*%
%TO.N,I2C1_SDA*%
X94020000Y-116840000D03*
%TO.P,J3,4,Pin_4*%
%TO.N,GND*%
X92770000Y-116840000D03*
%TD*%
D17*
%TO.P,J5,6,Shield*%
%TO.N,unconnected-(J5-Shield-Pad6)_3*%
X129680000Y-129230000D03*
D18*
X126680000Y-128920000D03*
X126680000Y-124080000D03*
D17*
X129680000Y-123770000D03*
%TD*%
D19*
%TO.N,GND*%
X120650000Y-123952000D03*
X123698000Y-125222000D03*
X118618000Y-137668000D03*
X115062000Y-138938000D03*
X78994000Y-129032000D03*
X100838000Y-143002000D03*
X120142000Y-141478000D03*
X92964000Y-124206000D03*
X117348000Y-136906000D03*
X87376000Y-139446000D03*
X88138000Y-128524000D03*
X91948000Y-142240000D03*
X86360000Y-124968000D03*
X111506000Y-110744000D03*
X102616000Y-127254000D03*
X84582000Y-135128000D03*
X83820000Y-129286000D03*
X124460000Y-124206000D03*
X105156000Y-129032000D03*
X81026000Y-136144000D03*
X104902000Y-127000000D03*
X124714000Y-125222000D03*
X123444000Y-124206000D03*
X104140000Y-128016000D03*
X119380000Y-147320000D03*
X105664000Y-136652000D03*
X105664000Y-138938000D03*
X92710000Y-143002000D03*
X86614000Y-128524000D03*
X107696000Y-110744000D03*
X81026000Y-134366000D03*
X110236000Y-110744000D03*
X118872000Y-140462000D03*
X86614000Y-134874000D03*
X103632000Y-140208000D03*
X112500000Y-149500000D03*
X101600000Y-142494000D03*
%TO.N,+3.3V*%
X115824000Y-146304000D03*
X104902000Y-148336000D03*
X108204000Y-137668000D03*
X93726000Y-143002000D03*
X107188000Y-138938000D03*
X102108000Y-139446000D03*
X82550000Y-138938000D03*
X112776000Y-110744000D03*
X109220000Y-139700000D03*
X109728000Y-126492000D03*
X92964000Y-122174000D03*
X89154000Y-125984000D03*
X86614000Y-129794000D03*
X102870000Y-129032000D03*
X81788000Y-137160000D03*
X87122000Y-130810000D03*
X93980000Y-141478000D03*
X102108000Y-140970000D03*
X78994000Y-124968000D03*
X109220000Y-128270000D03*
X111252000Y-140208000D03*
X97536000Y-122428000D03*
%TO.N,SWDIO*%
X99060000Y-130302000D03*
X113538000Y-125222000D03*
%TO.N,NRST*%
X97536000Y-129794000D03*
X97536000Y-123952000D03*
%TD*%
D20*
%TO.N,SWDIO*%
X100584000Y-125222000D02*
X113538000Y-125222000D01*
X100584000Y-128225339D02*
X100584000Y-125222000D01*
X99060000Y-130302000D02*
X99060000Y-129749339D01*
X99060000Y-129749339D02*
X100584000Y-128225339D01*
%TO.N,NRST*%
X97536000Y-129794000D02*
X97536000Y-123952000D01*
%TD*%
M02*
