%TF.GenerationSoftware,KiCad,Pcbnew,8.0.4*%
%TF.CreationDate,2024-07-25T03:06:04-05:00*%
%TF.ProjectId,stm32devBoardf405rg,73746d33-3264-4657-9642-6f6172646634,rev?*%
%TF.SameCoordinates,Original*%
%TF.FileFunction,Copper,L3,Inr*%
%TF.FilePolarity,Positive*%
%FSLAX46Y46*%
G04 Gerber Fmt 4.6, Leading zero omitted, Abs format (unit mm)*
G04 Created by KiCad (PCBNEW 8.0.4) date 2024-07-25 03:06:04*
%MOMM*%
%LPD*%
G01*
G04 APERTURE LIST*
G04 Aperture macros list*
%AMRoundRect*
0 Rectangle with rounded corners*
0 $1 Rounding radius*
0 $2 $3 $4 $5 $6 $7 $8 $9 X,Y pos of 4 corners*
0 Add a 4 corners polygon primitive as box body*
4,1,4,$2,$3,$4,$5,$6,$7,$8,$9,$2,$3,0*
0 Add four circle primitives for the rounded corners*
1,1,$1+$1,$2,$3*
1,1,$1+$1,$4,$5*
1,1,$1+$1,$6,$7*
1,1,$1+$1,$8,$9*
0 Add four rect primitives between the rounded corners*
20,1,$1+$1,$2,$3,$4,$5,0*
20,1,$1+$1,$4,$5,$6,$7,0*
20,1,$1+$1,$6,$7,$8,$9,0*
20,1,$1+$1,$8,$9,$2,$3,0*%
G04 Aperture macros list end*
%TA.AperFunction,ComponentPad*%
%ADD10R,2.400000X2.400000*%
%TD*%
%TA.AperFunction,ComponentPad*%
%ADD11C,2.400000*%
%TD*%
%TA.AperFunction,ComponentPad*%
%ADD12C,0.900000*%
%TD*%
%TA.AperFunction,ComponentPad*%
%ADD13C,8.600000*%
%TD*%
%TA.AperFunction,ComponentPad*%
%ADD14RoundRect,0.200000X-0.200000X-0.450000X0.200000X-0.450000X0.200000X0.450000X-0.200000X0.450000X0*%
%TD*%
%TA.AperFunction,ComponentPad*%
%ADD15O,0.800000X1.300000*%
%TD*%
%TA.AperFunction,ComponentPad*%
%ADD16RoundRect,0.200000X0.200000X0.450000X-0.200000X0.450000X-0.200000X-0.450000X0.200000X-0.450000X0*%
%TD*%
%TA.AperFunction,ComponentPad*%
%ADD17O,1.700000X1.350000*%
%TD*%
%TA.AperFunction,ComponentPad*%
%ADD18O,1.500000X1.100000*%
%TD*%
%TA.AperFunction,ViaPad*%
%ADD19C,0.800000*%
%TD*%
G04 APERTURE END LIST*
D10*
%TO.N,+12V*%
%TO.C,J1*%
X124460000Y-142240000D03*
D11*
%TO.N,GND*%
X124460000Y-138740000D03*
%TD*%
D12*
%TO.N,GND*%
%TO.C,H3*%
X72544000Y-150622000D03*
X73488581Y-148341581D03*
X73488581Y-152902419D03*
X75769000Y-147397000D03*
D13*
X75769000Y-150622000D03*
D12*
X75769000Y-153847000D03*
X78049419Y-148341581D03*
X78049419Y-152902419D03*
X78994000Y-150622000D03*
%TD*%
D14*
%TO.N,+3.3V*%
%TO.C,J4*%
X93883000Y-147398000D03*
D15*
%TO.N,UART3_TX*%
X95133000Y-147398000D03*
%TO.N,UART3_RX*%
X96383000Y-147398000D03*
%TO.N,GND*%
X97633000Y-147398000D03*
%TD*%
D12*
%TO.N,GND*%
%TO.C,H2*%
X73488581Y-115829581D03*
X74433162Y-113549162D03*
X74433162Y-118110000D03*
X76713581Y-112604581D03*
D13*
X76713581Y-115829581D03*
D12*
X76713581Y-119054581D03*
X78994000Y-113549162D03*
X78994000Y-118110000D03*
X79938581Y-115829581D03*
%TD*%
%TO.N,GND*%
%TO.C,H1*%
X121775000Y-115824000D03*
X122719581Y-113543581D03*
X122719581Y-118104419D03*
X125000000Y-112599000D03*
D13*
X125000000Y-115824000D03*
D12*
X125000000Y-119049000D03*
X127280419Y-113543581D03*
X127280419Y-118104419D03*
X128225000Y-115824000D03*
%TD*%
%TO.N,GND*%
%TO.C,H4*%
X122000000Y-150291000D03*
X122944581Y-148010581D03*
X122944581Y-152571419D03*
X125225000Y-147066000D03*
D13*
X125225000Y-150291000D03*
D12*
X125225000Y-153516000D03*
X127505419Y-148010581D03*
X127505419Y-152571419D03*
X128450000Y-150291000D03*
%TD*%
D16*
%TO.N,+3.3V*%
%TO.C,J3*%
X96520000Y-116840000D03*
D15*
%TO.N,I2C1_SCL*%
X95270000Y-116840000D03*
%TO.N,I2C1_SDA*%
X94020000Y-116840000D03*
%TO.N,GND*%
X92770000Y-116840000D03*
%TD*%
D17*
%TO.N,unconnected-(J5-Shield-Pad6)_3*%
%TO.C,J5*%
X129680000Y-129230000D03*
D18*
X126680000Y-128920000D03*
X126680000Y-124080000D03*
D17*
X129680000Y-123770000D03*
%TD*%
D19*
%TO.N,GND*%
X120650000Y-123952000D03*
X123698000Y-125222000D03*
X118618000Y-137668000D03*
X115062000Y-138938000D03*
X78994000Y-129032000D03*
X100838000Y-143002000D03*
X120142000Y-141478000D03*
X92964000Y-124206000D03*
X117348000Y-136906000D03*
X87376000Y-139446000D03*
X88138000Y-128524000D03*
X91948000Y-142240000D03*
X86360000Y-124968000D03*
X111506000Y-110744000D03*
X102616000Y-127254000D03*
X84582000Y-135128000D03*
X83820000Y-129286000D03*
X124460000Y-124206000D03*
X105156000Y-129032000D03*
X81026000Y-136144000D03*
X104902000Y-127000000D03*
X124714000Y-125222000D03*
X123444000Y-124206000D03*
X104140000Y-128016000D03*
X119380000Y-147320000D03*
X105664000Y-136652000D03*
X105664000Y-138938000D03*
X92710000Y-143002000D03*
X86614000Y-128524000D03*
X107696000Y-110744000D03*
X81026000Y-134366000D03*
X110236000Y-110744000D03*
X118872000Y-140462000D03*
X86614000Y-134874000D03*
X103632000Y-140208000D03*
X112500000Y-149500000D03*
X101600000Y-142494000D03*
%TO.N,+3.3V*%
X115824000Y-146304000D03*
X104902000Y-148336000D03*
X108204000Y-137668000D03*
X93726000Y-143002000D03*
X107188000Y-138938000D03*
X102108000Y-139446000D03*
X82550000Y-138938000D03*
X112776000Y-110744000D03*
X109220000Y-139700000D03*
X109728000Y-126492000D03*
X92964000Y-122174000D03*
X89154000Y-125984000D03*
X86614000Y-129794000D03*
X102870000Y-129032000D03*
X81788000Y-137160000D03*
X87122000Y-130810000D03*
X93980000Y-141478000D03*
X102108000Y-140970000D03*
X78994000Y-124968000D03*
X109220000Y-128270000D03*
X111252000Y-140208000D03*
X97536000Y-122428000D03*
%TO.N,SWDIO*%
X99060000Y-130302000D03*
X113538000Y-125222000D03*
%TO.N,NRST*%
X97536000Y-129794000D03*
X97536000Y-123952000D03*
%TD*%
%TA.AperFunction,Conductor*%
%TO.N,GND*%
G36*
X78108117Y-152607564D02*
G01*
X78088915Y-152602419D01*
X78009923Y-152602419D01*
X77933623Y-152622863D01*
X77865214Y-152662359D01*
X77809359Y-152718214D01*
X77769863Y-152786623D01*
X77749419Y-152862923D01*
X77749419Y-152941915D01*
X77754564Y-152961117D01*
X77102348Y-152308901D01*
X77189635Y-152241924D01*
X77388924Y-152042635D01*
X77455901Y-151955347D01*
X78108117Y-152607564D01*
G37*
%TD.AperFunction*%
%TA.AperFunction,Conductor*%
G36*
X74149076Y-152042635D02*
G01*
X74348365Y-152241924D01*
X74435651Y-152308901D01*
X73783436Y-152961116D01*
X73788581Y-152941915D01*
X73788581Y-152862923D01*
X73768137Y-152786623D01*
X73728641Y-152718214D01*
X73672786Y-152662359D01*
X73604377Y-152622863D01*
X73528077Y-152602419D01*
X73449085Y-152602419D01*
X73429879Y-152607564D01*
X74082097Y-151955347D01*
X74149076Y-152042635D01*
G37*
%TD.AperFunction*%
%TA.AperFunction,Conductor*%
G36*
X74435652Y-148935098D02*
G01*
X74348365Y-149002076D01*
X74149076Y-149201365D01*
X74082098Y-149288651D01*
X73429882Y-148636435D01*
X73449085Y-148641581D01*
X73528077Y-148641581D01*
X73604377Y-148621137D01*
X73672786Y-148581641D01*
X73728641Y-148525786D01*
X73768137Y-148457377D01*
X73788581Y-148381077D01*
X73788581Y-148302085D01*
X73783435Y-148282881D01*
X74435652Y-148935098D01*
G37*
%TD.AperFunction*%
%TA.AperFunction,Conductor*%
G36*
X77749419Y-148302085D02*
G01*
X77749419Y-148381077D01*
X77769863Y-148457377D01*
X77809359Y-148525786D01*
X77865214Y-148581641D01*
X77933623Y-148621137D01*
X78009923Y-148641581D01*
X78088915Y-148641581D01*
X78108113Y-148636436D01*
X77455900Y-149288650D01*
X77388924Y-149201365D01*
X77189635Y-149002076D01*
X77102346Y-148935097D01*
X77754565Y-148282878D01*
X77749419Y-148302085D01*
G37*
%TD.AperFunction*%
%TA.AperFunction,Conductor*%
G36*
X127564117Y-152276564D02*
G01*
X127544915Y-152271419D01*
X127465923Y-152271419D01*
X127389623Y-152291863D01*
X127321214Y-152331359D01*
X127265359Y-152387214D01*
X127225863Y-152455623D01*
X127205419Y-152531923D01*
X127205419Y-152610915D01*
X127210564Y-152630117D01*
X126558348Y-151977901D01*
X126645635Y-151910924D01*
X126844924Y-151711635D01*
X126911901Y-151624348D01*
X127564117Y-152276564D01*
G37*
%TD.AperFunction*%
%TA.AperFunction,Conductor*%
G36*
X123605076Y-151711635D02*
G01*
X123804365Y-151910924D01*
X123891651Y-151977901D01*
X123239436Y-152630116D01*
X123244581Y-152610915D01*
X123244581Y-152531923D01*
X123224137Y-152455623D01*
X123184641Y-152387214D01*
X123128786Y-152331359D01*
X123060377Y-152291863D01*
X122984077Y-152271419D01*
X122905085Y-152271419D01*
X122885879Y-152276564D01*
X123538097Y-151624347D01*
X123605076Y-151711635D01*
G37*
%TD.AperFunction*%
%TA.AperFunction,Conductor*%
G36*
X123891652Y-148604098D02*
G01*
X123804365Y-148671076D01*
X123605076Y-148870365D01*
X123538098Y-148957651D01*
X122885882Y-148305435D01*
X122905085Y-148310581D01*
X122984077Y-148310581D01*
X123060377Y-148290137D01*
X123128786Y-148250641D01*
X123184641Y-148194786D01*
X123224137Y-148126377D01*
X123244581Y-148050077D01*
X123244581Y-147971085D01*
X123239435Y-147951881D01*
X123891652Y-148604098D01*
G37*
%TD.AperFunction*%
%TA.AperFunction,Conductor*%
G36*
X127205419Y-147971085D02*
G01*
X127205419Y-148050077D01*
X127225863Y-148126377D01*
X127265359Y-148194786D01*
X127321214Y-148250641D01*
X127389623Y-148290137D01*
X127465923Y-148310581D01*
X127544915Y-148310581D01*
X127564113Y-148305436D01*
X126911900Y-148957650D01*
X126844924Y-148870365D01*
X126645635Y-148671076D01*
X126558346Y-148604097D01*
X127210565Y-147951878D01*
X127205419Y-147971085D01*
G37*
%TD.AperFunction*%
%TA.AperFunction,Conductor*%
G36*
X79052698Y-117815145D02*
G01*
X79033496Y-117810000D01*
X78954504Y-117810000D01*
X78878204Y-117830444D01*
X78809795Y-117869940D01*
X78753940Y-117925795D01*
X78714444Y-117994204D01*
X78694000Y-118070504D01*
X78694000Y-118149496D01*
X78699145Y-118168698D01*
X78046929Y-117516482D01*
X78134216Y-117449505D01*
X78333505Y-117250216D01*
X78400482Y-117162929D01*
X79052698Y-117815145D01*
G37*
%TD.AperFunction*%
%TA.AperFunction,Conductor*%
G36*
X75093657Y-117250216D02*
G01*
X75292946Y-117449505D01*
X75380232Y-117516482D01*
X74728017Y-118168697D01*
X74733162Y-118149496D01*
X74733162Y-118070504D01*
X74712718Y-117994204D01*
X74673222Y-117925795D01*
X74617367Y-117869940D01*
X74548958Y-117830444D01*
X74472658Y-117810000D01*
X74393666Y-117810000D01*
X74374460Y-117815145D01*
X75026678Y-117162928D01*
X75093657Y-117250216D01*
G37*
%TD.AperFunction*%
%TA.AperFunction,Conductor*%
G36*
X75380233Y-114142679D02*
G01*
X75292946Y-114209657D01*
X75093657Y-114408946D01*
X75026679Y-114496232D01*
X74374463Y-113844016D01*
X74393666Y-113849162D01*
X74472658Y-113849162D01*
X74548958Y-113828718D01*
X74617367Y-113789222D01*
X74673222Y-113733367D01*
X74712718Y-113664958D01*
X74733162Y-113588658D01*
X74733162Y-113509666D01*
X74728016Y-113490462D01*
X75380233Y-114142679D01*
G37*
%TD.AperFunction*%
%TA.AperFunction,Conductor*%
G36*
X78694000Y-113509666D02*
G01*
X78694000Y-113588658D01*
X78714444Y-113664958D01*
X78753940Y-113733367D01*
X78809795Y-113789222D01*
X78878204Y-113828718D01*
X78954504Y-113849162D01*
X79033496Y-113849162D01*
X79052694Y-113844017D01*
X78400481Y-114496231D01*
X78333505Y-114408946D01*
X78134216Y-114209657D01*
X78046927Y-114142678D01*
X78699146Y-113490459D01*
X78694000Y-113509666D01*
G37*
%TD.AperFunction*%
%TA.AperFunction,Conductor*%
G36*
X127339117Y-117809564D02*
G01*
X127319915Y-117804419D01*
X127240923Y-117804419D01*
X127164623Y-117824863D01*
X127096214Y-117864359D01*
X127040359Y-117920214D01*
X127000863Y-117988623D01*
X126980419Y-118064923D01*
X126980419Y-118143915D01*
X126985564Y-118163117D01*
X126333348Y-117510901D01*
X126420635Y-117443924D01*
X126619924Y-117244635D01*
X126686901Y-117157348D01*
X127339117Y-117809564D01*
G37*
%TD.AperFunction*%
%TA.AperFunction,Conductor*%
G36*
X123380076Y-117244635D02*
G01*
X123579365Y-117443924D01*
X123666651Y-117510901D01*
X123014436Y-118163116D01*
X123019581Y-118143915D01*
X123019581Y-118064923D01*
X122999137Y-117988623D01*
X122959641Y-117920214D01*
X122903786Y-117864359D01*
X122835377Y-117824863D01*
X122759077Y-117804419D01*
X122680085Y-117804419D01*
X122660879Y-117809564D01*
X123313097Y-117157347D01*
X123380076Y-117244635D01*
G37*
%TD.AperFunction*%
%TA.AperFunction,Conductor*%
G36*
X123666652Y-114137098D02*
G01*
X123579365Y-114204076D01*
X123380076Y-114403365D01*
X123313098Y-114490651D01*
X122660882Y-113838435D01*
X122680085Y-113843581D01*
X122759077Y-113843581D01*
X122835377Y-113823137D01*
X122903786Y-113783641D01*
X122959641Y-113727786D01*
X122999137Y-113659377D01*
X123019581Y-113583077D01*
X123019581Y-113504085D01*
X123014435Y-113484881D01*
X123666652Y-114137098D01*
G37*
%TD.AperFunction*%
%TA.AperFunction,Conductor*%
G36*
X126980419Y-113504085D02*
G01*
X126980419Y-113583077D01*
X127000863Y-113659377D01*
X127040359Y-113727786D01*
X127096214Y-113783641D01*
X127164623Y-113823137D01*
X127240923Y-113843581D01*
X127319915Y-113843581D01*
X127339113Y-113838436D01*
X126686900Y-114490650D01*
X126619924Y-114403365D01*
X126420635Y-114204076D01*
X126333346Y-114137097D01*
X126985565Y-113484878D01*
X126980419Y-113504085D01*
G37*
%TD.AperFunction*%
%TA.AperFunction,Conductor*%
G36*
X131261039Y-108985685D02*
G01*
X131306794Y-109038489D01*
X131318000Y-109090000D01*
X131318000Y-156340000D01*
X131298315Y-156407039D01*
X131245511Y-156452794D01*
X131194000Y-156464000D01*
X70228000Y-156464000D01*
X70160961Y-156444315D01*
X70115206Y-156391511D01*
X70104000Y-156340000D01*
X70104000Y-150621996D01*
X70964162Y-150621996D01*
X70964162Y-150622003D01*
X70983504Y-151052692D01*
X70983505Y-151052701D01*
X71041378Y-151479938D01*
X71137313Y-151900258D01*
X71270542Y-152310296D01*
X71270545Y-152310304D01*
X71439985Y-152706730D01*
X71439989Y-152706738D01*
X71644294Y-153086399D01*
X71881799Y-153446207D01*
X71881800Y-153446208D01*
X72150608Y-153783282D01*
X72201223Y-153836221D01*
X73193726Y-152843717D01*
X73188581Y-152862923D01*
X73188581Y-152941915D01*
X73209025Y-153018215D01*
X73248521Y-153086624D01*
X73304376Y-153142479D01*
X73372785Y-153181975D01*
X73449085Y-153202419D01*
X73528077Y-153202419D01*
X73547278Y-153197274D01*
X72555877Y-154188675D01*
X72773227Y-154378569D01*
X72773244Y-154378582D01*
X73122024Y-154631986D01*
X73492140Y-154853120D01*
X73492146Y-154853123D01*
X73880569Y-155040178D01*
X73880583Y-155040184D01*
X74284209Y-155191667D01*
X74284234Y-155191675D01*
X74699816Y-155306369D01*
X75124023Y-155383351D01*
X75553435Y-155421999D01*
X75553438Y-155422000D01*
X75984562Y-155422000D01*
X75984564Y-155421999D01*
X76413976Y-155383351D01*
X76838183Y-155306369D01*
X77253765Y-155191675D01*
X77253790Y-155191667D01*
X77657416Y-155040184D01*
X77657430Y-155040178D01*
X78045853Y-154853123D01*
X78045859Y-154853120D01*
X78415975Y-154631986D01*
X78764755Y-154378582D01*
X78764772Y-154378569D01*
X78982121Y-154188675D01*
X77990720Y-153197273D01*
X78009923Y-153202419D01*
X78088915Y-153202419D01*
X78165215Y-153181975D01*
X78233624Y-153142479D01*
X78289479Y-153086624D01*
X78328975Y-153018215D01*
X78349419Y-152941915D01*
X78349419Y-152862923D01*
X78344273Y-152843720D01*
X79336775Y-153836222D01*
X79336776Y-153836222D01*
X79387386Y-153783289D01*
X79387386Y-153783288D01*
X79656199Y-153446208D01*
X79656200Y-153446207D01*
X79670533Y-153424493D01*
X83926464Y-153424493D01*
X83926464Y-153575507D01*
X83965550Y-153721377D01*
X83965551Y-153721380D01*
X84001291Y-153783282D01*
X84041057Y-153852159D01*
X84147841Y-153958943D01*
X84239767Y-154012016D01*
X84278619Y-154034448D01*
X84278620Y-154034448D01*
X84278623Y-154034450D01*
X84424493Y-154073536D01*
X84575504Y-154073536D01*
X84575507Y-154073536D01*
X84721377Y-154034450D01*
X84852159Y-153958943D01*
X84958943Y-153852159D01*
X85034450Y-153721377D01*
X85073536Y-153575507D01*
X85076000Y-153500000D01*
X85073536Y-153424493D01*
X117926464Y-153424493D01*
X117926464Y-153575507D01*
X117965550Y-153721377D01*
X117965551Y-153721380D01*
X118001291Y-153783282D01*
X118041057Y-153852159D01*
X118147841Y-153958943D01*
X118239767Y-154012016D01*
X118278619Y-154034448D01*
X118278620Y-154034448D01*
X118278623Y-154034450D01*
X118424493Y-154073536D01*
X118575504Y-154073536D01*
X118575507Y-154073536D01*
X118721377Y-154034450D01*
X118852159Y-153958943D01*
X118958943Y-153852159D01*
X119034450Y-153721377D01*
X119073536Y-153575507D01*
X119076000Y-153500000D01*
X119073536Y-153424493D01*
X119034450Y-153278623D01*
X118958943Y-153147841D01*
X118852159Y-153041057D01*
X118813303Y-153018623D01*
X118721380Y-152965551D01*
X118721381Y-152965551D01*
X118709419Y-152962345D01*
X118575507Y-152926464D01*
X118575504Y-152926464D01*
X118424496Y-152926464D01*
X118424493Y-152926464D01*
X118290580Y-152962345D01*
X118278619Y-152965551D01*
X118147844Y-153041055D01*
X118147838Y-153041059D01*
X118041059Y-153147838D01*
X118041055Y-153147844D01*
X117965551Y-153278619D01*
X117965550Y-153278623D01*
X117926464Y-153424493D01*
X85073536Y-153424493D01*
X85034450Y-153278623D01*
X84958943Y-153147841D01*
X84852159Y-153041057D01*
X84813303Y-153018623D01*
X84721380Y-152965551D01*
X84721381Y-152965551D01*
X84709419Y-152962345D01*
X84575507Y-152926464D01*
X84575504Y-152926464D01*
X84424496Y-152926464D01*
X84424493Y-152926464D01*
X84290580Y-152962345D01*
X84278619Y-152965551D01*
X84147844Y-153041055D01*
X84147838Y-153041059D01*
X84041059Y-153147838D01*
X84041055Y-153147844D01*
X83965551Y-153278619D01*
X83965550Y-153278623D01*
X83926464Y-153424493D01*
X79670533Y-153424493D01*
X79893705Y-153086399D01*
X80098010Y-152706738D01*
X80098014Y-152706730D01*
X80267454Y-152310304D01*
X80267457Y-152310296D01*
X80400686Y-151900258D01*
X80496621Y-151479938D01*
X80554494Y-151052701D01*
X80554495Y-151052692D01*
X80573838Y-150622003D01*
X80573838Y-150621996D01*
X80558972Y-150290996D01*
X120420162Y-150290996D01*
X120420162Y-150291003D01*
X120439504Y-150721692D01*
X120439505Y-150721701D01*
X120497378Y-151148938D01*
X120593313Y-151569258D01*
X120726542Y-151979296D01*
X120726545Y-151979304D01*
X120895985Y-152375730D01*
X120895989Y-152375738D01*
X121100294Y-152755399D01*
X121337799Y-153115207D01*
X121337800Y-153115208D01*
X121606608Y-153452282D01*
X121657223Y-153505221D01*
X122649726Y-152512717D01*
X122644581Y-152531923D01*
X122644581Y-152610915D01*
X122665025Y-152687215D01*
X122704521Y-152755624D01*
X122760376Y-152811479D01*
X122828785Y-152850975D01*
X122905085Y-152871419D01*
X122984077Y-152871419D01*
X123003278Y-152866274D01*
X122011877Y-153857675D01*
X122229227Y-154047569D01*
X122229244Y-154047582D01*
X122578024Y-154300986D01*
X122948140Y-154522120D01*
X122948146Y-154522123D01*
X123336569Y-154709178D01*
X123336583Y-154709184D01*
X123740209Y-154860667D01*
X123740234Y-154860675D01*
X124155816Y-154975369D01*
X124580023Y-155052351D01*
X125009435Y-155090999D01*
X125009438Y-155091000D01*
X125440562Y-155091000D01*
X125440564Y-155090999D01*
X125869976Y-155052351D01*
X126294183Y-154975369D01*
X126709765Y-154860675D01*
X126709790Y-154860667D01*
X127113416Y-154709184D01*
X127113430Y-154709178D01*
X127501853Y-154522123D01*
X127501859Y-154522120D01*
X127871975Y-154300986D01*
X128220755Y-154047582D01*
X128220772Y-154047569D01*
X128438121Y-153857675D01*
X127446720Y-152866273D01*
X127465923Y-152871419D01*
X127544915Y-152871419D01*
X127621215Y-152850975D01*
X127689624Y-152811479D01*
X127745479Y-152755624D01*
X127784975Y-152687215D01*
X127805419Y-152610915D01*
X127805419Y-152531923D01*
X127800273Y-152512720D01*
X128792775Y-153505222D01*
X128792776Y-153505222D01*
X128843386Y-153452289D01*
X128843386Y-153452288D01*
X129112199Y-153115208D01*
X129112200Y-153115207D01*
X129349705Y-152755399D01*
X129554010Y-152375738D01*
X129554014Y-152375730D01*
X129723454Y-151979304D01*
X129723457Y-151979296D01*
X129856686Y-151569258D01*
X129952621Y-151148938D01*
X130010494Y-150721701D01*
X130010495Y-150721692D01*
X130029838Y-150291003D01*
X130029838Y-150290996D01*
X130010495Y-149860307D01*
X130010494Y-149860298D01*
X129952621Y-149433061D01*
X129856686Y-149012741D01*
X129723457Y-148602703D01*
X129723454Y-148602695D01*
X129554014Y-148206269D01*
X129554010Y-148206261D01*
X129349705Y-147826600D01*
X129112200Y-147466792D01*
X129112199Y-147466791D01*
X128843391Y-147129717D01*
X128792774Y-147076776D01*
X127800274Y-148069275D01*
X127805419Y-148050077D01*
X127805419Y-147971085D01*
X127784975Y-147894785D01*
X127745479Y-147826376D01*
X127689624Y-147770521D01*
X127621215Y-147731025D01*
X127544915Y-147710581D01*
X127465923Y-147710581D01*
X127446716Y-147715727D01*
X128438121Y-146724323D01*
X128220772Y-146534430D01*
X128220755Y-146534417D01*
X127871975Y-146281013D01*
X127501859Y-146059879D01*
X127501853Y-146059876D01*
X127113430Y-145872821D01*
X127113416Y-145872815D01*
X126709790Y-145721332D01*
X126709765Y-145721324D01*
X126294183Y-145606630D01*
X125869976Y-145529648D01*
X125440564Y-145491000D01*
X125009435Y-145491000D01*
X124580023Y-145529648D01*
X124155816Y-145606630D01*
X123740234Y-145721324D01*
X123740209Y-145721332D01*
X123336583Y-145872815D01*
X123336569Y-145872821D01*
X122948146Y-146059876D01*
X122948140Y-146059879D01*
X122578024Y-146281013D01*
X122229235Y-146534423D01*
X122011877Y-146724322D01*
X122011877Y-146724323D01*
X123003280Y-147715726D01*
X122984077Y-147710581D01*
X122905085Y-147710581D01*
X122828785Y-147731025D01*
X122760376Y-147770521D01*
X122704521Y-147826376D01*
X122665025Y-147894785D01*
X122644581Y-147971085D01*
X122644581Y-148050077D01*
X122649726Y-148069279D01*
X121657223Y-147076777D01*
X121606624Y-147129699D01*
X121606612Y-147129712D01*
X121337800Y-147466791D01*
X121337799Y-147466792D01*
X121100294Y-147826600D01*
X120895989Y-148206261D01*
X120895985Y-148206269D01*
X120726545Y-148602695D01*
X120726542Y-148602703D01*
X120593313Y-149012741D01*
X120497378Y-149433061D01*
X120439505Y-149860298D01*
X120439504Y-149860307D01*
X120420162Y-150290996D01*
X80558972Y-150290996D01*
X80554495Y-150191307D01*
X80554494Y-150191298D01*
X80496621Y-149764061D01*
X80400686Y-149343741D01*
X80267457Y-148933703D01*
X80267454Y-148933695D01*
X80098014Y-148537269D01*
X80098010Y-148537261D01*
X79893705Y-148157600D01*
X79656200Y-147797792D01*
X79656199Y-147797791D01*
X79387391Y-147460717D01*
X79336774Y-147407776D01*
X78344274Y-148400275D01*
X78349419Y-148381077D01*
X78349419Y-148302085D01*
X78328975Y-148225785D01*
X78289479Y-148157376D01*
X78233624Y-148101521D01*
X78165215Y-148062025D01*
X78088915Y-148041581D01*
X78009923Y-148041581D01*
X77990716Y-148046727D01*
X78982121Y-147055323D01*
X78794481Y-146891386D01*
X92982500Y-146891386D01*
X92982500Y-147904613D01*
X92988913Y-147975192D01*
X92988913Y-147975194D01*
X92988914Y-147975196D01*
X93039522Y-148137606D01*
X93107909Y-148250732D01*
X93127530Y-148283188D01*
X93247811Y-148403469D01*
X93247813Y-148403470D01*
X93247815Y-148403472D01*
X93393394Y-148491478D01*
X93555804Y-148542086D01*
X93626384Y-148548500D01*
X93626387Y-148548500D01*
X94139613Y-148548500D01*
X94139616Y-148548500D01*
X94210196Y-148542086D01*
X94372606Y-148491478D01*
X94516125Y-148404717D01*
X94583676Y-148386882D01*
X94649162Y-148407733D01*
X94706450Y-148446011D01*
X94706457Y-148446015D01*
X94815707Y-148491267D01*
X94870334Y-148513894D01*
X94870336Y-148513894D01*
X94870341Y-148513896D01*
X95044304Y-148548499D01*
X95044307Y-148548500D01*
X95044309Y-148548500D01*
X95221693Y-148548500D01*
X95221694Y-148548499D01*
X95279682Y-148536964D01*
X95395658Y-148513896D01*
X95395661Y-148513894D01*
X95395666Y-148513894D01*
X95559547Y-148446013D01*
X95689109Y-148359442D01*
X95755786Y-148338564D01*
X95823166Y-148357048D01*
X95826891Y-148359442D01*
X95956446Y-148446008D01*
X95956453Y-148446013D01*
X95956455Y-148446014D01*
X95956459Y-148446016D01*
X96066214Y-148491477D01*
X96120334Y-148513894D01*
X96120336Y-148513894D01*
X96120341Y-148513896D01*
X96294304Y-148548499D01*
X96294307Y-148548500D01*
X96294309Y-148548500D01*
X96471693Y-148548500D01*
X96471694Y-148548499D01*
X96529682Y-148536964D01*
X96645658Y-148513896D01*
X96645661Y-148513894D01*
X96645666Y-148513894D01*
X96809547Y-148446013D01*
X96809552Y-148446009D01*
X96809555Y-148446008D01*
X96898042Y-148386882D01*
X96939558Y-148359141D01*
X97006234Y-148338263D01*
X97073615Y-148356747D01*
X97077340Y-148359141D01*
X97206683Y-148445566D01*
X97206693Y-148445571D01*
X97370476Y-148513412D01*
X97370483Y-148513415D01*
X97383000Y-148515904D01*
X97383000Y-148515903D01*
X97883000Y-148515903D01*
X97895516Y-148513415D01*
X97895523Y-148513412D01*
X98059306Y-148445571D01*
X98059316Y-148445566D01*
X98206716Y-148347076D01*
X98206720Y-148347073D01*
X98217793Y-148336000D01*
X103996540Y-148336000D01*
X104016326Y-148524256D01*
X104016327Y-148524259D01*
X104074818Y-148704277D01*
X104074821Y-148704284D01*
X104169467Y-148868216D01*
X104228425Y-148933695D01*
X104296129Y-149008888D01*
X104449265Y-149120148D01*
X104449270Y-149120151D01*
X104622192Y-149197142D01*
X104622197Y-149197144D01*
X104807354Y-149236500D01*
X104807355Y-149236500D01*
X104996644Y-149236500D01*
X104996646Y-149236500D01*
X105181803Y-149197144D01*
X105354730Y-149120151D01*
X105507871Y-149008888D01*
X105634533Y-148868216D01*
X105729179Y-148704284D01*
X105787674Y-148524256D01*
X105807460Y-148336000D01*
X105787674Y-148147744D01*
X105729179Y-147967716D01*
X105634533Y-147803784D01*
X105507871Y-147663112D01*
X105507870Y-147663111D01*
X105354734Y-147551851D01*
X105354729Y-147551848D01*
X105181807Y-147474857D01*
X105181802Y-147474855D01*
X105036001Y-147443865D01*
X104996646Y-147435500D01*
X104807354Y-147435500D01*
X104774897Y-147442398D01*
X104622197Y-147474855D01*
X104622192Y-147474857D01*
X104449270Y-147551848D01*
X104449265Y-147551851D01*
X104296129Y-147663111D01*
X104169466Y-147803785D01*
X104074821Y-147967715D01*
X104074818Y-147967722D01*
X104019620Y-148137606D01*
X104016326Y-148147744D01*
X103996540Y-148336000D01*
X98217793Y-148336000D01*
X98332073Y-148221720D01*
X98332076Y-148221716D01*
X98430566Y-148074316D01*
X98430571Y-148074307D01*
X98498413Y-147910520D01*
X98498415Y-147910512D01*
X98532999Y-147736646D01*
X98533000Y-147736643D01*
X98533000Y-147648000D01*
X97883000Y-147648000D01*
X97883000Y-148515903D01*
X97383000Y-148515903D01*
X97383000Y-147447728D01*
X97421060Y-147539614D01*
X97491386Y-147609940D01*
X97583272Y-147648000D01*
X97682728Y-147648000D01*
X97774614Y-147609940D01*
X97844940Y-147539614D01*
X97883000Y-147447728D01*
X97883000Y-147348272D01*
X97844940Y-147256386D01*
X97774614Y-147186060D01*
X97682728Y-147148000D01*
X97883000Y-147148000D01*
X98533000Y-147148000D01*
X98533000Y-147059357D01*
X98532999Y-147059353D01*
X98498415Y-146885487D01*
X98498413Y-146885479D01*
X98430571Y-146721692D01*
X98430566Y-146721683D01*
X98332076Y-146574283D01*
X98332073Y-146574279D01*
X98206720Y-146448926D01*
X98206716Y-146448923D01*
X98059316Y-146350433D01*
X98059307Y-146350428D01*
X97947220Y-146304000D01*
X114918540Y-146304000D01*
X114938326Y-146492256D01*
X114938327Y-146492259D01*
X114996818Y-146672277D01*
X114996821Y-146672284D01*
X115091467Y-146836216D01*
X115194103Y-146950204D01*
X115218129Y-146976888D01*
X115371265Y-147088148D01*
X115371270Y-147088151D01*
X115544192Y-147165142D01*
X115544197Y-147165144D01*
X115729354Y-147204500D01*
X115729355Y-147204500D01*
X115918644Y-147204500D01*
X115918646Y-147204500D01*
X116103803Y-147165144D01*
X116276730Y-147088151D01*
X116429871Y-146976888D01*
X116556533Y-146836216D01*
X116651179Y-146672284D01*
X116709674Y-146492256D01*
X116729460Y-146304000D01*
X116709674Y-146115744D01*
X116651179Y-145935716D01*
X116556533Y-145771784D01*
X116429871Y-145631112D01*
X116429870Y-145631111D01*
X116276734Y-145519851D01*
X116276729Y-145519848D01*
X116103807Y-145442857D01*
X116103802Y-145442855D01*
X115958001Y-145411865D01*
X115918646Y-145403500D01*
X115729354Y-145403500D01*
X115696897Y-145410398D01*
X115544197Y-145442855D01*
X115544192Y-145442857D01*
X115371270Y-145519848D01*
X115371265Y-145519851D01*
X115218129Y-145631111D01*
X115091466Y-145771785D01*
X114996821Y-145935715D01*
X114996818Y-145935722D01*
X114938327Y-146115740D01*
X114938326Y-146115744D01*
X114918540Y-146304000D01*
X97947220Y-146304000D01*
X97895519Y-146282585D01*
X97883000Y-146280094D01*
X97883000Y-147148000D01*
X97682728Y-147148000D01*
X97583272Y-147148000D01*
X97491386Y-147186060D01*
X97421060Y-147256386D01*
X97383000Y-147348272D01*
X97383000Y-146280095D01*
X97382999Y-146280094D01*
X97370480Y-146282585D01*
X97206692Y-146350428D01*
X97206683Y-146350433D01*
X97077340Y-146436858D01*
X97010662Y-146457736D01*
X96943282Y-146439251D01*
X96939558Y-146436858D01*
X96809552Y-146349990D01*
X96809540Y-146349983D01*
X96645667Y-146282106D01*
X96645658Y-146282103D01*
X96471694Y-146247500D01*
X96471691Y-146247500D01*
X96294309Y-146247500D01*
X96294306Y-146247500D01*
X96120341Y-146282103D01*
X96120332Y-146282106D01*
X95956459Y-146349983D01*
X95956446Y-146349990D01*
X95826891Y-146436557D01*
X95760213Y-146457435D01*
X95692833Y-146438950D01*
X95689109Y-146436557D01*
X95559553Y-146349990D01*
X95559540Y-146349983D01*
X95395667Y-146282106D01*
X95395658Y-146282103D01*
X95221694Y-146247500D01*
X95221691Y-146247500D01*
X95044309Y-146247500D01*
X95044306Y-146247500D01*
X94870341Y-146282103D01*
X94870332Y-146282106D01*
X94706460Y-146349983D01*
X94706449Y-146349989D01*
X94649162Y-146388267D01*
X94582484Y-146409144D01*
X94516122Y-146391281D01*
X94372606Y-146304522D01*
X94294212Y-146280094D01*
X94210196Y-146253914D01*
X94210194Y-146253913D01*
X94210192Y-146253913D01*
X94160778Y-146249423D01*
X94139616Y-146247500D01*
X93626384Y-146247500D01*
X93607145Y-146249248D01*
X93555807Y-146253913D01*
X93393393Y-146304522D01*
X93247811Y-146392530D01*
X93127530Y-146512811D01*
X93039522Y-146658393D01*
X92988913Y-146820807D01*
X92982500Y-146891386D01*
X78794481Y-146891386D01*
X78764772Y-146865430D01*
X78764755Y-146865417D01*
X78415975Y-146612013D01*
X78045859Y-146390879D01*
X78045853Y-146390876D01*
X77657430Y-146203821D01*
X77657416Y-146203815D01*
X77253790Y-146052332D01*
X77253765Y-146052324D01*
X76838183Y-145937630D01*
X76413976Y-145860648D01*
X75984564Y-145822000D01*
X75553435Y-145822000D01*
X75124023Y-145860648D01*
X74699816Y-145937630D01*
X74284234Y-146052324D01*
X74284209Y-146052332D01*
X73880583Y-146203815D01*
X73880569Y-146203821D01*
X73492146Y-146390876D01*
X73492140Y-146390879D01*
X73122024Y-146612013D01*
X72773235Y-146865423D01*
X72555877Y-147055322D01*
X72555877Y-147055323D01*
X73547280Y-148046726D01*
X73528077Y-148041581D01*
X73449085Y-148041581D01*
X73372785Y-148062025D01*
X73304376Y-148101521D01*
X73248521Y-148157376D01*
X73209025Y-148225785D01*
X73188581Y-148302085D01*
X73188581Y-148381077D01*
X73193726Y-148400279D01*
X72201224Y-147407777D01*
X72201223Y-147407777D01*
X72150624Y-147460699D01*
X72150612Y-147460712D01*
X71881800Y-147797791D01*
X71881799Y-147797792D01*
X71644294Y-148157600D01*
X71439989Y-148537261D01*
X71439985Y-148537269D01*
X71270545Y-148933695D01*
X71270542Y-148933703D01*
X71137313Y-149343741D01*
X71041378Y-149764061D01*
X70983505Y-150191298D01*
X70983504Y-150191307D01*
X70964162Y-150621996D01*
X70104000Y-150621996D01*
X70104000Y-143002000D01*
X92820540Y-143002000D01*
X92840326Y-143190256D01*
X92840327Y-143190259D01*
X92898818Y-143370277D01*
X92898821Y-143370284D01*
X92993467Y-143534216D01*
X93005413Y-143547483D01*
X93120129Y-143674888D01*
X93273265Y-143786148D01*
X93273270Y-143786151D01*
X93446192Y-143863142D01*
X93446197Y-143863144D01*
X93631354Y-143902500D01*
X93631355Y-143902500D01*
X93820644Y-143902500D01*
X93820646Y-143902500D01*
X94005803Y-143863144D01*
X94178730Y-143786151D01*
X94331871Y-143674888D01*
X94458533Y-143534216D01*
X94553179Y-143370284D01*
X94611674Y-143190256D01*
X94631460Y-143002000D01*
X94611674Y-142813744D01*
X94553179Y-142633716D01*
X94458533Y-142469784D01*
X94427458Y-142435272D01*
X94397229Y-142372282D01*
X94405854Y-142302947D01*
X94446720Y-142251986D01*
X94585871Y-142150888D01*
X94712533Y-142010216D01*
X94807179Y-141846284D01*
X94865674Y-141666256D01*
X94885460Y-141478000D01*
X94865674Y-141289744D01*
X94807179Y-141109716D01*
X94712533Y-140945784D01*
X94585871Y-140805112D01*
X94585870Y-140805111D01*
X94432734Y-140693851D01*
X94432729Y-140693848D01*
X94259807Y-140616857D01*
X94259802Y-140616855D01*
X94114001Y-140585865D01*
X94074646Y-140577500D01*
X93885354Y-140577500D01*
X93852897Y-140584398D01*
X93700197Y-140616855D01*
X93700192Y-140616857D01*
X93527270Y-140693848D01*
X93527265Y-140693851D01*
X93374129Y-140805111D01*
X93247466Y-140945785D01*
X93152821Y-141109715D01*
X93152818Y-141109722D01*
X93094327Y-141289740D01*
X93094326Y-141289744D01*
X93074540Y-141478000D01*
X93094326Y-141666256D01*
X93094327Y-141666259D01*
X93152818Y-141846277D01*
X93152821Y-141846284D01*
X93247467Y-142010216D01*
X93277330Y-142043382D01*
X93278540Y-142044726D01*
X93308770Y-142107717D01*
X93300145Y-142177053D01*
X93259276Y-142228016D01*
X93120127Y-142329113D01*
X92993466Y-142469785D01*
X92898821Y-142633715D01*
X92898818Y-142633722D01*
X92840327Y-142813740D01*
X92840326Y-142813744D01*
X92820540Y-143002000D01*
X70104000Y-143002000D01*
X70104000Y-137160000D01*
X80882540Y-137160000D01*
X80902326Y-137348256D01*
X80902327Y-137348259D01*
X80960818Y-137528277D01*
X80960821Y-137528284D01*
X81055467Y-137692216D01*
X81134213Y-137779672D01*
X81182129Y-137832888D01*
X81335265Y-137944148D01*
X81335270Y-137944151D01*
X81508192Y-138021142D01*
X81508197Y-138021144D01*
X81693354Y-138060500D01*
X81693355Y-138060500D01*
X81849854Y-138060500D01*
X81916893Y-138080185D01*
X81962648Y-138132989D01*
X81972592Y-138202147D01*
X81943567Y-138265703D01*
X81942004Y-138267472D01*
X81817466Y-138405785D01*
X81722821Y-138569715D01*
X81722818Y-138569722D01*
X81664327Y-138749740D01*
X81664326Y-138749744D01*
X81644540Y-138938000D01*
X81664326Y-139126256D01*
X81664327Y-139126259D01*
X81722818Y-139306277D01*
X81722821Y-139306284D01*
X81817467Y-139470216D01*
X81875899Y-139535111D01*
X81944129Y-139610888D01*
X82097265Y-139722148D01*
X82097270Y-139722151D01*
X82270192Y-139799142D01*
X82270197Y-139799144D01*
X82455354Y-139838500D01*
X82455355Y-139838500D01*
X82644644Y-139838500D01*
X82644646Y-139838500D01*
X82829803Y-139799144D01*
X83002730Y-139722151D01*
X83155871Y-139610888D01*
X83282533Y-139470216D01*
X83296514Y-139446000D01*
X101202540Y-139446000D01*
X101222326Y-139634256D01*
X101222327Y-139634259D01*
X101280818Y-139814277D01*
X101280821Y-139814284D01*
X101375467Y-139978216D01*
X101456559Y-140068277D01*
X101506478Y-140123718D01*
X101504633Y-140125378D01*
X101535413Y-140175374D01*
X101534061Y-140245230D01*
X101504796Y-140290767D01*
X101506478Y-140292282D01*
X101375466Y-140437785D01*
X101280821Y-140601715D01*
X101280818Y-140601722D01*
X101250884Y-140693851D01*
X101222326Y-140781744D01*
X101202540Y-140970000D01*
X101222326Y-141158256D01*
X101222327Y-141158259D01*
X101280818Y-141338277D01*
X101280821Y-141338284D01*
X101375467Y-141502216D01*
X101502129Y-141642888D01*
X101655265Y-141754148D01*
X101655270Y-141754151D01*
X101828192Y-141831142D01*
X101828197Y-141831144D01*
X102013354Y-141870500D01*
X102013355Y-141870500D01*
X102202644Y-141870500D01*
X102202646Y-141870500D01*
X102387803Y-141831144D01*
X102560730Y-141754151D01*
X102713871Y-141642888D01*
X102840533Y-141502216D01*
X102935179Y-141338284D01*
X102993674Y-141158256D01*
X103013460Y-140970000D01*
X102993674Y-140781744D01*
X102935179Y-140601716D01*
X102840533Y-140437784D01*
X102713871Y-140297112D01*
X102713870Y-140297111D01*
X102709522Y-140292282D01*
X102711372Y-140290616D01*
X102680597Y-140240667D01*
X102681925Y-140170810D01*
X102711211Y-140125239D01*
X102709522Y-140123718D01*
X102724811Y-140106738D01*
X102840533Y-139978216D01*
X102935179Y-139814284D01*
X102993674Y-139634256D01*
X103013460Y-139446000D01*
X102993674Y-139257744D01*
X102935179Y-139077716D01*
X102854514Y-138938000D01*
X106282540Y-138938000D01*
X106302326Y-139126256D01*
X106302327Y-139126259D01*
X106360818Y-139306277D01*
X106360821Y-139306284D01*
X106455467Y-139470216D01*
X106513899Y-139535111D01*
X106582129Y-139610888D01*
X106735265Y-139722148D01*
X106735270Y-139722151D01*
X106908192Y-139799142D01*
X106908197Y-139799144D01*
X107093354Y-139838500D01*
X107093355Y-139838500D01*
X107282644Y-139838500D01*
X107282646Y-139838500D01*
X107467803Y-139799144D01*
X107640730Y-139722151D01*
X107671218Y-139700000D01*
X108314540Y-139700000D01*
X108334326Y-139888256D01*
X108334327Y-139888259D01*
X108392818Y-140068277D01*
X108392821Y-140068284D01*
X108487467Y-140232216D01*
X108594063Y-140350602D01*
X108614129Y-140372888D01*
X108767265Y-140484148D01*
X108767270Y-140484151D01*
X108940192Y-140561142D01*
X108940197Y-140561144D01*
X109125354Y-140600500D01*
X109125355Y-140600500D01*
X109314644Y-140600500D01*
X109314646Y-140600500D01*
X109499803Y-140561144D01*
X109672730Y-140484151D01*
X109825871Y-140372888D01*
X109952533Y-140232216D01*
X109966514Y-140208000D01*
X110346540Y-140208000D01*
X110366326Y-140396256D01*
X110366327Y-140396259D01*
X110424818Y-140576277D01*
X110424821Y-140576284D01*
X110519467Y-140740216D01*
X110571200Y-140797671D01*
X110646129Y-140880888D01*
X110799265Y-140992148D01*
X110799270Y-140992151D01*
X110972192Y-141069142D01*
X110972197Y-141069144D01*
X111157354Y-141108500D01*
X111157355Y-141108500D01*
X111346644Y-141108500D01*
X111346646Y-141108500D01*
X111531803Y-141069144D01*
X111704730Y-140992151D01*
X111857871Y-140880888D01*
X111984533Y-140740216D01*
X112079179Y-140576284D01*
X112137674Y-140396256D01*
X112157460Y-140208000D01*
X112137674Y-140019744D01*
X112079179Y-139839716D01*
X111984533Y-139675784D01*
X111857871Y-139535112D01*
X111825708Y-139511744D01*
X111704734Y-139423851D01*
X111704729Y-139423848D01*
X111531807Y-139346857D01*
X111531802Y-139346855D01*
X111386001Y-139315865D01*
X111346646Y-139307500D01*
X111157354Y-139307500D01*
X111124897Y-139314398D01*
X110972197Y-139346855D01*
X110972192Y-139346857D01*
X110799270Y-139423848D01*
X110799265Y-139423851D01*
X110646129Y-139535111D01*
X110519466Y-139675785D01*
X110424821Y-139839715D01*
X110424818Y-139839722D01*
X110379820Y-139978214D01*
X110366326Y-140019744D01*
X110346540Y-140208000D01*
X109966514Y-140208000D01*
X110047179Y-140068284D01*
X110105674Y-139888256D01*
X110125460Y-139700000D01*
X110105674Y-139511744D01*
X110047179Y-139331716D01*
X109952533Y-139167784D01*
X109825871Y-139027112D01*
X109749453Y-138971591D01*
X109672734Y-138915851D01*
X109672729Y-138915848D01*
X109499807Y-138838857D01*
X109499802Y-138838855D01*
X109354001Y-138807865D01*
X109314646Y-138799500D01*
X109125354Y-138799500D01*
X109092897Y-138806398D01*
X108940197Y-138838855D01*
X108940192Y-138838857D01*
X108767270Y-138915848D01*
X108767265Y-138915851D01*
X108614129Y-139027111D01*
X108487466Y-139167785D01*
X108392821Y-139331715D01*
X108392818Y-139331722D01*
X108347820Y-139470214D01*
X108334326Y-139511744D01*
X108314540Y-139700000D01*
X107671218Y-139700000D01*
X107793871Y-139610888D01*
X107920533Y-139470216D01*
X108015179Y-139306284D01*
X108073674Y-139126256D01*
X108093460Y-138938000D01*
X108073674Y-138749744D01*
X108070506Y-138739995D01*
X122755233Y-138739995D01*
X122755233Y-138740004D01*
X122774273Y-138994079D01*
X122830968Y-139242477D01*
X122830973Y-139242494D01*
X122924058Y-139479671D01*
X122924057Y-139479671D01*
X123051454Y-139700327D01*
X123051461Y-139700338D01*
X123093452Y-139752991D01*
X123093453Y-139752992D01*
X123895387Y-138951058D01*
X123900889Y-138971591D01*
X123979881Y-139108408D01*
X124091592Y-139220119D01*
X124228409Y-139299111D01*
X124248940Y-139304612D01*
X123446813Y-140106738D01*
X123607616Y-140216371D01*
X123607624Y-140216376D01*
X123789123Y-140303780D01*
X123840983Y-140350602D01*
X123859296Y-140418029D01*
X123838249Y-140484653D01*
X123784522Y-140529321D01*
X123735322Y-140539500D01*
X123212129Y-140539500D01*
X123212123Y-140539501D01*
X123152516Y-140545908D01*
X123017671Y-140596202D01*
X123017664Y-140596206D01*
X122902455Y-140682452D01*
X122902452Y-140682455D01*
X122816206Y-140797664D01*
X122816202Y-140797671D01*
X122765908Y-140932517D01*
X122764482Y-140945785D01*
X122759501Y-140992123D01*
X122759500Y-140992135D01*
X122759500Y-143487870D01*
X122759501Y-143487876D01*
X122765908Y-143547483D01*
X122816202Y-143682328D01*
X122816206Y-143682335D01*
X122902452Y-143797544D01*
X122902455Y-143797547D01*
X123017664Y-143883793D01*
X123017671Y-143883797D01*
X123152517Y-143934091D01*
X123152516Y-143934091D01*
X123159444Y-143934835D01*
X123212127Y-143940500D01*
X125707872Y-143940499D01*
X125767483Y-143934091D01*
X125902331Y-143883796D01*
X126017546Y-143797546D01*
X126103796Y-143682331D01*
X126154091Y-143547483D01*
X126160500Y-143487873D01*
X126160499Y-140992128D01*
X126154091Y-140932517D01*
X126103796Y-140797669D01*
X126103795Y-140797668D01*
X126103793Y-140797664D01*
X126017547Y-140682455D01*
X126017544Y-140682452D01*
X125902335Y-140596206D01*
X125902328Y-140596202D01*
X125767482Y-140545908D01*
X125767483Y-140545908D01*
X125707883Y-140539501D01*
X125707881Y-140539500D01*
X125707873Y-140539500D01*
X125707865Y-140539500D01*
X125184679Y-140539500D01*
X125117640Y-140519815D01*
X125071885Y-140467011D01*
X125061941Y-140397853D01*
X125090966Y-140334297D01*
X125130878Y-140303780D01*
X125312376Y-140216376D01*
X125312377Y-140216375D01*
X125473185Y-140106738D01*
X124671060Y-139304612D01*
X124691591Y-139299111D01*
X124828408Y-139220119D01*
X124940119Y-139108408D01*
X125019111Y-138971591D01*
X125024612Y-138951059D01*
X125826544Y-139752992D01*
X125826546Y-139752991D01*
X125868544Y-139700330D01*
X125995941Y-139479671D01*
X126089026Y-139242494D01*
X126089031Y-139242477D01*
X126145726Y-138994079D01*
X126164767Y-138740004D01*
X126164767Y-138739995D01*
X126145726Y-138485920D01*
X126089031Y-138237522D01*
X126089026Y-138237505D01*
X125995941Y-138000328D01*
X125995942Y-138000328D01*
X125868545Y-137779672D01*
X125826545Y-137727006D01*
X125024612Y-138528939D01*
X125019111Y-138508409D01*
X124940119Y-138371592D01*
X124828408Y-138259881D01*
X124691591Y-138180889D01*
X124671059Y-138175387D01*
X125473185Y-137373260D01*
X125312384Y-137263628D01*
X125312376Y-137263623D01*
X125082823Y-137153078D01*
X125082825Y-137153078D01*
X124839347Y-137077975D01*
X124839341Y-137077973D01*
X124587404Y-137040000D01*
X124332595Y-137040000D01*
X124080658Y-137077973D01*
X124080652Y-137077975D01*
X123837175Y-137153078D01*
X123607622Y-137263625D01*
X123607609Y-137263632D01*
X123446813Y-137373259D01*
X124248941Y-138175387D01*
X124228409Y-138180889D01*
X124091592Y-138259881D01*
X123979881Y-138371592D01*
X123900889Y-138508409D01*
X123895387Y-138528941D01*
X123093452Y-137727006D01*
X123051457Y-137779667D01*
X122924058Y-138000328D01*
X122830973Y-138237505D01*
X122830968Y-138237522D01*
X122774273Y-138485920D01*
X122755233Y-138739995D01*
X108070506Y-138739995D01*
X108067524Y-138730816D01*
X108065530Y-138660975D01*
X108101612Y-138601143D01*
X108164313Y-138570316D01*
X108185456Y-138568500D01*
X108298644Y-138568500D01*
X108298646Y-138568500D01*
X108483803Y-138529144D01*
X108656730Y-138452151D01*
X108809871Y-138340888D01*
X108936533Y-138200216D01*
X109031179Y-138036284D01*
X109089674Y-137856256D01*
X109109460Y-137668000D01*
X109089674Y-137479744D01*
X109031179Y-137299716D01*
X108936533Y-137135784D01*
X108809871Y-136995112D01*
X108777708Y-136971744D01*
X108656734Y-136883851D01*
X108656729Y-136883848D01*
X108483807Y-136806857D01*
X108483802Y-136806855D01*
X108338001Y-136775865D01*
X108298646Y-136767500D01*
X108109354Y-136767500D01*
X108076897Y-136774398D01*
X107924197Y-136806855D01*
X107924192Y-136806857D01*
X107751270Y-136883848D01*
X107751265Y-136883851D01*
X107598129Y-136995111D01*
X107471466Y-137135785D01*
X107376821Y-137299715D01*
X107376818Y-137299722D01*
X107318327Y-137479740D01*
X107318326Y-137479744D01*
X107298540Y-137668000D01*
X107318326Y-137856258D01*
X107324476Y-137875184D01*
X107326470Y-137945025D01*
X107290388Y-138004857D01*
X107227687Y-138035684D01*
X107206544Y-138037500D01*
X107093354Y-138037500D01*
X107060897Y-138044398D01*
X106908197Y-138076855D01*
X106908192Y-138076857D01*
X106735270Y-138153848D01*
X106735265Y-138153851D01*
X106582129Y-138265111D01*
X106455466Y-138405785D01*
X106360821Y-138569715D01*
X106360818Y-138569722D01*
X106302327Y-138749740D01*
X106302326Y-138749744D01*
X106282540Y-138938000D01*
X102854514Y-138938000D01*
X102840533Y-138913784D01*
X102713871Y-138773112D01*
X102681708Y-138749744D01*
X102560734Y-138661851D01*
X102560729Y-138661848D01*
X102387807Y-138584857D01*
X102387802Y-138584855D01*
X102242001Y-138553865D01*
X102202646Y-138545500D01*
X102013354Y-138545500D01*
X101980897Y-138552398D01*
X101828197Y-138584855D01*
X101828192Y-138584857D01*
X101655270Y-138661848D01*
X101655265Y-138661851D01*
X101502129Y-138773111D01*
X101375466Y-138913785D01*
X101280821Y-139077715D01*
X101280818Y-139077722D01*
X101227281Y-139242494D01*
X101222326Y-139257744D01*
X101202540Y-139446000D01*
X83296514Y-139446000D01*
X83377179Y-139306284D01*
X83435674Y-139126256D01*
X83455460Y-138938000D01*
X83435674Y-138749744D01*
X83377179Y-138569716D01*
X83282533Y-138405784D01*
X83155871Y-138265112D01*
X83155870Y-138265111D01*
X83002734Y-138153851D01*
X83002729Y-138153848D01*
X82829807Y-138076857D01*
X82829802Y-138076855D01*
X82684001Y-138045865D01*
X82644646Y-138037500D01*
X82488146Y-138037500D01*
X82421107Y-138017815D01*
X82375352Y-137965011D01*
X82365408Y-137895853D01*
X82394433Y-137832297D01*
X82395996Y-137830528D01*
X82398727Y-137827494D01*
X82520533Y-137692216D01*
X82615179Y-137528284D01*
X82673674Y-137348256D01*
X82693460Y-137160000D01*
X82673674Y-136971744D01*
X82615179Y-136791716D01*
X82520533Y-136627784D01*
X82393871Y-136487112D01*
X82393870Y-136487111D01*
X82240734Y-136375851D01*
X82240729Y-136375848D01*
X82067807Y-136298857D01*
X82067802Y-136298855D01*
X81922001Y-136267865D01*
X81882646Y-136259500D01*
X81693354Y-136259500D01*
X81660897Y-136266398D01*
X81508197Y-136298855D01*
X81508192Y-136298857D01*
X81335270Y-136375848D01*
X81335265Y-136375851D01*
X81182129Y-136487111D01*
X81055466Y-136627785D01*
X80960821Y-136791715D01*
X80960818Y-136791722D01*
X80930884Y-136883851D01*
X80902326Y-136971744D01*
X80882540Y-137160000D01*
X70104000Y-137160000D01*
X70104000Y-129794000D01*
X85708540Y-129794000D01*
X85728326Y-129982256D01*
X85728327Y-129982259D01*
X85786818Y-130162277D01*
X85786821Y-130162284D01*
X85881467Y-130326216D01*
X86008129Y-130466888D01*
X86161270Y-130578151D01*
X86161280Y-130578155D01*
X86166605Y-130581230D01*
X86214824Y-130631794D01*
X86228052Y-130700400D01*
X86227934Y-130701582D01*
X86216540Y-130809999D01*
X86216540Y-130810000D01*
X86236326Y-130998256D01*
X86236327Y-130998259D01*
X86294818Y-131178277D01*
X86294821Y-131178284D01*
X86389467Y-131342216D01*
X86516129Y-131482888D01*
X86669265Y-131594148D01*
X86669270Y-131594151D01*
X86842192Y-131671142D01*
X86842197Y-131671144D01*
X87027354Y-131710500D01*
X87027355Y-131710500D01*
X87216644Y-131710500D01*
X87216646Y-131710500D01*
X87401803Y-131671144D01*
X87574730Y-131594151D01*
X87727871Y-131482888D01*
X87854533Y-131342216D01*
X87949179Y-131178284D01*
X88007674Y-130998256D01*
X88027460Y-130810000D01*
X88007674Y-130621744D01*
X87949179Y-130441716D01*
X87854533Y-130277784D01*
X87727871Y-130137112D01*
X87727870Y-130137111D01*
X87574731Y-130025849D01*
X87569384Y-130022762D01*
X87521169Y-129972194D01*
X87507948Y-129903586D01*
X87508065Y-129902415D01*
X87519460Y-129794000D01*
X96630540Y-129794000D01*
X96650326Y-129982256D01*
X96650327Y-129982259D01*
X96708818Y-130162277D01*
X96708821Y-130162284D01*
X96803467Y-130326216D01*
X96930129Y-130466888D01*
X97083265Y-130578148D01*
X97083270Y-130578151D01*
X97256192Y-130655142D01*
X97256197Y-130655144D01*
X97441354Y-130694500D01*
X97441355Y-130694500D01*
X97630644Y-130694500D01*
X97630646Y-130694500D01*
X97815803Y-130655144D01*
X97988730Y-130578151D01*
X98023908Y-130552593D01*
X98089714Y-130529112D01*
X98157768Y-130544937D01*
X98206463Y-130595042D01*
X98214725Y-130614591D01*
X98232819Y-130670280D01*
X98232821Y-130670284D01*
X98327467Y-130834216D01*
X98454129Y-130974888D01*
X98607265Y-131086148D01*
X98607270Y-131086151D01*
X98780192Y-131163142D01*
X98780197Y-131163144D01*
X98965354Y-131202500D01*
X98965355Y-131202500D01*
X99154644Y-131202500D01*
X99154646Y-131202500D01*
X99339803Y-131163144D01*
X99512730Y-131086151D01*
X99665871Y-130974888D01*
X99792533Y-130834216D01*
X99887179Y-130670284D01*
X99945674Y-130490256D01*
X99965460Y-130302000D01*
X99945674Y-130113744D01*
X99887179Y-129933716D01*
X99792533Y-129769784D01*
X99665871Y-129629112D01*
X99633708Y-129605744D01*
X99512734Y-129517851D01*
X99512729Y-129517848D01*
X99339807Y-129440857D01*
X99339802Y-129440855D01*
X99194001Y-129409865D01*
X99154646Y-129401500D01*
X98965354Y-129401500D01*
X98932897Y-129408398D01*
X98780197Y-129440855D01*
X98780192Y-129440857D01*
X98607270Y-129517848D01*
X98607268Y-129517850D01*
X98572088Y-129543409D01*
X98506282Y-129566887D01*
X98438228Y-129551060D01*
X98389534Y-129500954D01*
X98381274Y-129481406D01*
X98363182Y-129425724D01*
X98363180Y-129425720D01*
X98363179Y-129425716D01*
X98268533Y-129261784D01*
X98141871Y-129121112D01*
X98141870Y-129121111D01*
X98019219Y-129032000D01*
X101964540Y-129032000D01*
X101984326Y-129220256D01*
X101984327Y-129220259D01*
X102042818Y-129400277D01*
X102042821Y-129400284D01*
X102137467Y-129564216D01*
X102195899Y-129629111D01*
X102264129Y-129704888D01*
X102417265Y-129816148D01*
X102417270Y-129816151D01*
X102590192Y-129893142D01*
X102590197Y-129893144D01*
X102775354Y-129932500D01*
X102775355Y-129932500D01*
X102964644Y-129932500D01*
X102964646Y-129932500D01*
X103149803Y-129893144D01*
X103322730Y-129816151D01*
X103475871Y-129704888D01*
X103602533Y-129564216D01*
X103697179Y-129400284D01*
X103755674Y-129220256D01*
X103775460Y-129032000D01*
X103755674Y-128843744D01*
X103697179Y-128663716D01*
X103602533Y-128499784D01*
X103475871Y-128359112D01*
X103464699Y-128350995D01*
X103353219Y-128270000D01*
X108314540Y-128270000D01*
X108334326Y-128458256D01*
X108334327Y-128458259D01*
X108392818Y-128638277D01*
X108392821Y-128638284D01*
X108487467Y-128802216D01*
X108578011Y-128902775D01*
X108614129Y-128942888D01*
X108767265Y-129054148D01*
X108767270Y-129054151D01*
X108940192Y-129131142D01*
X108940197Y-129131144D01*
X109125354Y-129170500D01*
X109125355Y-129170500D01*
X109314644Y-129170500D01*
X109314646Y-129170500D01*
X109499803Y-129131144D01*
X109672730Y-129054151D01*
X109825871Y-128942888D01*
X109939645Y-128816530D01*
X125429500Y-128816530D01*
X125429500Y-129023469D01*
X125469868Y-129226412D01*
X125469870Y-129226420D01*
X125549059Y-129417598D01*
X125564600Y-129440857D01*
X125664024Y-129589657D01*
X125810342Y-129735975D01*
X125810345Y-129735977D01*
X125982402Y-129850941D01*
X126173580Y-129930130D01*
X126376530Y-129970499D01*
X126376534Y-129970500D01*
X126376535Y-129970500D01*
X126983466Y-129970500D01*
X126983467Y-129970499D01*
X127186420Y-129930130D01*
X127377598Y-129850941D01*
X127549655Y-129735977D01*
X127695977Y-129589655D01*
X127810941Y-129417598D01*
X127890130Y-129226420D01*
X127907820Y-129137486D01*
X128329500Y-129137486D01*
X128329500Y-129322513D01*
X128358445Y-129505265D01*
X128415619Y-129681232D01*
X128415620Y-129681235D01*
X128484363Y-129816148D01*
X128499622Y-129846096D01*
X128608379Y-129995787D01*
X128739213Y-130126621D01*
X128888904Y-130235378D01*
X128969763Y-130276577D01*
X129053764Y-130319379D01*
X129053767Y-130319380D01*
X129141750Y-130347967D01*
X129229736Y-130376555D01*
X129412486Y-130405500D01*
X129412487Y-130405500D01*
X129947513Y-130405500D01*
X129947514Y-130405500D01*
X130130264Y-130376555D01*
X130306235Y-130319379D01*
X130471096Y-130235378D01*
X130620787Y-130126621D01*
X130751621Y-129995787D01*
X130860378Y-129846096D01*
X130944379Y-129681235D01*
X131001555Y-129505264D01*
X131030500Y-129322514D01*
X131030500Y-129137486D01*
X131001555Y-128954736D01*
X130965492Y-128843744D01*
X130944380Y-128778767D01*
X130944379Y-128778764D01*
X130901577Y-128694763D01*
X130860378Y-128613904D01*
X130751621Y-128464213D01*
X130620787Y-128333379D01*
X130471096Y-128224622D01*
X130306235Y-128140620D01*
X130306232Y-128140619D01*
X130130265Y-128083445D01*
X130038889Y-128068972D01*
X129947514Y-128054500D01*
X129412486Y-128054500D01*
X129351569Y-128064148D01*
X129229734Y-128083445D01*
X129053767Y-128140619D01*
X129053764Y-128140620D01*
X128888903Y-128224622D01*
X128803499Y-128286672D01*
X128739213Y-128333379D01*
X128739211Y-128333381D01*
X128739210Y-128333381D01*
X128608381Y-128464210D01*
X128608381Y-128464211D01*
X128608379Y-128464213D01*
X128561672Y-128528499D01*
X128499622Y-128613903D01*
X128415620Y-128778764D01*
X128415619Y-128778767D01*
X128358445Y-128954734D01*
X128329500Y-129137486D01*
X127907820Y-129137486D01*
X127930500Y-129023465D01*
X127930500Y-128816535D01*
X127890130Y-128613580D01*
X127810941Y-128422402D01*
X127695977Y-128250345D01*
X127695975Y-128250342D01*
X127549657Y-128104024D01*
X127463626Y-128046541D01*
X127377598Y-127989059D01*
X127186420Y-127909870D01*
X127186412Y-127909868D01*
X126983469Y-127869500D01*
X126983465Y-127869500D01*
X126376535Y-127869500D01*
X126376530Y-127869500D01*
X126173587Y-127909868D01*
X126173579Y-127909870D01*
X125982403Y-127989058D01*
X125810342Y-128104024D01*
X125664024Y-128250342D01*
X125549058Y-128422403D01*
X125469870Y-128613579D01*
X125469868Y-128613587D01*
X125429500Y-128816530D01*
X109939645Y-128816530D01*
X109952533Y-128802216D01*
X110047179Y-128638284D01*
X110105674Y-128458256D01*
X110125460Y-128270000D01*
X110105674Y-128081744D01*
X110047179Y-127901716D01*
X109952533Y-127737784D01*
X109825871Y-127597112D01*
X109825870Y-127597111D01*
X109825869Y-127597110D01*
X109822263Y-127593863D01*
X109785615Y-127534376D01*
X109786946Y-127464519D01*
X109825833Y-127406471D01*
X109879449Y-127380426D01*
X110007803Y-127353144D01*
X110007807Y-127353142D01*
X110007808Y-127353142D01*
X110132827Y-127297479D01*
X110180730Y-127276151D01*
X110333871Y-127164888D01*
X110460533Y-127024216D01*
X110555179Y-126860284D01*
X110613674Y-126680256D01*
X110633460Y-126492000D01*
X110613674Y-126303744D01*
X110555179Y-126123716D01*
X110460533Y-125959784D01*
X110333871Y-125819112D01*
X110301708Y-125795744D01*
X110180734Y-125707851D01*
X110180729Y-125707848D01*
X110007807Y-125630857D01*
X110007802Y-125630855D01*
X109862001Y-125599865D01*
X109822646Y-125591500D01*
X109633354Y-125591500D01*
X109600897Y-125598398D01*
X109448197Y-125630855D01*
X109448192Y-125630857D01*
X109275270Y-125707848D01*
X109275265Y-125707851D01*
X109122129Y-125819111D01*
X108995466Y-125959785D01*
X108900821Y-126123715D01*
X108900818Y-126123722D01*
X108842327Y-126303740D01*
X108842326Y-126303744D01*
X108822540Y-126492000D01*
X108842326Y-126680256D01*
X108842327Y-126680259D01*
X108900818Y-126860277D01*
X108900821Y-126860284D01*
X108995467Y-127024216D01*
X109122129Y-127164888D01*
X109122130Y-127164889D01*
X109125736Y-127168136D01*
X109162384Y-127227622D01*
X109161053Y-127297479D01*
X109122166Y-127355527D01*
X109068544Y-127381575D01*
X108940197Y-127408855D01*
X108940192Y-127408857D01*
X108767270Y-127485848D01*
X108767265Y-127485851D01*
X108614129Y-127597111D01*
X108487466Y-127737785D01*
X108392821Y-127901715D01*
X108392818Y-127901722D01*
X108335649Y-128077672D01*
X108334326Y-128081744D01*
X108314540Y-128270000D01*
X103353219Y-128270000D01*
X103322734Y-128247851D01*
X103322729Y-128247848D01*
X103149807Y-128170857D01*
X103149802Y-128170855D01*
X103004001Y-128139865D01*
X102964646Y-128131500D01*
X102775354Y-128131500D01*
X102742897Y-128138398D01*
X102590197Y-128170855D01*
X102590192Y-128170857D01*
X102417270Y-128247848D01*
X102417265Y-128247851D01*
X102264129Y-128359111D01*
X102137466Y-128499785D01*
X102042821Y-128663715D01*
X102042818Y-128663722D01*
X101990055Y-128826111D01*
X101984326Y-128843744D01*
X101964540Y-129032000D01*
X98019219Y-129032000D01*
X97988734Y-129009851D01*
X97988729Y-129009848D01*
X97815807Y-128932857D01*
X97815802Y-128932855D01*
X97670001Y-128901865D01*
X97630646Y-128893500D01*
X97441354Y-128893500D01*
X97408897Y-128900398D01*
X97256197Y-128932855D01*
X97256192Y-128932857D01*
X97083270Y-129009848D01*
X97083265Y-129009851D01*
X96930129Y-129121111D01*
X96803466Y-129261785D01*
X96708821Y-129425715D01*
X96708818Y-129425722D01*
X96655553Y-129589657D01*
X96650326Y-129605744D01*
X96630540Y-129794000D01*
X87519460Y-129794000D01*
X87499674Y-129605744D01*
X87441179Y-129425716D01*
X87346533Y-129261784D01*
X87219871Y-129121112D01*
X87219870Y-129121111D01*
X87066734Y-129009851D01*
X87066729Y-129009848D01*
X86893807Y-128932857D01*
X86893802Y-128932855D01*
X86748001Y-128901865D01*
X86708646Y-128893500D01*
X86519354Y-128893500D01*
X86486897Y-128900398D01*
X86334197Y-128932855D01*
X86334192Y-128932857D01*
X86161270Y-129009848D01*
X86161265Y-129009851D01*
X86008129Y-129121111D01*
X85881466Y-129261785D01*
X85786821Y-129425715D01*
X85786818Y-129425722D01*
X85733553Y-129589657D01*
X85728326Y-129605744D01*
X85708540Y-129794000D01*
X70104000Y-129794000D01*
X70104000Y-128350995D01*
X75263499Y-128350995D01*
X75290418Y-128486322D01*
X75290421Y-128486332D01*
X75343221Y-128613804D01*
X75343228Y-128613817D01*
X75419885Y-128728541D01*
X75419888Y-128728545D01*
X75517454Y-128826111D01*
X75517458Y-128826114D01*
X75632182Y-128902771D01*
X75632195Y-128902778D01*
X75757634Y-128954736D01*
X75759672Y-128955580D01*
X75759676Y-128955580D01*
X75759677Y-128955581D01*
X75895004Y-128982500D01*
X75895007Y-128982500D01*
X76032995Y-128982500D01*
X76124041Y-128964389D01*
X76168328Y-128955580D01*
X76295811Y-128902775D01*
X76410542Y-128826114D01*
X76508114Y-128728542D01*
X76584775Y-128613811D01*
X76637580Y-128486328D01*
X76662885Y-128359112D01*
X76664500Y-128350995D01*
X76664500Y-128213004D01*
X76637581Y-128077677D01*
X76637580Y-128077676D01*
X76637580Y-128077672D01*
X76627982Y-128054500D01*
X76584778Y-127950195D01*
X76584771Y-127950182D01*
X76508114Y-127835458D01*
X76508111Y-127835454D01*
X76410545Y-127737888D01*
X76410541Y-127737885D01*
X76295817Y-127661228D01*
X76295804Y-127661221D01*
X76168332Y-127608421D01*
X76168322Y-127608418D01*
X76032995Y-127581500D01*
X76032993Y-127581500D01*
X75895007Y-127581500D01*
X75895005Y-127581500D01*
X75759677Y-127608418D01*
X75759667Y-127608421D01*
X75632195Y-127661221D01*
X75632182Y-127661228D01*
X75517458Y-127737885D01*
X75517454Y-127737888D01*
X75419888Y-127835454D01*
X75419885Y-127835458D01*
X75343228Y-127950182D01*
X75343221Y-127950195D01*
X75290421Y-128077667D01*
X75290418Y-128077677D01*
X75263500Y-128213004D01*
X75263500Y-128213007D01*
X75263500Y-128350993D01*
X75263500Y-128350995D01*
X75263499Y-128350995D01*
X70104000Y-128350995D01*
X70104000Y-125984000D01*
X88248540Y-125984000D01*
X88268326Y-126172256D01*
X88268327Y-126172259D01*
X88326818Y-126352277D01*
X88326821Y-126352284D01*
X88421467Y-126516216D01*
X88548129Y-126656888D01*
X88701265Y-126768148D01*
X88701270Y-126768151D01*
X88874192Y-126845142D01*
X88874197Y-126845144D01*
X89059354Y-126884500D01*
X89059355Y-126884500D01*
X89248644Y-126884500D01*
X89248646Y-126884500D01*
X89433803Y-126845144D01*
X89606730Y-126768151D01*
X89759871Y-126656888D01*
X89886533Y-126516216D01*
X89981179Y-126352284D01*
X90039674Y-126172256D01*
X90059460Y-125984000D01*
X90039674Y-125795744D01*
X89981179Y-125615716D01*
X89886533Y-125451784D01*
X89759871Y-125311112D01*
X89759870Y-125311111D01*
X89637219Y-125222000D01*
X112632540Y-125222000D01*
X112652326Y-125410256D01*
X112652327Y-125410259D01*
X112710818Y-125590277D01*
X112710821Y-125590284D01*
X112805467Y-125754216D01*
X112872931Y-125829142D01*
X112932129Y-125894888D01*
X113085265Y-126006148D01*
X113085270Y-126006151D01*
X113258192Y-126083142D01*
X113258197Y-126083144D01*
X113443354Y-126122500D01*
X113443355Y-126122500D01*
X113632644Y-126122500D01*
X113632646Y-126122500D01*
X113817803Y-126083144D01*
X113990730Y-126006151D01*
X114143871Y-125894888D01*
X114270533Y-125754216D01*
X114365179Y-125590284D01*
X114423674Y-125410256D01*
X114443460Y-125222000D01*
X114423674Y-125033744D01*
X114365179Y-124853716D01*
X114270533Y-124689784D01*
X114143871Y-124549112D01*
X114143870Y-124549111D01*
X113990734Y-124437851D01*
X113990729Y-124437848D01*
X113817807Y-124360857D01*
X113817802Y-124360855D01*
X113672001Y-124329865D01*
X113632646Y-124321500D01*
X113443354Y-124321500D01*
X113410897Y-124328398D01*
X113258197Y-124360855D01*
X113258192Y-124360857D01*
X113085270Y-124437848D01*
X113085265Y-124437851D01*
X112932129Y-124549111D01*
X112805466Y-124689785D01*
X112710821Y-124853715D01*
X112710818Y-124853722D01*
X112659735Y-125010941D01*
X112652326Y-125033744D01*
X112632540Y-125222000D01*
X89637219Y-125222000D01*
X89606734Y-125199851D01*
X89606729Y-125199848D01*
X89433807Y-125122857D01*
X89433802Y-125122855D01*
X89288001Y-125091865D01*
X89248646Y-125083500D01*
X89059354Y-125083500D01*
X89028167Y-125090129D01*
X88874197Y-125122855D01*
X88874192Y-125122857D01*
X88701270Y-125199848D01*
X88701265Y-125199851D01*
X88548129Y-125311111D01*
X88421466Y-125451785D01*
X88326821Y-125615715D01*
X88326818Y-125615722D01*
X88290161Y-125728542D01*
X88268326Y-125795744D01*
X88248540Y-125984000D01*
X70104000Y-125984000D01*
X70104000Y-125350995D01*
X75263499Y-125350995D01*
X75290418Y-125486322D01*
X75290421Y-125486332D01*
X75343221Y-125613804D01*
X75343228Y-125613817D01*
X75419885Y-125728541D01*
X75419888Y-125728545D01*
X75517454Y-125826111D01*
X75517458Y-125826114D01*
X75632182Y-125902771D01*
X75632195Y-125902778D01*
X75759667Y-125955578D01*
X75759672Y-125955580D01*
X75759676Y-125955580D01*
X75759677Y-125955581D01*
X75895004Y-125982500D01*
X75895007Y-125982500D01*
X76032995Y-125982500D01*
X76147193Y-125959784D01*
X76168328Y-125955580D01*
X76295811Y-125902775D01*
X76410542Y-125826114D01*
X76508114Y-125728542D01*
X76584775Y-125613811D01*
X76594017Y-125591500D01*
X76637578Y-125486332D01*
X76637580Y-125486328D01*
X76664500Y-125350993D01*
X76664500Y-125213007D01*
X76664500Y-125213004D01*
X76637581Y-125077677D01*
X76637580Y-125077676D01*
X76637580Y-125077672D01*
X76637578Y-125077667D01*
X76592153Y-124968000D01*
X78088540Y-124968000D01*
X78108326Y-125156256D01*
X78108327Y-125156259D01*
X78166818Y-125336277D01*
X78166821Y-125336284D01*
X78261467Y-125500216D01*
X78379095Y-125630855D01*
X78388129Y-125640888D01*
X78541265Y-125752148D01*
X78541270Y-125752151D01*
X78714192Y-125829142D01*
X78714197Y-125829144D01*
X78899354Y-125868500D01*
X78899355Y-125868500D01*
X79088644Y-125868500D01*
X79088646Y-125868500D01*
X79273803Y-125829144D01*
X79446730Y-125752151D01*
X79599871Y-125640888D01*
X79726533Y-125500216D01*
X79821179Y-125336284D01*
X79879674Y-125156256D01*
X79899460Y-124968000D01*
X79879674Y-124779744D01*
X79821179Y-124599716D01*
X79726533Y-124435784D01*
X79599871Y-124295112D01*
X79599870Y-124295111D01*
X79446734Y-124183851D01*
X79446729Y-124183848D01*
X79273807Y-124106857D01*
X79273802Y-124106855D01*
X79128001Y-124075865D01*
X79088646Y-124067500D01*
X78899354Y-124067500D01*
X78866897Y-124074398D01*
X78714197Y-124106855D01*
X78714192Y-124106857D01*
X78541270Y-124183848D01*
X78541265Y-124183851D01*
X78388129Y-124295111D01*
X78261466Y-124435785D01*
X78166821Y-124599715D01*
X78166818Y-124599722D01*
X78108327Y-124779740D01*
X78108326Y-124779744D01*
X78088540Y-124968000D01*
X76592153Y-124968000D01*
X76584778Y-124950195D01*
X76584771Y-124950182D01*
X76508114Y-124835458D01*
X76508111Y-124835454D01*
X76410545Y-124737888D01*
X76410541Y-124737885D01*
X76295817Y-124661228D01*
X76295804Y-124661221D01*
X76168332Y-124608421D01*
X76168322Y-124608418D01*
X76032995Y-124581500D01*
X76032993Y-124581500D01*
X75895007Y-124581500D01*
X75895005Y-124581500D01*
X75759677Y-124608418D01*
X75759667Y-124608421D01*
X75632195Y-124661221D01*
X75632182Y-124661228D01*
X75517458Y-124737885D01*
X75517454Y-124737888D01*
X75419888Y-124835454D01*
X75419885Y-124835458D01*
X75343228Y-124950182D01*
X75343221Y-124950195D01*
X75290421Y-125077667D01*
X75290418Y-125077677D01*
X75263500Y-125213004D01*
X75263500Y-125213007D01*
X75263500Y-125350993D01*
X75263500Y-125350995D01*
X75263499Y-125350995D01*
X70104000Y-125350995D01*
X70104000Y-122174000D01*
X92058540Y-122174000D01*
X92078326Y-122362256D01*
X92078327Y-122362259D01*
X92136818Y-122542277D01*
X92136821Y-122542284D01*
X92231467Y-122706216D01*
X92312559Y-122796277D01*
X92358129Y-122846888D01*
X92511265Y-122958148D01*
X92511270Y-122958151D01*
X92684192Y-123035142D01*
X92684197Y-123035144D01*
X92869354Y-123074500D01*
X92869355Y-123074500D01*
X93058644Y-123074500D01*
X93058646Y-123074500D01*
X93243803Y-123035144D01*
X93416730Y-122958151D01*
X93569871Y-122846888D01*
X93696533Y-122706216D01*
X93791179Y-122542284D01*
X93828312Y-122428000D01*
X96630540Y-122428000D01*
X96650326Y-122616256D01*
X96650327Y-122616259D01*
X96708818Y-122796277D01*
X96708821Y-122796284D01*
X96803467Y-122960216D01*
X96902200Y-123069870D01*
X96934478Y-123105718D01*
X96932633Y-123107378D01*
X96963413Y-123157374D01*
X96962061Y-123227230D01*
X96932796Y-123272767D01*
X96934478Y-123274282D01*
X96803466Y-123419785D01*
X96708821Y-123583715D01*
X96708818Y-123583722D01*
X96650327Y-123763740D01*
X96650326Y-123763744D01*
X96630540Y-123952000D01*
X96650326Y-124140256D01*
X96650327Y-124140259D01*
X96708818Y-124320277D01*
X96708821Y-124320284D01*
X96803467Y-124484216D01*
X96915299Y-124608418D01*
X96930129Y-124624888D01*
X97083265Y-124736148D01*
X97083270Y-124736151D01*
X97256192Y-124813142D01*
X97256197Y-124813144D01*
X97441354Y-124852500D01*
X97441355Y-124852500D01*
X97630644Y-124852500D01*
X97630646Y-124852500D01*
X97815803Y-124813144D01*
X97988730Y-124736151D01*
X98141871Y-124624888D01*
X98268533Y-124484216D01*
X98363179Y-124320284D01*
X98421674Y-124140256D01*
X98438882Y-123976530D01*
X125429500Y-123976530D01*
X125429500Y-124183469D01*
X125469868Y-124386412D01*
X125469870Y-124386420D01*
X125537259Y-124549112D01*
X125549059Y-124577598D01*
X125569654Y-124608421D01*
X125664024Y-124749657D01*
X125810342Y-124895975D01*
X125810345Y-124895977D01*
X125982402Y-125010941D01*
X126173580Y-125090130D01*
X126338101Y-125122855D01*
X126376530Y-125130499D01*
X126376534Y-125130500D01*
X126376535Y-125130500D01*
X126983466Y-125130500D01*
X126983467Y-125130499D01*
X127186420Y-125090130D01*
X127377598Y-125010941D01*
X127549655Y-124895977D01*
X127695977Y-124749655D01*
X127810941Y-124577598D01*
X127890130Y-124386420D01*
X127930500Y-124183465D01*
X127930500Y-123976535D01*
X127890130Y-123773580D01*
X127850326Y-123677486D01*
X128329500Y-123677486D01*
X128329500Y-123862513D01*
X128358445Y-124045265D01*
X128415619Y-124221232D01*
X128415620Y-124221235D01*
X128486762Y-124360857D01*
X128499622Y-124386096D01*
X128608379Y-124535787D01*
X128739213Y-124666621D01*
X128888904Y-124775378D01*
X128963020Y-124813142D01*
X129053764Y-124859379D01*
X129053767Y-124859380D01*
X129141750Y-124887967D01*
X129229736Y-124916555D01*
X129412486Y-124945500D01*
X129412487Y-124945500D01*
X129947513Y-124945500D01*
X129947514Y-124945500D01*
X130130264Y-124916555D01*
X130306235Y-124859379D01*
X130471096Y-124775378D01*
X130620787Y-124666621D01*
X130751621Y-124535787D01*
X130860378Y-124386096D01*
X130944379Y-124221235D01*
X131001555Y-124045264D01*
X131030500Y-123862514D01*
X131030500Y-123677486D01*
X131001555Y-123494736D01*
X130944379Y-123318765D01*
X130944379Y-123318764D01*
X130901577Y-123234763D01*
X130860378Y-123153904D01*
X130751621Y-123004213D01*
X130620787Y-122873379D01*
X130471096Y-122764622D01*
X130306235Y-122680620D01*
X130306232Y-122680619D01*
X130130265Y-122623445D01*
X130038889Y-122608972D01*
X129947514Y-122594500D01*
X129412486Y-122594500D01*
X129351569Y-122604148D01*
X129229734Y-122623445D01*
X129053767Y-122680619D01*
X129053764Y-122680620D01*
X128888903Y-122764622D01*
X128845325Y-122796284D01*
X128739213Y-122873379D01*
X128739211Y-122873381D01*
X128739210Y-122873381D01*
X128608381Y-123004210D01*
X128608381Y-123004211D01*
X128608379Y-123004213D01*
X128561672Y-123068499D01*
X128499622Y-123153903D01*
X128415620Y-123318764D01*
X128415619Y-123318767D01*
X128358445Y-123494734D01*
X128329500Y-123677486D01*
X127850326Y-123677486D01*
X127810941Y-123582402D01*
X127695977Y-123410345D01*
X127695975Y-123410342D01*
X127549657Y-123264024D01*
X127384849Y-123153904D01*
X127377598Y-123149059D01*
X127186420Y-123069870D01*
X127186412Y-123069868D01*
X126983469Y-123029500D01*
X126983465Y-123029500D01*
X126376535Y-123029500D01*
X126376530Y-123029500D01*
X126173587Y-123069868D01*
X126173579Y-123069870D01*
X125982403Y-123149058D01*
X125810342Y-123264024D01*
X125664024Y-123410342D01*
X125549058Y-123582403D01*
X125469870Y-123773579D01*
X125469868Y-123773587D01*
X125429500Y-123976530D01*
X98438882Y-123976530D01*
X98441460Y-123952000D01*
X98421674Y-123763744D01*
X98363179Y-123583716D01*
X98268533Y-123419784D01*
X98141871Y-123279112D01*
X98141870Y-123279111D01*
X98137522Y-123274282D01*
X98139372Y-123272616D01*
X98108597Y-123222667D01*
X98109925Y-123152810D01*
X98139211Y-123107239D01*
X98137522Y-123105718D01*
X98165631Y-123074500D01*
X98268533Y-122960216D01*
X98363179Y-122796284D01*
X98421674Y-122616256D01*
X98441460Y-122428000D01*
X98421674Y-122239744D01*
X98363179Y-122059716D01*
X98268533Y-121895784D01*
X98141871Y-121755112D01*
X98141870Y-121755111D01*
X97988734Y-121643851D01*
X97988729Y-121643848D01*
X97815807Y-121566857D01*
X97815802Y-121566855D01*
X97670001Y-121535865D01*
X97630646Y-121527500D01*
X97441354Y-121527500D01*
X97408897Y-121534398D01*
X97256197Y-121566855D01*
X97256192Y-121566857D01*
X97083270Y-121643848D01*
X97083265Y-121643851D01*
X96930129Y-121755111D01*
X96803466Y-121895785D01*
X96708821Y-122059715D01*
X96708818Y-122059722D01*
X96650327Y-122239740D01*
X96650326Y-122239744D01*
X96630540Y-122428000D01*
X93828312Y-122428000D01*
X93849674Y-122362256D01*
X93869460Y-122174000D01*
X93849674Y-121985744D01*
X93791179Y-121805716D01*
X93696533Y-121641784D01*
X93569871Y-121501112D01*
X93569870Y-121501111D01*
X93416734Y-121389851D01*
X93416729Y-121389848D01*
X93243807Y-121312857D01*
X93243802Y-121312855D01*
X93098001Y-121281865D01*
X93058646Y-121273500D01*
X92869354Y-121273500D01*
X92836897Y-121280398D01*
X92684197Y-121312855D01*
X92684192Y-121312857D01*
X92511270Y-121389848D01*
X92511265Y-121389851D01*
X92358129Y-121501111D01*
X92231466Y-121641785D01*
X92136821Y-121805715D01*
X92136818Y-121805722D01*
X92078327Y-121985740D01*
X92078326Y-121985744D01*
X92058540Y-122174000D01*
X70104000Y-122174000D01*
X70104000Y-115829577D01*
X71908743Y-115829577D01*
X71908743Y-115829584D01*
X71928085Y-116260273D01*
X71928086Y-116260282D01*
X71985959Y-116687519D01*
X72081894Y-117107839D01*
X72215123Y-117517877D01*
X72215126Y-117517885D01*
X72384566Y-117914311D01*
X72384570Y-117914319D01*
X72588875Y-118293980D01*
X72826380Y-118653788D01*
X72826381Y-118653789D01*
X73095189Y-118990863D01*
X73145804Y-119043802D01*
X74138307Y-118051298D01*
X74133162Y-118070504D01*
X74133162Y-118149496D01*
X74153606Y-118225796D01*
X74193102Y-118294205D01*
X74248957Y-118350060D01*
X74317366Y-118389556D01*
X74393666Y-118410000D01*
X74472658Y-118410000D01*
X74491859Y-118404855D01*
X73500458Y-119396256D01*
X73717808Y-119586150D01*
X73717825Y-119586163D01*
X74066605Y-119839567D01*
X74436721Y-120060701D01*
X74436727Y-120060704D01*
X74825150Y-120247759D01*
X74825164Y-120247765D01*
X75228790Y-120399248D01*
X75228815Y-120399256D01*
X75644397Y-120513950D01*
X76068604Y-120590932D01*
X76498016Y-120629580D01*
X76498019Y-120629581D01*
X76929143Y-120629581D01*
X76929145Y-120629580D01*
X77358557Y-120590932D01*
X77782764Y-120513950D01*
X78198346Y-120399256D01*
X78198371Y-120399248D01*
X78601997Y-120247765D01*
X78602011Y-120247759D01*
X78990434Y-120060704D01*
X78990440Y-120060701D01*
X79360556Y-119839567D01*
X79709336Y-119586163D01*
X79709353Y-119586150D01*
X79926702Y-119396256D01*
X78935301Y-118404854D01*
X78954504Y-118410000D01*
X79033496Y-118410000D01*
X79109796Y-118389556D01*
X79178205Y-118350060D01*
X79234060Y-118294205D01*
X79273556Y-118225796D01*
X79294000Y-118149496D01*
X79294000Y-118070504D01*
X79288854Y-118051301D01*
X80281356Y-119043803D01*
X80281357Y-119043803D01*
X80331967Y-118990870D01*
X80331967Y-118990869D01*
X80600780Y-118653789D01*
X80600781Y-118653788D01*
X80838286Y-118293980D01*
X81042591Y-117914319D01*
X81042595Y-117914311D01*
X81212035Y-117517885D01*
X81212038Y-117517877D01*
X81322260Y-117178646D01*
X91870000Y-117178646D01*
X91904584Y-117352512D01*
X91904586Y-117352520D01*
X91972428Y-117516307D01*
X91972433Y-117516316D01*
X92070923Y-117663716D01*
X92070926Y-117663720D01*
X92196279Y-117789073D01*
X92196283Y-117789076D01*
X92343683Y-117887566D01*
X92343693Y-117887571D01*
X92507476Y-117955412D01*
X92507483Y-117955415D01*
X92520000Y-117957904D01*
X92520000Y-117090000D01*
X91870000Y-117090000D01*
X91870000Y-117178646D01*
X81322260Y-117178646D01*
X81345267Y-117107839D01*
X81417749Y-116790272D01*
X92520000Y-116790272D01*
X92520000Y-116889728D01*
X92558060Y-116981614D01*
X92628386Y-117051940D01*
X92720272Y-117090000D01*
X92819728Y-117090000D01*
X92911614Y-117051940D01*
X92981940Y-116981614D01*
X93020000Y-116889728D01*
X93020000Y-117957903D01*
X93032516Y-117955415D01*
X93032523Y-117955412D01*
X93196306Y-117887571D01*
X93196315Y-117887566D01*
X93325659Y-117801141D01*
X93392336Y-117780263D01*
X93459716Y-117798747D01*
X93463434Y-117801136D01*
X93529782Y-117845469D01*
X93592791Y-117887571D01*
X93593453Y-117888013D01*
X93593455Y-117888014D01*
X93593459Y-117888016D01*
X93703214Y-117933477D01*
X93757334Y-117955894D01*
X93757336Y-117955894D01*
X93757341Y-117955896D01*
X93931304Y-117990499D01*
X93931307Y-117990500D01*
X93931309Y-117990500D01*
X94108693Y-117990500D01*
X94108694Y-117990499D01*
X94191642Y-117974000D01*
X94282658Y-117955896D01*
X94282661Y-117955894D01*
X94282666Y-117955894D01*
X94446547Y-117888013D01*
X94563301Y-117810000D01*
X94576109Y-117801442D01*
X94642786Y-117780564D01*
X94710166Y-117799048D01*
X94713891Y-117801442D01*
X94843447Y-117888009D01*
X94843453Y-117888013D01*
X94843455Y-117888014D01*
X94843459Y-117888016D01*
X94953214Y-117933477D01*
X95007334Y-117955894D01*
X95007336Y-117955894D01*
X95007341Y-117955896D01*
X95181304Y-117990499D01*
X95181307Y-117990500D01*
X95181309Y-117990500D01*
X95358693Y-117990500D01*
X95358694Y-117990499D01*
X95441642Y-117974000D01*
X95532658Y-117955896D01*
X95532661Y-117955894D01*
X95532666Y-117955894D01*
X95696547Y-117888013D01*
X95753838Y-117849731D01*
X95820510Y-117828854D01*
X95886873Y-117846716D01*
X96030394Y-117933478D01*
X96192804Y-117984086D01*
X96263384Y-117990500D01*
X96263387Y-117990500D01*
X96776613Y-117990500D01*
X96776616Y-117990500D01*
X96847196Y-117984086D01*
X97009606Y-117933478D01*
X97155185Y-117845472D01*
X97275472Y-117725185D01*
X97363478Y-117579606D01*
X97414086Y-117417196D01*
X97420500Y-117346616D01*
X97420500Y-116333384D01*
X97414086Y-116262804D01*
X97363478Y-116100394D01*
X97275472Y-115954815D01*
X97275470Y-115954813D01*
X97275469Y-115954811D01*
X97155188Y-115834530D01*
X97147006Y-115829584D01*
X97137762Y-115823996D01*
X120195162Y-115823996D01*
X120195162Y-115824003D01*
X120214504Y-116254692D01*
X120214505Y-116254701D01*
X120272378Y-116681938D01*
X120368313Y-117102258D01*
X120501542Y-117512296D01*
X120501545Y-117512304D01*
X120670985Y-117908730D01*
X120670989Y-117908738D01*
X120875294Y-118288399D01*
X121112799Y-118648207D01*
X121112800Y-118648208D01*
X121381608Y-118985282D01*
X121432223Y-119038221D01*
X122424726Y-118045717D01*
X122419581Y-118064923D01*
X122419581Y-118143915D01*
X122440025Y-118220215D01*
X122479521Y-118288624D01*
X122535376Y-118344479D01*
X122603785Y-118383975D01*
X122680085Y-118404419D01*
X122759077Y-118404419D01*
X122778278Y-118399274D01*
X121786877Y-119390675D01*
X122004227Y-119580569D01*
X122004244Y-119580582D01*
X122353024Y-119833986D01*
X122723140Y-120055120D01*
X122723146Y-120055123D01*
X123111569Y-120242178D01*
X123111583Y-120242184D01*
X123515209Y-120393667D01*
X123515234Y-120393675D01*
X123930816Y-120508369D01*
X124355023Y-120585351D01*
X124784435Y-120623999D01*
X124784438Y-120624000D01*
X125215562Y-120624000D01*
X125215564Y-120623999D01*
X125644976Y-120585351D01*
X126069183Y-120508369D01*
X126484765Y-120393675D01*
X126484790Y-120393667D01*
X126888416Y-120242184D01*
X126888430Y-120242178D01*
X127276853Y-120055123D01*
X127276859Y-120055120D01*
X127646975Y-119833986D01*
X127995755Y-119580582D01*
X127995772Y-119580569D01*
X128213121Y-119390675D01*
X127221720Y-118399273D01*
X127240923Y-118404419D01*
X127319915Y-118404419D01*
X127396215Y-118383975D01*
X127464624Y-118344479D01*
X127520479Y-118288624D01*
X127559975Y-118220215D01*
X127580419Y-118143915D01*
X127580419Y-118064923D01*
X127575273Y-118045720D01*
X128567775Y-119038222D01*
X128567776Y-119038222D01*
X128618386Y-118985289D01*
X128618386Y-118985288D01*
X128887199Y-118648208D01*
X128887200Y-118648207D01*
X129124705Y-118288399D01*
X129329010Y-117908738D01*
X129329014Y-117908730D01*
X129498454Y-117512304D01*
X129498457Y-117512296D01*
X129631686Y-117102258D01*
X129727621Y-116681938D01*
X129785494Y-116254701D01*
X129785495Y-116254692D01*
X129804838Y-115824003D01*
X129804838Y-115823996D01*
X129785495Y-115393307D01*
X129785494Y-115393298D01*
X129727621Y-114966061D01*
X129631686Y-114545741D01*
X129498457Y-114135703D01*
X129498454Y-114135695D01*
X129329014Y-113739269D01*
X129329010Y-113739261D01*
X129124705Y-113359600D01*
X128887200Y-112999792D01*
X128887199Y-112999791D01*
X128618391Y-112662717D01*
X128567774Y-112609776D01*
X127575274Y-113602275D01*
X127580419Y-113583077D01*
X127580419Y-113504085D01*
X127559975Y-113427785D01*
X127520479Y-113359376D01*
X127464624Y-113303521D01*
X127396215Y-113264025D01*
X127319915Y-113243581D01*
X127240923Y-113243581D01*
X127221716Y-113248727D01*
X128213121Y-112257323D01*
X127995772Y-112067430D01*
X127995755Y-112067417D01*
X127646975Y-111814013D01*
X127276859Y-111592879D01*
X127276853Y-111592876D01*
X126888430Y-111405821D01*
X126888416Y-111405815D01*
X126484790Y-111254332D01*
X126484765Y-111254324D01*
X126069183Y-111139630D01*
X125644976Y-111062648D01*
X125215564Y-111024000D01*
X124784435Y-111024000D01*
X124355023Y-111062648D01*
X123930816Y-111139630D01*
X123515234Y-111254324D01*
X123515209Y-111254332D01*
X123111583Y-111405815D01*
X123111569Y-111405821D01*
X122723146Y-111592876D01*
X122723140Y-111592879D01*
X122353024Y-111814013D01*
X122004235Y-112067423D01*
X121786877Y-112257322D01*
X121786877Y-112257323D01*
X122778280Y-113248726D01*
X122759077Y-113243581D01*
X122680085Y-113243581D01*
X122603785Y-113264025D01*
X122535376Y-113303521D01*
X122479521Y-113359376D01*
X122440025Y-113427785D01*
X122419581Y-113504085D01*
X122419581Y-113583077D01*
X122424726Y-113602279D01*
X121432223Y-112609777D01*
X121381624Y-112662699D01*
X121381612Y-112662712D01*
X121112800Y-112999791D01*
X121112799Y-112999792D01*
X120875294Y-113359600D01*
X120670989Y-113739261D01*
X120670985Y-113739269D01*
X120501545Y-114135695D01*
X120501542Y-114135703D01*
X120368313Y-114545741D01*
X120272378Y-114966061D01*
X120214505Y-115393298D01*
X120214504Y-115393307D01*
X120195162Y-115823996D01*
X97137762Y-115823996D01*
X97009606Y-115746522D01*
X96847196Y-115695914D01*
X96847194Y-115695913D01*
X96847192Y-115695913D01*
X96797778Y-115691423D01*
X96776616Y-115689500D01*
X96263384Y-115689500D01*
X96244145Y-115691248D01*
X96192807Y-115695913D01*
X96030391Y-115746523D01*
X95886875Y-115833281D01*
X95819321Y-115851117D01*
X95753834Y-115830265D01*
X95696555Y-115791991D01*
X95696540Y-115791983D01*
X95532667Y-115724106D01*
X95532658Y-115724103D01*
X95358694Y-115689500D01*
X95358691Y-115689500D01*
X95181309Y-115689500D01*
X95181306Y-115689500D01*
X95007341Y-115724103D01*
X95007332Y-115724106D01*
X94843459Y-115791983D01*
X94843446Y-115791990D01*
X94713891Y-115878557D01*
X94647213Y-115899435D01*
X94579833Y-115880950D01*
X94576109Y-115878557D01*
X94446553Y-115791990D01*
X94446540Y-115791983D01*
X94282667Y-115724106D01*
X94282658Y-115724103D01*
X94108694Y-115689500D01*
X94108691Y-115689500D01*
X93931309Y-115689500D01*
X93931306Y-115689500D01*
X93757341Y-115724103D01*
X93757332Y-115724106D01*
X93593459Y-115791983D01*
X93593446Y-115791990D01*
X93463441Y-115878858D01*
X93396764Y-115899736D01*
X93329383Y-115881252D01*
X93325659Y-115878858D01*
X93196316Y-115792433D01*
X93196307Y-115792428D01*
X93032519Y-115724585D01*
X93020000Y-115722094D01*
X93020000Y-116790272D01*
X92981940Y-116698386D01*
X92911614Y-116628060D01*
X92819728Y-116590000D01*
X92720272Y-116590000D01*
X92628386Y-116628060D01*
X92558060Y-116698386D01*
X92520000Y-116790272D01*
X81417749Y-116790272D01*
X81441202Y-116687519D01*
X81466420Y-116501353D01*
X91870000Y-116501353D01*
X91870000Y-116590000D01*
X92520000Y-116590000D01*
X92520000Y-115722095D01*
X92519999Y-115722094D01*
X92507480Y-115724585D01*
X92343692Y-115792428D01*
X92343683Y-115792433D01*
X92196283Y-115890923D01*
X92196279Y-115890926D01*
X92070926Y-116016279D01*
X92070923Y-116016283D01*
X91972433Y-116163683D01*
X91972428Y-116163692D01*
X91904586Y-116327479D01*
X91904584Y-116327487D01*
X91870000Y-116501353D01*
X81466420Y-116501353D01*
X81499075Y-116260282D01*
X81499076Y-116260273D01*
X81518419Y-115829584D01*
X81518419Y-115829577D01*
X81499076Y-115398888D01*
X81499075Y-115398879D01*
X81441202Y-114971642D01*
X81345267Y-114551322D01*
X81212038Y-114141284D01*
X81212035Y-114141276D01*
X81042595Y-113744850D01*
X81042591Y-113744842D01*
X80838286Y-113365181D01*
X80600781Y-113005373D01*
X80600780Y-113005372D01*
X80536281Y-112924493D01*
X84426464Y-112924493D01*
X84426464Y-113075507D01*
X84465550Y-113221377D01*
X84465551Y-113221380D01*
X84518623Y-113313303D01*
X84541057Y-113352159D01*
X84647841Y-113458943D01*
X84739767Y-113512016D01*
X84778619Y-113534448D01*
X84778620Y-113534448D01*
X84778623Y-113534450D01*
X84924493Y-113573536D01*
X85075504Y-113573536D01*
X85075507Y-113573536D01*
X85221377Y-113534450D01*
X85352159Y-113458943D01*
X85458943Y-113352159D01*
X85534450Y-113221377D01*
X85573536Y-113075507D01*
X85576000Y-113000000D01*
X85573536Y-112924493D01*
X117926464Y-112924493D01*
X117926464Y-113075507D01*
X117965550Y-113221377D01*
X117965551Y-113221380D01*
X118018623Y-113313303D01*
X118041057Y-113352159D01*
X118147841Y-113458943D01*
X118239767Y-113512016D01*
X118278619Y-113534448D01*
X118278620Y-113534448D01*
X118278623Y-113534450D01*
X118424493Y-113573536D01*
X118575504Y-113573536D01*
X118575507Y-113573536D01*
X118721377Y-113534450D01*
X118852159Y-113458943D01*
X118958943Y-113352159D01*
X119034450Y-113221377D01*
X119073536Y-113075507D01*
X119076000Y-113000000D01*
X119073536Y-112924493D01*
X119034450Y-112778623D01*
X118958943Y-112647841D01*
X118852159Y-112541057D01*
X118813303Y-112518623D01*
X118721380Y-112465551D01*
X118721381Y-112465551D01*
X118709419Y-112462345D01*
X118575507Y-112426464D01*
X118575504Y-112426464D01*
X118424496Y-112426464D01*
X118424493Y-112426464D01*
X118290580Y-112462345D01*
X118278619Y-112465551D01*
X118147844Y-112541055D01*
X118147838Y-112541059D01*
X118041059Y-112647838D01*
X118041055Y-112647844D01*
X117965551Y-112778619D01*
X117965550Y-112778623D01*
X117926464Y-112924493D01*
X85573536Y-112924493D01*
X85534450Y-112778623D01*
X85458943Y-112647841D01*
X85352159Y-112541057D01*
X85313303Y-112518623D01*
X85221380Y-112465551D01*
X85221381Y-112465551D01*
X85209419Y-112462345D01*
X85075507Y-112426464D01*
X85075504Y-112426464D01*
X84924496Y-112426464D01*
X84924493Y-112426464D01*
X84790580Y-112462345D01*
X84778619Y-112465551D01*
X84647844Y-112541055D01*
X84647838Y-112541059D01*
X84541059Y-112647838D01*
X84541055Y-112647844D01*
X84465551Y-112778619D01*
X84465550Y-112778623D01*
X84426464Y-112924493D01*
X80536281Y-112924493D01*
X80331972Y-112668298D01*
X80281355Y-112615357D01*
X79288855Y-113607856D01*
X79294000Y-113588658D01*
X79294000Y-113509666D01*
X79273556Y-113433366D01*
X79234060Y-113364957D01*
X79178205Y-113309102D01*
X79109796Y-113269606D01*
X79033496Y-113249162D01*
X78954504Y-113249162D01*
X78935297Y-113254308D01*
X79926702Y-112262904D01*
X79709353Y-112073011D01*
X79709336Y-112072998D01*
X79360556Y-111819594D01*
X78990440Y-111598460D01*
X78990434Y-111598457D01*
X78602011Y-111411402D01*
X78601997Y-111411396D01*
X78198371Y-111259913D01*
X78198346Y-111259905D01*
X77782764Y-111145211D01*
X77358557Y-111068229D01*
X76929145Y-111029581D01*
X76498016Y-111029581D01*
X76068604Y-111068229D01*
X75644397Y-111145211D01*
X75228815Y-111259905D01*
X75228790Y-111259913D01*
X74825164Y-111411396D01*
X74825150Y-111411402D01*
X74436727Y-111598457D01*
X74436721Y-111598460D01*
X74066605Y-111819594D01*
X73717816Y-112073004D01*
X73500458Y-112262903D01*
X73500458Y-112262904D01*
X74491861Y-113254307D01*
X74472658Y-113249162D01*
X74393666Y-113249162D01*
X74317366Y-113269606D01*
X74248957Y-113309102D01*
X74193102Y-113364957D01*
X74153606Y-113433366D01*
X74133162Y-113509666D01*
X74133162Y-113588658D01*
X74138307Y-113607860D01*
X73145805Y-112615358D01*
X73145804Y-112615358D01*
X73095205Y-112668280D01*
X73095193Y-112668293D01*
X72826381Y-113005372D01*
X72826380Y-113005373D01*
X72588875Y-113365181D01*
X72384570Y-113744842D01*
X72384566Y-113744850D01*
X72215126Y-114141276D01*
X72215123Y-114141284D01*
X72081894Y-114551322D01*
X71985959Y-114971642D01*
X71928086Y-115398879D01*
X71928085Y-115398888D01*
X71908743Y-115829577D01*
X70104000Y-115829577D01*
X70104000Y-110744000D01*
X111870540Y-110744000D01*
X111890326Y-110932256D01*
X111890327Y-110932259D01*
X111948818Y-111112277D01*
X111948821Y-111112284D01*
X112043467Y-111276216D01*
X112160159Y-111405815D01*
X112170129Y-111416888D01*
X112323265Y-111528148D01*
X112323270Y-111528151D01*
X112496192Y-111605142D01*
X112496197Y-111605144D01*
X112681354Y-111644500D01*
X112681355Y-111644500D01*
X112870644Y-111644500D01*
X112870646Y-111644500D01*
X113055803Y-111605144D01*
X113228730Y-111528151D01*
X113381871Y-111416888D01*
X113508533Y-111276216D01*
X113603179Y-111112284D01*
X113661674Y-110932256D01*
X113681460Y-110744000D01*
X113661674Y-110555744D01*
X113603179Y-110375716D01*
X113508533Y-110211784D01*
X113381871Y-110071112D01*
X113381870Y-110071111D01*
X113228734Y-109959851D01*
X113228729Y-109959848D01*
X113055807Y-109882857D01*
X113055802Y-109882855D01*
X112910001Y-109851865D01*
X112870646Y-109843500D01*
X112681354Y-109843500D01*
X112648897Y-109850398D01*
X112496197Y-109882855D01*
X112496192Y-109882857D01*
X112323270Y-109959848D01*
X112323265Y-109959851D01*
X112170129Y-110071111D01*
X112043466Y-110211785D01*
X111948821Y-110375715D01*
X111948818Y-110375722D01*
X111890327Y-110555740D01*
X111890326Y-110555744D01*
X111870540Y-110744000D01*
X70104000Y-110744000D01*
X70104000Y-109090000D01*
X70123685Y-109022961D01*
X70176489Y-108977206D01*
X70228000Y-108966000D01*
X131194000Y-108966000D01*
X131261039Y-108985685D01*
G37*
%TD.AperFunction*%
%TD*%
M02*
