%TF.GenerationSoftware,KiCad,Pcbnew,8.0.4*%
%TF.CreationDate,2024-07-25T03:06:04-05:00*%
%TF.ProjectId,stm32devBoardf405rg,73746d33-3264-4657-9642-6f6172646634,rev?*%
%TF.SameCoordinates,Original*%
%TF.FileFunction,Legend,Top*%
%TF.FilePolarity,Positive*%
%FSLAX46Y46*%
G04 Gerber Fmt 4.6, Leading zero omitted, Abs format (unit mm)*
G04 Created by KiCad (PCBNEW 8.0.4) date 2024-07-25 03:06:04*
%MOMM*%
%LPD*%
G01*
G04 APERTURE LIST*
%ADD10C,0.150000*%
%ADD11C,0.050000*%
%ADD12C,0.075000*%
%ADD13C,0.120000*%
G04 APERTURE END LIST*
D10*
X77408207Y-132869819D02*
X77074874Y-132393628D01*
X76836779Y-132869819D02*
X76836779Y-131869819D01*
X76836779Y-131869819D02*
X77217731Y-131869819D01*
X77217731Y-131869819D02*
X77312969Y-131917438D01*
X77312969Y-131917438D02*
X77360588Y-131965057D01*
X77360588Y-131965057D02*
X77408207Y-132060295D01*
X77408207Y-132060295D02*
X77408207Y-132203152D01*
X77408207Y-132203152D02*
X77360588Y-132298390D01*
X77360588Y-132298390D02*
X77312969Y-132346009D01*
X77312969Y-132346009D02*
X77217731Y-132393628D01*
X77217731Y-132393628D02*
X76836779Y-132393628D01*
X77836779Y-131869819D02*
X77836779Y-132679342D01*
X77836779Y-132679342D02*
X77884398Y-132774580D01*
X77884398Y-132774580D02*
X77932017Y-132822200D01*
X77932017Y-132822200D02*
X78027255Y-132869819D01*
X78027255Y-132869819D02*
X78217731Y-132869819D01*
X78217731Y-132869819D02*
X78312969Y-132822200D01*
X78312969Y-132822200D02*
X78360588Y-132774580D01*
X78360588Y-132774580D02*
X78408207Y-132679342D01*
X78408207Y-132679342D02*
X78408207Y-131869819D01*
X78884398Y-132869819D02*
X78884398Y-131869819D01*
X78884398Y-131869819D02*
X79455826Y-132869819D01*
X79455826Y-132869819D02*
X79455826Y-131869819D01*
X71789160Y-142322200D02*
X71932017Y-142369819D01*
X71932017Y-142369819D02*
X72170112Y-142369819D01*
X72170112Y-142369819D02*
X72265350Y-142322200D01*
X72265350Y-142322200D02*
X72312969Y-142274580D01*
X72312969Y-142274580D02*
X72360588Y-142179342D01*
X72360588Y-142179342D02*
X72360588Y-142084104D01*
X72360588Y-142084104D02*
X72312969Y-141988866D01*
X72312969Y-141988866D02*
X72265350Y-141941247D01*
X72265350Y-141941247D02*
X72170112Y-141893628D01*
X72170112Y-141893628D02*
X71979636Y-141846009D01*
X71979636Y-141846009D02*
X71884398Y-141798390D01*
X71884398Y-141798390D02*
X71836779Y-141750771D01*
X71836779Y-141750771D02*
X71789160Y-141655533D01*
X71789160Y-141655533D02*
X71789160Y-141560295D01*
X71789160Y-141560295D02*
X71836779Y-141465057D01*
X71836779Y-141465057D02*
X71884398Y-141417438D01*
X71884398Y-141417438D02*
X71979636Y-141369819D01*
X71979636Y-141369819D02*
X72217731Y-141369819D01*
X72217731Y-141369819D02*
X72360588Y-141417438D01*
X72646303Y-141369819D02*
X73217731Y-141369819D01*
X72932017Y-142369819D02*
X72932017Y-141369819D01*
X73551065Y-142369819D02*
X73551065Y-141369819D01*
X73551065Y-141369819D02*
X73884398Y-142084104D01*
X73884398Y-142084104D02*
X74217731Y-141369819D01*
X74217731Y-141369819D02*
X74217731Y-142369819D01*
X74598684Y-141369819D02*
X75217731Y-141369819D01*
X75217731Y-141369819D02*
X74884398Y-141750771D01*
X74884398Y-141750771D02*
X75027255Y-141750771D01*
X75027255Y-141750771D02*
X75122493Y-141798390D01*
X75122493Y-141798390D02*
X75170112Y-141846009D01*
X75170112Y-141846009D02*
X75217731Y-141941247D01*
X75217731Y-141941247D02*
X75217731Y-142179342D01*
X75217731Y-142179342D02*
X75170112Y-142274580D01*
X75170112Y-142274580D02*
X75122493Y-142322200D01*
X75122493Y-142322200D02*
X75027255Y-142369819D01*
X75027255Y-142369819D02*
X74741541Y-142369819D01*
X74741541Y-142369819D02*
X74646303Y-142322200D01*
X74646303Y-142322200D02*
X74598684Y-142274580D01*
X75598684Y-141465057D02*
X75646303Y-141417438D01*
X75646303Y-141417438D02*
X75741541Y-141369819D01*
X75741541Y-141369819D02*
X75979636Y-141369819D01*
X75979636Y-141369819D02*
X76074874Y-141417438D01*
X76074874Y-141417438D02*
X76122493Y-141465057D01*
X76122493Y-141465057D02*
X76170112Y-141560295D01*
X76170112Y-141560295D02*
X76170112Y-141655533D01*
X76170112Y-141655533D02*
X76122493Y-141798390D01*
X76122493Y-141798390D02*
X75551065Y-142369819D01*
X75551065Y-142369819D02*
X76170112Y-142369819D01*
X77932017Y-142369819D02*
X77598684Y-141893628D01*
X77360589Y-142369819D02*
X77360589Y-141369819D01*
X77360589Y-141369819D02*
X77741541Y-141369819D01*
X77741541Y-141369819D02*
X77836779Y-141417438D01*
X77836779Y-141417438D02*
X77884398Y-141465057D01*
X77884398Y-141465057D02*
X77932017Y-141560295D01*
X77932017Y-141560295D02*
X77932017Y-141703152D01*
X77932017Y-141703152D02*
X77884398Y-141798390D01*
X77884398Y-141798390D02*
X77836779Y-141846009D01*
X77836779Y-141846009D02*
X77741541Y-141893628D01*
X77741541Y-141893628D02*
X77360589Y-141893628D01*
X78884398Y-142369819D02*
X78312970Y-142369819D01*
X78598684Y-142369819D02*
X78598684Y-141369819D01*
X78598684Y-141369819D02*
X78503446Y-141512676D01*
X78503446Y-141512676D02*
X78408208Y-141607914D01*
X78408208Y-141607914D02*
X78312970Y-141655533D01*
X79312970Y-142274580D02*
X79360589Y-142322200D01*
X79360589Y-142322200D02*
X79312970Y-142369819D01*
X79312970Y-142369819D02*
X79265351Y-142322200D01*
X79265351Y-142322200D02*
X79312970Y-142274580D01*
X79312970Y-142274580D02*
X79312970Y-142369819D01*
X79979636Y-141369819D02*
X80074874Y-141369819D01*
X80074874Y-141369819D02*
X80170112Y-141417438D01*
X80170112Y-141417438D02*
X80217731Y-141465057D01*
X80217731Y-141465057D02*
X80265350Y-141560295D01*
X80265350Y-141560295D02*
X80312969Y-141750771D01*
X80312969Y-141750771D02*
X80312969Y-141988866D01*
X80312969Y-141988866D02*
X80265350Y-142179342D01*
X80265350Y-142179342D02*
X80217731Y-142274580D01*
X80217731Y-142274580D02*
X80170112Y-142322200D01*
X80170112Y-142322200D02*
X80074874Y-142369819D01*
X80074874Y-142369819D02*
X79979636Y-142369819D01*
X79979636Y-142369819D02*
X79884398Y-142322200D01*
X79884398Y-142322200D02*
X79836779Y-142274580D01*
X79836779Y-142274580D02*
X79789160Y-142179342D01*
X79789160Y-142179342D02*
X79741541Y-141988866D01*
X79741541Y-141988866D02*
X79741541Y-141750771D01*
X79741541Y-141750771D02*
X79789160Y-141560295D01*
X79789160Y-141560295D02*
X79836779Y-141465057D01*
X79836779Y-141465057D02*
X79884398Y-141417438D01*
X79884398Y-141417438D02*
X79979636Y-141369819D01*
D11*
X117034798Y-125175876D02*
X117025274Y-125185400D01*
X117025274Y-125185400D02*
X116996703Y-125194923D01*
X116996703Y-125194923D02*
X116977655Y-125194923D01*
X116977655Y-125194923D02*
X116949084Y-125185400D01*
X116949084Y-125185400D02*
X116930036Y-125166352D01*
X116930036Y-125166352D02*
X116920513Y-125147304D01*
X116920513Y-125147304D02*
X116910989Y-125109209D01*
X116910989Y-125109209D02*
X116910989Y-125080638D01*
X116910989Y-125080638D02*
X116920513Y-125042542D01*
X116920513Y-125042542D02*
X116930036Y-125023495D01*
X116930036Y-125023495D02*
X116949084Y-125004447D01*
X116949084Y-125004447D02*
X116977655Y-124994923D01*
X116977655Y-124994923D02*
X116996703Y-124994923D01*
X116996703Y-124994923D02*
X117025274Y-125004447D01*
X117025274Y-125004447D02*
X117034798Y-125013971D01*
X117158608Y-124994923D02*
X117196703Y-124994923D01*
X117196703Y-124994923D02*
X117215751Y-125004447D01*
X117215751Y-125004447D02*
X117234798Y-125023495D01*
X117234798Y-125023495D02*
X117244322Y-125061590D01*
X117244322Y-125061590D02*
X117244322Y-125128257D01*
X117244322Y-125128257D02*
X117234798Y-125166352D01*
X117234798Y-125166352D02*
X117215751Y-125185400D01*
X117215751Y-125185400D02*
X117196703Y-125194923D01*
X117196703Y-125194923D02*
X117158608Y-125194923D01*
X117158608Y-125194923D02*
X117139560Y-125185400D01*
X117139560Y-125185400D02*
X117120513Y-125166352D01*
X117120513Y-125166352D02*
X117110989Y-125128257D01*
X117110989Y-125128257D02*
X117110989Y-125061590D01*
X117110989Y-125061590D02*
X117120513Y-125023495D01*
X117120513Y-125023495D02*
X117139560Y-125004447D01*
X117139560Y-125004447D02*
X117158608Y-124994923D01*
X117330037Y-125194923D02*
X117330037Y-124994923D01*
X117330037Y-124994923D02*
X117444322Y-125194923D01*
X117444322Y-125194923D02*
X117444322Y-124994923D01*
X117539561Y-125194923D02*
X117539561Y-124994923D01*
X117539561Y-124994923D02*
X117653846Y-125194923D01*
X117653846Y-125194923D02*
X117653846Y-124994923D01*
X117749085Y-125118733D02*
X117901466Y-125118733D01*
X117825275Y-125194923D02*
X117825275Y-125042542D01*
D12*
X90623100Y-141117515D02*
X90637385Y-141074658D01*
X90637385Y-141074658D02*
X90637385Y-141003229D01*
X90637385Y-141003229D02*
X90623100Y-140974658D01*
X90623100Y-140974658D02*
X90608814Y-140960372D01*
X90608814Y-140960372D02*
X90580242Y-140946086D01*
X90580242Y-140946086D02*
X90551671Y-140946086D01*
X90551671Y-140946086D02*
X90523100Y-140960372D01*
X90523100Y-140960372D02*
X90508814Y-140974658D01*
X90508814Y-140974658D02*
X90494528Y-141003229D01*
X90494528Y-141003229D02*
X90480242Y-141060372D01*
X90480242Y-141060372D02*
X90465957Y-141088943D01*
X90465957Y-141088943D02*
X90451671Y-141103229D01*
X90451671Y-141103229D02*
X90423100Y-141117515D01*
X90423100Y-141117515D02*
X90394528Y-141117515D01*
X90394528Y-141117515D02*
X90365957Y-141103229D01*
X90365957Y-141103229D02*
X90351671Y-141088943D01*
X90351671Y-141088943D02*
X90337385Y-141060372D01*
X90337385Y-141060372D02*
X90337385Y-140988943D01*
X90337385Y-140988943D02*
X90351671Y-140946086D01*
X90337385Y-140860372D02*
X90337385Y-140688944D01*
X90637385Y-140774658D02*
X90337385Y-140774658D01*
X90551671Y-140603230D02*
X90551671Y-140460373D01*
X90637385Y-140631801D02*
X90337385Y-140531801D01*
X90337385Y-140531801D02*
X90637385Y-140431801D01*
X90337385Y-140374658D02*
X90337385Y-140203230D01*
X90637385Y-140288944D02*
X90337385Y-140288944D01*
X90337385Y-140103230D02*
X90580242Y-140103230D01*
X90580242Y-140103230D02*
X90608814Y-140088944D01*
X90608814Y-140088944D02*
X90623100Y-140074659D01*
X90623100Y-140074659D02*
X90637385Y-140046087D01*
X90637385Y-140046087D02*
X90637385Y-139988944D01*
X90637385Y-139988944D02*
X90623100Y-139960373D01*
X90623100Y-139960373D02*
X90608814Y-139946087D01*
X90608814Y-139946087D02*
X90580242Y-139931801D01*
X90580242Y-139931801D02*
X90337385Y-139931801D01*
X90623100Y-139803230D02*
X90637385Y-139760373D01*
X90637385Y-139760373D02*
X90637385Y-139688944D01*
X90637385Y-139688944D02*
X90623100Y-139660373D01*
X90623100Y-139660373D02*
X90608814Y-139646087D01*
X90608814Y-139646087D02*
X90580242Y-139631801D01*
X90580242Y-139631801D02*
X90551671Y-139631801D01*
X90551671Y-139631801D02*
X90523100Y-139646087D01*
X90523100Y-139646087D02*
X90508814Y-139660373D01*
X90508814Y-139660373D02*
X90494528Y-139688944D01*
X90494528Y-139688944D02*
X90480242Y-139746087D01*
X90480242Y-139746087D02*
X90465957Y-139774658D01*
X90465957Y-139774658D02*
X90451671Y-139788944D01*
X90451671Y-139788944D02*
X90423100Y-139803230D01*
X90423100Y-139803230D02*
X90394528Y-139803230D01*
X90394528Y-139803230D02*
X90365957Y-139788944D01*
X90365957Y-139788944D02*
X90351671Y-139774658D01*
X90351671Y-139774658D02*
X90337385Y-139746087D01*
X90337385Y-139746087D02*
X90337385Y-139674658D01*
X90337385Y-139674658D02*
X90351671Y-139631801D01*
D11*
X114517400Y-119563010D02*
X114526923Y-119534439D01*
X114526923Y-119534439D02*
X114526923Y-119486820D01*
X114526923Y-119486820D02*
X114517400Y-119467772D01*
X114517400Y-119467772D02*
X114507876Y-119458248D01*
X114507876Y-119458248D02*
X114488828Y-119448725D01*
X114488828Y-119448725D02*
X114469780Y-119448725D01*
X114469780Y-119448725D02*
X114450733Y-119458248D01*
X114450733Y-119458248D02*
X114441209Y-119467772D01*
X114441209Y-119467772D02*
X114431685Y-119486820D01*
X114431685Y-119486820D02*
X114422161Y-119524915D01*
X114422161Y-119524915D02*
X114412638Y-119543963D01*
X114412638Y-119543963D02*
X114403114Y-119553486D01*
X114403114Y-119553486D02*
X114384066Y-119563010D01*
X114384066Y-119563010D02*
X114365019Y-119563010D01*
X114365019Y-119563010D02*
X114345971Y-119553486D01*
X114345971Y-119553486D02*
X114336447Y-119543963D01*
X114336447Y-119543963D02*
X114326923Y-119524915D01*
X114326923Y-119524915D02*
X114326923Y-119477296D01*
X114326923Y-119477296D02*
X114336447Y-119448725D01*
X114326923Y-119382058D02*
X114526923Y-119334439D01*
X114526923Y-119334439D02*
X114384066Y-119296344D01*
X114384066Y-119296344D02*
X114526923Y-119258249D01*
X114526923Y-119258249D02*
X114326923Y-119210630D01*
X114526923Y-119134439D02*
X114326923Y-119134439D01*
X114326923Y-119134439D02*
X114326923Y-119086820D01*
X114326923Y-119086820D02*
X114336447Y-119058249D01*
X114336447Y-119058249D02*
X114355495Y-119039201D01*
X114355495Y-119039201D02*
X114374542Y-119029678D01*
X114374542Y-119029678D02*
X114412638Y-119020154D01*
X114412638Y-119020154D02*
X114441209Y-119020154D01*
X114441209Y-119020154D02*
X114479304Y-119029678D01*
X114479304Y-119029678D02*
X114498352Y-119039201D01*
X114498352Y-119039201D02*
X114517400Y-119058249D01*
X114517400Y-119058249D02*
X114526923Y-119086820D01*
X114526923Y-119086820D02*
X114526923Y-119134439D01*
X114526923Y-118934439D02*
X114326923Y-118934439D01*
X114326923Y-118801106D02*
X114326923Y-118763011D01*
X114326923Y-118763011D02*
X114336447Y-118743963D01*
X114336447Y-118743963D02*
X114355495Y-118724916D01*
X114355495Y-118724916D02*
X114393590Y-118715392D01*
X114393590Y-118715392D02*
X114460257Y-118715392D01*
X114460257Y-118715392D02*
X114498352Y-118724916D01*
X114498352Y-118724916D02*
X114517400Y-118743963D01*
X114517400Y-118743963D02*
X114526923Y-118763011D01*
X114526923Y-118763011D02*
X114526923Y-118801106D01*
X114526923Y-118801106D02*
X114517400Y-118820154D01*
X114517400Y-118820154D02*
X114498352Y-118839201D01*
X114498352Y-118839201D02*
X114460257Y-118848725D01*
X114460257Y-118848725D02*
X114393590Y-118848725D01*
X114393590Y-118848725D02*
X114355495Y-118839201D01*
X114355495Y-118839201D02*
X114336447Y-118820154D01*
X114336447Y-118820154D02*
X114326923Y-118801106D01*
D10*
X124034779Y-135759819D02*
X124034779Y-134759819D01*
X124034779Y-134759819D02*
X124415731Y-134759819D01*
X124415731Y-134759819D02*
X124510969Y-134807438D01*
X124510969Y-134807438D02*
X124558588Y-134855057D01*
X124558588Y-134855057D02*
X124606207Y-134950295D01*
X124606207Y-134950295D02*
X124606207Y-135093152D01*
X124606207Y-135093152D02*
X124558588Y-135188390D01*
X124558588Y-135188390D02*
X124510969Y-135236009D01*
X124510969Y-135236009D02*
X124415731Y-135283628D01*
X124415731Y-135283628D02*
X124034779Y-135283628D01*
X125225255Y-134759819D02*
X125415731Y-134759819D01*
X125415731Y-134759819D02*
X125510969Y-134807438D01*
X125510969Y-134807438D02*
X125606207Y-134902676D01*
X125606207Y-134902676D02*
X125653826Y-135093152D01*
X125653826Y-135093152D02*
X125653826Y-135426485D01*
X125653826Y-135426485D02*
X125606207Y-135616961D01*
X125606207Y-135616961D02*
X125510969Y-135712200D01*
X125510969Y-135712200D02*
X125415731Y-135759819D01*
X125415731Y-135759819D02*
X125225255Y-135759819D01*
X125225255Y-135759819D02*
X125130017Y-135712200D01*
X125130017Y-135712200D02*
X125034779Y-135616961D01*
X125034779Y-135616961D02*
X124987160Y-135426485D01*
X124987160Y-135426485D02*
X124987160Y-135093152D01*
X124987160Y-135093152D02*
X125034779Y-134902676D01*
X125034779Y-134902676D02*
X125130017Y-134807438D01*
X125130017Y-134807438D02*
X125225255Y-134759819D01*
X125987160Y-134759819D02*
X126225255Y-135759819D01*
X126225255Y-135759819D02*
X126415731Y-135045533D01*
X126415731Y-135045533D02*
X126606207Y-135759819D01*
X126606207Y-135759819D02*
X126844303Y-134759819D01*
X127225255Y-135236009D02*
X127558588Y-135236009D01*
X127701445Y-135759819D02*
X127225255Y-135759819D01*
X127225255Y-135759819D02*
X127225255Y-134759819D01*
X127225255Y-134759819D02*
X127701445Y-134759819D01*
X128701445Y-135759819D02*
X128368112Y-135283628D01*
X128130017Y-135759819D02*
X128130017Y-134759819D01*
X128130017Y-134759819D02*
X128510969Y-134759819D01*
X128510969Y-134759819D02*
X128606207Y-134807438D01*
X128606207Y-134807438D02*
X128653826Y-134855057D01*
X128653826Y-134855057D02*
X128701445Y-134950295D01*
X128701445Y-134950295D02*
X128701445Y-135093152D01*
X128701445Y-135093152D02*
X128653826Y-135188390D01*
X128653826Y-135188390D02*
X128606207Y-135236009D01*
X128606207Y-135236009D02*
X128510969Y-135283628D01*
X128510969Y-135283628D02*
X128130017Y-135283628D01*
D11*
X94768923Y-145744058D02*
X94768923Y-145629772D01*
X94968923Y-145686915D02*
X94768923Y-145686915D01*
X94768923Y-145582153D02*
X94968923Y-145448820D01*
X94768923Y-145448820D02*
X94968923Y-145582153D01*
D10*
X80670112Y-122846009D02*
X80812969Y-122893628D01*
X80812969Y-122893628D02*
X80860588Y-122941247D01*
X80860588Y-122941247D02*
X80908207Y-123036485D01*
X80908207Y-123036485D02*
X80908207Y-123179342D01*
X80908207Y-123179342D02*
X80860588Y-123274580D01*
X80860588Y-123274580D02*
X80812969Y-123322200D01*
X80812969Y-123322200D02*
X80717731Y-123369819D01*
X80717731Y-123369819D02*
X80336779Y-123369819D01*
X80336779Y-123369819D02*
X80336779Y-122369819D01*
X80336779Y-122369819D02*
X80670112Y-122369819D01*
X80670112Y-122369819D02*
X80765350Y-122417438D01*
X80765350Y-122417438D02*
X80812969Y-122465057D01*
X80812969Y-122465057D02*
X80860588Y-122560295D01*
X80860588Y-122560295D02*
X80860588Y-122655533D01*
X80860588Y-122655533D02*
X80812969Y-122750771D01*
X80812969Y-122750771D02*
X80765350Y-122798390D01*
X80765350Y-122798390D02*
X80670112Y-122846009D01*
X80670112Y-122846009D02*
X80336779Y-122846009D01*
X81527255Y-122369819D02*
X81717731Y-122369819D01*
X81717731Y-122369819D02*
X81812969Y-122417438D01*
X81812969Y-122417438D02*
X81908207Y-122512676D01*
X81908207Y-122512676D02*
X81955826Y-122703152D01*
X81955826Y-122703152D02*
X81955826Y-123036485D01*
X81955826Y-123036485D02*
X81908207Y-123226961D01*
X81908207Y-123226961D02*
X81812969Y-123322200D01*
X81812969Y-123322200D02*
X81717731Y-123369819D01*
X81717731Y-123369819D02*
X81527255Y-123369819D01*
X81527255Y-123369819D02*
X81432017Y-123322200D01*
X81432017Y-123322200D02*
X81336779Y-123226961D01*
X81336779Y-123226961D02*
X81289160Y-123036485D01*
X81289160Y-123036485D02*
X81289160Y-122703152D01*
X81289160Y-122703152D02*
X81336779Y-122512676D01*
X81336779Y-122512676D02*
X81432017Y-122417438D01*
X81432017Y-122417438D02*
X81527255Y-122369819D01*
X82574874Y-122369819D02*
X82765350Y-122369819D01*
X82765350Y-122369819D02*
X82860588Y-122417438D01*
X82860588Y-122417438D02*
X82955826Y-122512676D01*
X82955826Y-122512676D02*
X83003445Y-122703152D01*
X83003445Y-122703152D02*
X83003445Y-123036485D01*
X83003445Y-123036485D02*
X82955826Y-123226961D01*
X82955826Y-123226961D02*
X82860588Y-123322200D01*
X82860588Y-123322200D02*
X82765350Y-123369819D01*
X82765350Y-123369819D02*
X82574874Y-123369819D01*
X82574874Y-123369819D02*
X82479636Y-123322200D01*
X82479636Y-123322200D02*
X82384398Y-123226961D01*
X82384398Y-123226961D02*
X82336779Y-123036485D01*
X82336779Y-123036485D02*
X82336779Y-122703152D01*
X82336779Y-122703152D02*
X82384398Y-122512676D01*
X82384398Y-122512676D02*
X82479636Y-122417438D01*
X82479636Y-122417438D02*
X82574874Y-122369819D01*
X83289160Y-122369819D02*
X83860588Y-122369819D01*
X83574874Y-123369819D02*
X83574874Y-122369819D01*
D11*
X117288798Y-127461876D02*
X117279274Y-127471400D01*
X117279274Y-127471400D02*
X117250703Y-127480923D01*
X117250703Y-127480923D02*
X117231655Y-127480923D01*
X117231655Y-127480923D02*
X117203084Y-127471400D01*
X117203084Y-127471400D02*
X117184036Y-127452352D01*
X117184036Y-127452352D02*
X117174513Y-127433304D01*
X117174513Y-127433304D02*
X117164989Y-127395209D01*
X117164989Y-127395209D02*
X117164989Y-127366638D01*
X117164989Y-127366638D02*
X117174513Y-127328542D01*
X117174513Y-127328542D02*
X117184036Y-127309495D01*
X117184036Y-127309495D02*
X117203084Y-127290447D01*
X117203084Y-127290447D02*
X117231655Y-127280923D01*
X117231655Y-127280923D02*
X117250703Y-127280923D01*
X117250703Y-127280923D02*
X117279274Y-127290447D01*
X117279274Y-127290447D02*
X117288798Y-127299971D01*
X117412608Y-127280923D02*
X117450703Y-127280923D01*
X117450703Y-127280923D02*
X117469751Y-127290447D01*
X117469751Y-127290447D02*
X117488798Y-127309495D01*
X117488798Y-127309495D02*
X117498322Y-127347590D01*
X117498322Y-127347590D02*
X117498322Y-127414257D01*
X117498322Y-127414257D02*
X117488798Y-127452352D01*
X117488798Y-127452352D02*
X117469751Y-127471400D01*
X117469751Y-127471400D02*
X117450703Y-127480923D01*
X117450703Y-127480923D02*
X117412608Y-127480923D01*
X117412608Y-127480923D02*
X117393560Y-127471400D01*
X117393560Y-127471400D02*
X117374513Y-127452352D01*
X117374513Y-127452352D02*
X117364989Y-127414257D01*
X117364989Y-127414257D02*
X117364989Y-127347590D01*
X117364989Y-127347590D02*
X117374513Y-127309495D01*
X117374513Y-127309495D02*
X117393560Y-127290447D01*
X117393560Y-127290447D02*
X117412608Y-127280923D01*
X117584037Y-127480923D02*
X117584037Y-127280923D01*
X117584037Y-127280923D02*
X117698322Y-127480923D01*
X117698322Y-127480923D02*
X117698322Y-127280923D01*
X117793561Y-127480923D02*
X117793561Y-127280923D01*
X117793561Y-127280923D02*
X117907846Y-127480923D01*
X117907846Y-127480923D02*
X117907846Y-127280923D01*
X118003085Y-127404733D02*
X118155466Y-127404733D01*
X107414923Y-119299486D02*
X107214923Y-119299486D01*
X107214923Y-119299486D02*
X107414923Y-119185201D01*
X107414923Y-119185201D02*
X107214923Y-119185201D01*
X107414923Y-118975677D02*
X107319685Y-119042343D01*
X107414923Y-119089962D02*
X107214923Y-119089962D01*
X107214923Y-119089962D02*
X107214923Y-119013772D01*
X107214923Y-119013772D02*
X107224447Y-118994724D01*
X107224447Y-118994724D02*
X107233971Y-118985201D01*
X107233971Y-118985201D02*
X107253019Y-118975677D01*
X107253019Y-118975677D02*
X107281590Y-118975677D01*
X107281590Y-118975677D02*
X107300638Y-118985201D01*
X107300638Y-118985201D02*
X107310161Y-118994724D01*
X107310161Y-118994724D02*
X107319685Y-119013772D01*
X107319685Y-119013772D02*
X107319685Y-119089962D01*
X107405400Y-118899486D02*
X107414923Y-118870915D01*
X107414923Y-118870915D02*
X107414923Y-118823296D01*
X107414923Y-118823296D02*
X107405400Y-118804248D01*
X107405400Y-118804248D02*
X107395876Y-118794724D01*
X107395876Y-118794724D02*
X107376828Y-118785201D01*
X107376828Y-118785201D02*
X107357780Y-118785201D01*
X107357780Y-118785201D02*
X107338733Y-118794724D01*
X107338733Y-118794724D02*
X107329209Y-118804248D01*
X107329209Y-118804248D02*
X107319685Y-118823296D01*
X107319685Y-118823296D02*
X107310161Y-118861391D01*
X107310161Y-118861391D02*
X107300638Y-118880439D01*
X107300638Y-118880439D02*
X107291114Y-118889962D01*
X107291114Y-118889962D02*
X107272066Y-118899486D01*
X107272066Y-118899486D02*
X107253019Y-118899486D01*
X107253019Y-118899486D02*
X107233971Y-118889962D01*
X107233971Y-118889962D02*
X107224447Y-118880439D01*
X107224447Y-118880439D02*
X107214923Y-118861391D01*
X107214923Y-118861391D02*
X107214923Y-118813772D01*
X107214923Y-118813772D02*
X107224447Y-118785201D01*
X107214923Y-118728058D02*
X107214923Y-118613772D01*
X107414923Y-118670915D02*
X107214923Y-118670915D01*
X93943400Y-119055010D02*
X93952923Y-119026439D01*
X93952923Y-119026439D02*
X93952923Y-118978820D01*
X93952923Y-118978820D02*
X93943400Y-118959772D01*
X93943400Y-118959772D02*
X93933876Y-118950248D01*
X93933876Y-118950248D02*
X93914828Y-118940725D01*
X93914828Y-118940725D02*
X93895780Y-118940725D01*
X93895780Y-118940725D02*
X93876733Y-118950248D01*
X93876733Y-118950248D02*
X93867209Y-118959772D01*
X93867209Y-118959772D02*
X93857685Y-118978820D01*
X93857685Y-118978820D02*
X93848161Y-119016915D01*
X93848161Y-119016915D02*
X93838638Y-119035963D01*
X93838638Y-119035963D02*
X93829114Y-119045486D01*
X93829114Y-119045486D02*
X93810066Y-119055010D01*
X93810066Y-119055010D02*
X93791019Y-119055010D01*
X93791019Y-119055010D02*
X93771971Y-119045486D01*
X93771971Y-119045486D02*
X93762447Y-119035963D01*
X93762447Y-119035963D02*
X93752923Y-119016915D01*
X93752923Y-119016915D02*
X93752923Y-118969296D01*
X93752923Y-118969296D02*
X93762447Y-118940725D01*
X93952923Y-118855010D02*
X93752923Y-118855010D01*
X93752923Y-118855010D02*
X93752923Y-118807391D01*
X93752923Y-118807391D02*
X93762447Y-118778820D01*
X93762447Y-118778820D02*
X93781495Y-118759772D01*
X93781495Y-118759772D02*
X93800542Y-118750249D01*
X93800542Y-118750249D02*
X93838638Y-118740725D01*
X93838638Y-118740725D02*
X93867209Y-118740725D01*
X93867209Y-118740725D02*
X93905304Y-118750249D01*
X93905304Y-118750249D02*
X93924352Y-118759772D01*
X93924352Y-118759772D02*
X93943400Y-118778820D01*
X93943400Y-118778820D02*
X93952923Y-118807391D01*
X93952923Y-118807391D02*
X93952923Y-118855010D01*
X93895780Y-118664534D02*
X93895780Y-118569296D01*
X93952923Y-118683582D02*
X93752923Y-118616915D01*
X93752923Y-118616915D02*
X93952923Y-118550249D01*
D10*
X115351160Y-114884200D02*
X115494017Y-114931819D01*
X115494017Y-114931819D02*
X115732112Y-114931819D01*
X115732112Y-114931819D02*
X115827350Y-114884200D01*
X115827350Y-114884200D02*
X115874969Y-114836580D01*
X115874969Y-114836580D02*
X115922588Y-114741342D01*
X115922588Y-114741342D02*
X115922588Y-114646104D01*
X115922588Y-114646104D02*
X115874969Y-114550866D01*
X115874969Y-114550866D02*
X115827350Y-114503247D01*
X115827350Y-114503247D02*
X115732112Y-114455628D01*
X115732112Y-114455628D02*
X115541636Y-114408009D01*
X115541636Y-114408009D02*
X115446398Y-114360390D01*
X115446398Y-114360390D02*
X115398779Y-114312771D01*
X115398779Y-114312771D02*
X115351160Y-114217533D01*
X115351160Y-114217533D02*
X115351160Y-114122295D01*
X115351160Y-114122295D02*
X115398779Y-114027057D01*
X115398779Y-114027057D02*
X115446398Y-113979438D01*
X115446398Y-113979438D02*
X115541636Y-113931819D01*
X115541636Y-113931819D02*
X115779731Y-113931819D01*
X115779731Y-113931819D02*
X115922588Y-113979438D01*
X116255922Y-113931819D02*
X116494017Y-114931819D01*
X116494017Y-114931819D02*
X116684493Y-114217533D01*
X116684493Y-114217533D02*
X116874969Y-114931819D01*
X116874969Y-114931819D02*
X117113065Y-113931819D01*
X117494017Y-114931819D02*
X117494017Y-113931819D01*
X117494017Y-113931819D02*
X117732112Y-113931819D01*
X117732112Y-113931819D02*
X117874969Y-113979438D01*
X117874969Y-113979438D02*
X117970207Y-114074676D01*
X117970207Y-114074676D02*
X118017826Y-114169914D01*
X118017826Y-114169914D02*
X118065445Y-114360390D01*
X118065445Y-114360390D02*
X118065445Y-114503247D01*
X118065445Y-114503247D02*
X118017826Y-114693723D01*
X118017826Y-114693723D02*
X117970207Y-114788961D01*
X117970207Y-114788961D02*
X117874969Y-114884200D01*
X117874969Y-114884200D02*
X117732112Y-114931819D01*
X117732112Y-114931819D02*
X117494017Y-114931819D01*
D11*
X95213400Y-126675010D02*
X95222923Y-126646439D01*
X95222923Y-126646439D02*
X95222923Y-126598820D01*
X95222923Y-126598820D02*
X95213400Y-126579772D01*
X95213400Y-126579772D02*
X95203876Y-126570248D01*
X95203876Y-126570248D02*
X95184828Y-126560725D01*
X95184828Y-126560725D02*
X95165780Y-126560725D01*
X95165780Y-126560725D02*
X95146733Y-126570248D01*
X95146733Y-126570248D02*
X95137209Y-126579772D01*
X95137209Y-126579772D02*
X95127685Y-126598820D01*
X95127685Y-126598820D02*
X95118161Y-126636915D01*
X95118161Y-126636915D02*
X95108638Y-126655963D01*
X95108638Y-126655963D02*
X95099114Y-126665486D01*
X95099114Y-126665486D02*
X95080066Y-126675010D01*
X95080066Y-126675010D02*
X95061019Y-126675010D01*
X95061019Y-126675010D02*
X95041971Y-126665486D01*
X95041971Y-126665486D02*
X95032447Y-126655963D01*
X95032447Y-126655963D02*
X95022923Y-126636915D01*
X95022923Y-126636915D02*
X95022923Y-126589296D01*
X95022923Y-126589296D02*
X95032447Y-126560725D01*
X95203876Y-126360725D02*
X95213400Y-126370249D01*
X95213400Y-126370249D02*
X95222923Y-126398820D01*
X95222923Y-126398820D02*
X95222923Y-126417868D01*
X95222923Y-126417868D02*
X95213400Y-126446439D01*
X95213400Y-126446439D02*
X95194352Y-126465487D01*
X95194352Y-126465487D02*
X95175304Y-126475010D01*
X95175304Y-126475010D02*
X95137209Y-126484534D01*
X95137209Y-126484534D02*
X95108638Y-126484534D01*
X95108638Y-126484534D02*
X95070542Y-126475010D01*
X95070542Y-126475010D02*
X95051495Y-126465487D01*
X95051495Y-126465487D02*
X95032447Y-126446439D01*
X95032447Y-126446439D02*
X95022923Y-126417868D01*
X95022923Y-126417868D02*
X95022923Y-126398820D01*
X95022923Y-126398820D02*
X95032447Y-126370249D01*
X95032447Y-126370249D02*
X95041971Y-126360725D01*
X95222923Y-126179772D02*
X95222923Y-126275010D01*
X95222923Y-126275010D02*
X95022923Y-126275010D01*
D10*
X90309819Y-150539220D02*
X91119342Y-150539220D01*
X91119342Y-150539220D02*
X91214580Y-150491601D01*
X91214580Y-150491601D02*
X91262200Y-150443982D01*
X91262200Y-150443982D02*
X91309819Y-150348744D01*
X91309819Y-150348744D02*
X91309819Y-150158268D01*
X91309819Y-150158268D02*
X91262200Y-150063030D01*
X91262200Y-150063030D02*
X91214580Y-150015411D01*
X91214580Y-150015411D02*
X91119342Y-149967792D01*
X91119342Y-149967792D02*
X90309819Y-149967792D01*
X91024104Y-149539220D02*
X91024104Y-149063030D01*
X91309819Y-149634458D02*
X90309819Y-149301125D01*
X90309819Y-149301125D02*
X91309819Y-148967792D01*
X91309819Y-148063030D02*
X90833628Y-148396363D01*
X91309819Y-148634458D02*
X90309819Y-148634458D01*
X90309819Y-148634458D02*
X90309819Y-148253506D01*
X90309819Y-148253506D02*
X90357438Y-148158268D01*
X90357438Y-148158268D02*
X90405057Y-148110649D01*
X90405057Y-148110649D02*
X90500295Y-148063030D01*
X90500295Y-148063030D02*
X90643152Y-148063030D01*
X90643152Y-148063030D02*
X90738390Y-148110649D01*
X90738390Y-148110649D02*
X90786009Y-148158268D01*
X90786009Y-148158268D02*
X90833628Y-148253506D01*
X90833628Y-148253506D02*
X90833628Y-148634458D01*
X90309819Y-147777315D02*
X90309819Y-147205887D01*
X91309819Y-147491601D02*
X90309819Y-147491601D01*
D11*
X112231400Y-119563010D02*
X112240923Y-119534439D01*
X112240923Y-119534439D02*
X112240923Y-119486820D01*
X112240923Y-119486820D02*
X112231400Y-119467772D01*
X112231400Y-119467772D02*
X112221876Y-119458248D01*
X112221876Y-119458248D02*
X112202828Y-119448725D01*
X112202828Y-119448725D02*
X112183780Y-119448725D01*
X112183780Y-119448725D02*
X112164733Y-119458248D01*
X112164733Y-119458248D02*
X112155209Y-119467772D01*
X112155209Y-119467772D02*
X112145685Y-119486820D01*
X112145685Y-119486820D02*
X112136161Y-119524915D01*
X112136161Y-119524915D02*
X112126638Y-119543963D01*
X112126638Y-119543963D02*
X112117114Y-119553486D01*
X112117114Y-119553486D02*
X112098066Y-119563010D01*
X112098066Y-119563010D02*
X112079019Y-119563010D01*
X112079019Y-119563010D02*
X112059971Y-119553486D01*
X112059971Y-119553486D02*
X112050447Y-119543963D01*
X112050447Y-119543963D02*
X112040923Y-119524915D01*
X112040923Y-119524915D02*
X112040923Y-119477296D01*
X112040923Y-119477296D02*
X112050447Y-119448725D01*
X112040923Y-119382058D02*
X112240923Y-119334439D01*
X112240923Y-119334439D02*
X112098066Y-119296344D01*
X112098066Y-119296344D02*
X112240923Y-119258249D01*
X112240923Y-119258249D02*
X112040923Y-119210630D01*
X112221876Y-119020154D02*
X112231400Y-119029678D01*
X112231400Y-119029678D02*
X112240923Y-119058249D01*
X112240923Y-119058249D02*
X112240923Y-119077297D01*
X112240923Y-119077297D02*
X112231400Y-119105868D01*
X112231400Y-119105868D02*
X112212352Y-119124916D01*
X112212352Y-119124916D02*
X112193304Y-119134439D01*
X112193304Y-119134439D02*
X112155209Y-119143963D01*
X112155209Y-119143963D02*
X112126638Y-119143963D01*
X112126638Y-119143963D02*
X112088542Y-119134439D01*
X112088542Y-119134439D02*
X112069495Y-119124916D01*
X112069495Y-119124916D02*
X112050447Y-119105868D01*
X112050447Y-119105868D02*
X112040923Y-119077297D01*
X112040923Y-119077297D02*
X112040923Y-119058249D01*
X112040923Y-119058249D02*
X112050447Y-119029678D01*
X112050447Y-119029678D02*
X112059971Y-119020154D01*
X112240923Y-118839201D02*
X112240923Y-118934439D01*
X112240923Y-118934439D02*
X112040923Y-118934439D01*
X112240923Y-118772534D02*
X112040923Y-118772534D01*
X112240923Y-118658249D02*
X112126638Y-118743963D01*
X112040923Y-118658249D02*
X112155209Y-118772534D01*
X123892798Y-126445876D02*
X123883274Y-126455400D01*
X123883274Y-126455400D02*
X123854703Y-126464923D01*
X123854703Y-126464923D02*
X123835655Y-126464923D01*
X123835655Y-126464923D02*
X123807084Y-126455400D01*
X123807084Y-126455400D02*
X123788036Y-126436352D01*
X123788036Y-126436352D02*
X123778513Y-126417304D01*
X123778513Y-126417304D02*
X123768989Y-126379209D01*
X123768989Y-126379209D02*
X123768989Y-126350638D01*
X123768989Y-126350638D02*
X123778513Y-126312542D01*
X123778513Y-126312542D02*
X123788036Y-126293495D01*
X123788036Y-126293495D02*
X123807084Y-126274447D01*
X123807084Y-126274447D02*
X123835655Y-126264923D01*
X123835655Y-126264923D02*
X123854703Y-126264923D01*
X123854703Y-126264923D02*
X123883274Y-126274447D01*
X123883274Y-126274447D02*
X123892798Y-126283971D01*
X124016608Y-126264923D02*
X124054703Y-126264923D01*
X124054703Y-126264923D02*
X124073751Y-126274447D01*
X124073751Y-126274447D02*
X124092798Y-126293495D01*
X124092798Y-126293495D02*
X124102322Y-126331590D01*
X124102322Y-126331590D02*
X124102322Y-126398257D01*
X124102322Y-126398257D02*
X124092798Y-126436352D01*
X124092798Y-126436352D02*
X124073751Y-126455400D01*
X124073751Y-126455400D02*
X124054703Y-126464923D01*
X124054703Y-126464923D02*
X124016608Y-126464923D01*
X124016608Y-126464923D02*
X123997560Y-126455400D01*
X123997560Y-126455400D02*
X123978513Y-126436352D01*
X123978513Y-126436352D02*
X123968989Y-126398257D01*
X123968989Y-126398257D02*
X123968989Y-126331590D01*
X123968989Y-126331590D02*
X123978513Y-126293495D01*
X123978513Y-126293495D02*
X123997560Y-126274447D01*
X123997560Y-126274447D02*
X124016608Y-126264923D01*
X124188037Y-126464923D02*
X124188037Y-126264923D01*
X124188037Y-126264923D02*
X124302322Y-126464923D01*
X124302322Y-126464923D02*
X124302322Y-126264923D01*
X124397561Y-126464923D02*
X124397561Y-126264923D01*
X124397561Y-126264923D02*
X124511846Y-126464923D01*
X124511846Y-126464923D02*
X124511846Y-126264923D01*
X124607085Y-126388733D02*
X124759466Y-126388733D01*
X124683275Y-126464923D02*
X124683275Y-126312542D01*
D10*
X99142779Y-114931819D02*
X99142779Y-113931819D01*
X99571350Y-114027057D02*
X99618969Y-113979438D01*
X99618969Y-113979438D02*
X99714207Y-113931819D01*
X99714207Y-113931819D02*
X99952302Y-113931819D01*
X99952302Y-113931819D02*
X100047540Y-113979438D01*
X100047540Y-113979438D02*
X100095159Y-114027057D01*
X100095159Y-114027057D02*
X100142778Y-114122295D01*
X100142778Y-114122295D02*
X100142778Y-114217533D01*
X100142778Y-114217533D02*
X100095159Y-114360390D01*
X100095159Y-114360390D02*
X99523731Y-114931819D01*
X99523731Y-114931819D02*
X100142778Y-114931819D01*
X101142778Y-114836580D02*
X101095159Y-114884200D01*
X101095159Y-114884200D02*
X100952302Y-114931819D01*
X100952302Y-114931819D02*
X100857064Y-114931819D01*
X100857064Y-114931819D02*
X100714207Y-114884200D01*
X100714207Y-114884200D02*
X100618969Y-114788961D01*
X100618969Y-114788961D02*
X100571350Y-114693723D01*
X100571350Y-114693723D02*
X100523731Y-114503247D01*
X100523731Y-114503247D02*
X100523731Y-114360390D01*
X100523731Y-114360390D02*
X100571350Y-114169914D01*
X100571350Y-114169914D02*
X100618969Y-114074676D01*
X100618969Y-114074676D02*
X100714207Y-113979438D01*
X100714207Y-113979438D02*
X100857064Y-113931819D01*
X100857064Y-113931819D02*
X100952302Y-113931819D01*
X100952302Y-113931819D02*
X101095159Y-113979438D01*
X101095159Y-113979438D02*
X101142778Y-114027057D01*
X124796779Y-131203819D02*
X124796779Y-132013342D01*
X124796779Y-132013342D02*
X124844398Y-132108580D01*
X124844398Y-132108580D02*
X124892017Y-132156200D01*
X124892017Y-132156200D02*
X124987255Y-132203819D01*
X124987255Y-132203819D02*
X125177731Y-132203819D01*
X125177731Y-132203819D02*
X125272969Y-132156200D01*
X125272969Y-132156200D02*
X125320588Y-132108580D01*
X125320588Y-132108580D02*
X125368207Y-132013342D01*
X125368207Y-132013342D02*
X125368207Y-131203819D01*
X125796779Y-132156200D02*
X125939636Y-132203819D01*
X125939636Y-132203819D02*
X126177731Y-132203819D01*
X126177731Y-132203819D02*
X126272969Y-132156200D01*
X126272969Y-132156200D02*
X126320588Y-132108580D01*
X126320588Y-132108580D02*
X126368207Y-132013342D01*
X126368207Y-132013342D02*
X126368207Y-131918104D01*
X126368207Y-131918104D02*
X126320588Y-131822866D01*
X126320588Y-131822866D02*
X126272969Y-131775247D01*
X126272969Y-131775247D02*
X126177731Y-131727628D01*
X126177731Y-131727628D02*
X125987255Y-131680009D01*
X125987255Y-131680009D02*
X125892017Y-131632390D01*
X125892017Y-131632390D02*
X125844398Y-131584771D01*
X125844398Y-131584771D02*
X125796779Y-131489533D01*
X125796779Y-131489533D02*
X125796779Y-131394295D01*
X125796779Y-131394295D02*
X125844398Y-131299057D01*
X125844398Y-131299057D02*
X125892017Y-131251438D01*
X125892017Y-131251438D02*
X125987255Y-131203819D01*
X125987255Y-131203819D02*
X126225350Y-131203819D01*
X126225350Y-131203819D02*
X126368207Y-131251438D01*
X127130112Y-131680009D02*
X127272969Y-131727628D01*
X127272969Y-131727628D02*
X127320588Y-131775247D01*
X127320588Y-131775247D02*
X127368207Y-131870485D01*
X127368207Y-131870485D02*
X127368207Y-132013342D01*
X127368207Y-132013342D02*
X127320588Y-132108580D01*
X127320588Y-132108580D02*
X127272969Y-132156200D01*
X127272969Y-132156200D02*
X127177731Y-132203819D01*
X127177731Y-132203819D02*
X126796779Y-132203819D01*
X126796779Y-132203819D02*
X126796779Y-131203819D01*
X126796779Y-131203819D02*
X127130112Y-131203819D01*
X127130112Y-131203819D02*
X127225350Y-131251438D01*
X127225350Y-131251438D02*
X127272969Y-131299057D01*
X127272969Y-131299057D02*
X127320588Y-131394295D01*
X127320588Y-131394295D02*
X127320588Y-131489533D01*
X127320588Y-131489533D02*
X127272969Y-131584771D01*
X127272969Y-131584771D02*
X127225350Y-131632390D01*
X127225350Y-131632390D02*
X127130112Y-131680009D01*
X127130112Y-131680009D02*
X126796779Y-131680009D01*
D11*
X95467400Y-119055010D02*
X95476923Y-119026439D01*
X95476923Y-119026439D02*
X95476923Y-118978820D01*
X95476923Y-118978820D02*
X95467400Y-118959772D01*
X95467400Y-118959772D02*
X95457876Y-118950248D01*
X95457876Y-118950248D02*
X95438828Y-118940725D01*
X95438828Y-118940725D02*
X95419780Y-118940725D01*
X95419780Y-118940725D02*
X95400733Y-118950248D01*
X95400733Y-118950248D02*
X95391209Y-118959772D01*
X95391209Y-118959772D02*
X95381685Y-118978820D01*
X95381685Y-118978820D02*
X95372161Y-119016915D01*
X95372161Y-119016915D02*
X95362638Y-119035963D01*
X95362638Y-119035963D02*
X95353114Y-119045486D01*
X95353114Y-119045486D02*
X95334066Y-119055010D01*
X95334066Y-119055010D02*
X95315019Y-119055010D01*
X95315019Y-119055010D02*
X95295971Y-119045486D01*
X95295971Y-119045486D02*
X95286447Y-119035963D01*
X95286447Y-119035963D02*
X95276923Y-119016915D01*
X95276923Y-119016915D02*
X95276923Y-118969296D01*
X95276923Y-118969296D02*
X95286447Y-118940725D01*
X95457876Y-118740725D02*
X95467400Y-118750249D01*
X95467400Y-118750249D02*
X95476923Y-118778820D01*
X95476923Y-118778820D02*
X95476923Y-118797868D01*
X95476923Y-118797868D02*
X95467400Y-118826439D01*
X95467400Y-118826439D02*
X95448352Y-118845487D01*
X95448352Y-118845487D02*
X95429304Y-118855010D01*
X95429304Y-118855010D02*
X95391209Y-118864534D01*
X95391209Y-118864534D02*
X95362638Y-118864534D01*
X95362638Y-118864534D02*
X95324542Y-118855010D01*
X95324542Y-118855010D02*
X95305495Y-118845487D01*
X95305495Y-118845487D02*
X95286447Y-118826439D01*
X95286447Y-118826439D02*
X95276923Y-118797868D01*
X95276923Y-118797868D02*
X95276923Y-118778820D01*
X95276923Y-118778820D02*
X95286447Y-118750249D01*
X95286447Y-118750249D02*
X95295971Y-118740725D01*
X95476923Y-118559772D02*
X95476923Y-118655010D01*
X95476923Y-118655010D02*
X95276923Y-118655010D01*
X94705400Y-126675010D02*
X94714923Y-126646439D01*
X94714923Y-126646439D02*
X94714923Y-126598820D01*
X94714923Y-126598820D02*
X94705400Y-126579772D01*
X94705400Y-126579772D02*
X94695876Y-126570248D01*
X94695876Y-126570248D02*
X94676828Y-126560725D01*
X94676828Y-126560725D02*
X94657780Y-126560725D01*
X94657780Y-126560725D02*
X94638733Y-126570248D01*
X94638733Y-126570248D02*
X94629209Y-126579772D01*
X94629209Y-126579772D02*
X94619685Y-126598820D01*
X94619685Y-126598820D02*
X94610161Y-126636915D01*
X94610161Y-126636915D02*
X94600638Y-126655963D01*
X94600638Y-126655963D02*
X94591114Y-126665486D01*
X94591114Y-126665486D02*
X94572066Y-126675010D01*
X94572066Y-126675010D02*
X94553019Y-126675010D01*
X94553019Y-126675010D02*
X94533971Y-126665486D01*
X94533971Y-126665486D02*
X94524447Y-126655963D01*
X94524447Y-126655963D02*
X94514923Y-126636915D01*
X94514923Y-126636915D02*
X94514923Y-126589296D01*
X94514923Y-126589296D02*
X94524447Y-126560725D01*
X94714923Y-126475010D02*
X94514923Y-126475010D01*
X94514923Y-126475010D02*
X94514923Y-126427391D01*
X94514923Y-126427391D02*
X94524447Y-126398820D01*
X94524447Y-126398820D02*
X94543495Y-126379772D01*
X94543495Y-126379772D02*
X94562542Y-126370249D01*
X94562542Y-126370249D02*
X94600638Y-126360725D01*
X94600638Y-126360725D02*
X94629209Y-126360725D01*
X94629209Y-126360725D02*
X94667304Y-126370249D01*
X94667304Y-126370249D02*
X94686352Y-126379772D01*
X94686352Y-126379772D02*
X94705400Y-126398820D01*
X94705400Y-126398820D02*
X94714923Y-126427391D01*
X94714923Y-126427391D02*
X94714923Y-126475010D01*
X94657780Y-126284534D02*
X94657780Y-126189296D01*
X94714923Y-126303582D02*
X94514923Y-126236915D01*
X94514923Y-126236915D02*
X94714923Y-126170249D01*
D12*
X106847385Y-126907800D02*
X106847385Y-126722086D01*
X106847385Y-126722086D02*
X106961671Y-126822086D01*
X106961671Y-126822086D02*
X106961671Y-126779229D01*
X106961671Y-126779229D02*
X106975957Y-126750658D01*
X106975957Y-126750658D02*
X106990242Y-126736372D01*
X106990242Y-126736372D02*
X107018814Y-126722086D01*
X107018814Y-126722086D02*
X107090242Y-126722086D01*
X107090242Y-126722086D02*
X107118814Y-126736372D01*
X107118814Y-126736372D02*
X107133100Y-126750658D01*
X107133100Y-126750658D02*
X107147385Y-126779229D01*
X107147385Y-126779229D02*
X107147385Y-126864943D01*
X107147385Y-126864943D02*
X107133100Y-126893515D01*
X107133100Y-126893515D02*
X107118814Y-126907800D01*
X107118814Y-126593515D02*
X107133100Y-126579229D01*
X107133100Y-126579229D02*
X107147385Y-126593515D01*
X107147385Y-126593515D02*
X107133100Y-126607801D01*
X107133100Y-126607801D02*
X107118814Y-126593515D01*
X107118814Y-126593515D02*
X107147385Y-126593515D01*
X106847385Y-126479229D02*
X106847385Y-126293515D01*
X106847385Y-126293515D02*
X106961671Y-126393515D01*
X106961671Y-126393515D02*
X106961671Y-126350658D01*
X106961671Y-126350658D02*
X106975957Y-126322087D01*
X106975957Y-126322087D02*
X106990242Y-126307801D01*
X106990242Y-126307801D02*
X107018814Y-126293515D01*
X107018814Y-126293515D02*
X107090242Y-126293515D01*
X107090242Y-126293515D02*
X107118814Y-126307801D01*
X107118814Y-126307801D02*
X107133100Y-126322087D01*
X107133100Y-126322087D02*
X107147385Y-126350658D01*
X107147385Y-126350658D02*
X107147385Y-126436372D01*
X107147385Y-126436372D02*
X107133100Y-126464944D01*
X107133100Y-126464944D02*
X107118814Y-126479229D01*
X106847385Y-126207801D02*
X107147385Y-126107801D01*
X107147385Y-126107801D02*
X106847385Y-126007801D01*
D11*
X123892798Y-127207876D02*
X123883274Y-127217400D01*
X123883274Y-127217400D02*
X123854703Y-127226923D01*
X123854703Y-127226923D02*
X123835655Y-127226923D01*
X123835655Y-127226923D02*
X123807084Y-127217400D01*
X123807084Y-127217400D02*
X123788036Y-127198352D01*
X123788036Y-127198352D02*
X123778513Y-127179304D01*
X123778513Y-127179304D02*
X123768989Y-127141209D01*
X123768989Y-127141209D02*
X123768989Y-127112638D01*
X123768989Y-127112638D02*
X123778513Y-127074542D01*
X123778513Y-127074542D02*
X123788036Y-127055495D01*
X123788036Y-127055495D02*
X123807084Y-127036447D01*
X123807084Y-127036447D02*
X123835655Y-127026923D01*
X123835655Y-127026923D02*
X123854703Y-127026923D01*
X123854703Y-127026923D02*
X123883274Y-127036447D01*
X123883274Y-127036447D02*
X123892798Y-127045971D01*
X124016608Y-127026923D02*
X124054703Y-127026923D01*
X124054703Y-127026923D02*
X124073751Y-127036447D01*
X124073751Y-127036447D02*
X124092798Y-127055495D01*
X124092798Y-127055495D02*
X124102322Y-127093590D01*
X124102322Y-127093590D02*
X124102322Y-127160257D01*
X124102322Y-127160257D02*
X124092798Y-127198352D01*
X124092798Y-127198352D02*
X124073751Y-127217400D01*
X124073751Y-127217400D02*
X124054703Y-127226923D01*
X124054703Y-127226923D02*
X124016608Y-127226923D01*
X124016608Y-127226923D02*
X123997560Y-127217400D01*
X123997560Y-127217400D02*
X123978513Y-127198352D01*
X123978513Y-127198352D02*
X123968989Y-127160257D01*
X123968989Y-127160257D02*
X123968989Y-127093590D01*
X123968989Y-127093590D02*
X123978513Y-127055495D01*
X123978513Y-127055495D02*
X123997560Y-127036447D01*
X123997560Y-127036447D02*
X124016608Y-127026923D01*
X124188037Y-127226923D02*
X124188037Y-127026923D01*
X124188037Y-127026923D02*
X124302322Y-127226923D01*
X124302322Y-127226923D02*
X124302322Y-127026923D01*
X124397561Y-127226923D02*
X124397561Y-127026923D01*
X124397561Y-127026923D02*
X124511846Y-127226923D01*
X124511846Y-127226923D02*
X124511846Y-127026923D01*
X124607085Y-127150733D02*
X124759466Y-127150733D01*
X93752923Y-145734534D02*
X93752923Y-145610725D01*
X93752923Y-145610725D02*
X93829114Y-145677391D01*
X93829114Y-145677391D02*
X93829114Y-145648820D01*
X93829114Y-145648820D02*
X93838638Y-145629772D01*
X93838638Y-145629772D02*
X93848161Y-145620248D01*
X93848161Y-145620248D02*
X93867209Y-145610725D01*
X93867209Y-145610725D02*
X93914828Y-145610725D01*
X93914828Y-145610725D02*
X93933876Y-145620248D01*
X93933876Y-145620248D02*
X93943400Y-145629772D01*
X93943400Y-145629772D02*
X93952923Y-145648820D01*
X93952923Y-145648820D02*
X93952923Y-145705963D01*
X93952923Y-145705963D02*
X93943400Y-145725010D01*
X93943400Y-145725010D02*
X93933876Y-145734534D01*
X93933876Y-145525010D02*
X93943400Y-145515487D01*
X93943400Y-145515487D02*
X93952923Y-145525010D01*
X93952923Y-145525010D02*
X93943400Y-145534534D01*
X93943400Y-145534534D02*
X93933876Y-145525010D01*
X93933876Y-145525010D02*
X93952923Y-145525010D01*
X93752923Y-145448820D02*
X93752923Y-145325011D01*
X93752923Y-145325011D02*
X93829114Y-145391677D01*
X93829114Y-145391677D02*
X93829114Y-145363106D01*
X93829114Y-145363106D02*
X93838638Y-145344058D01*
X93838638Y-145344058D02*
X93848161Y-145334534D01*
X93848161Y-145334534D02*
X93867209Y-145325011D01*
X93867209Y-145325011D02*
X93914828Y-145325011D01*
X93914828Y-145325011D02*
X93933876Y-145334534D01*
X93933876Y-145334534D02*
X93943400Y-145344058D01*
X93943400Y-145344058D02*
X93952923Y-145363106D01*
X93952923Y-145363106D02*
X93952923Y-145420249D01*
X93952923Y-145420249D02*
X93943400Y-145439296D01*
X93943400Y-145439296D02*
X93933876Y-145448820D01*
X93819590Y-145258344D02*
X93952923Y-145210725D01*
X93952923Y-145210725D02*
X93819590Y-145163106D01*
X95984923Y-145601201D02*
X95889685Y-145667867D01*
X95984923Y-145715486D02*
X95784923Y-145715486D01*
X95784923Y-145715486D02*
X95784923Y-145639296D01*
X95784923Y-145639296D02*
X95794447Y-145620248D01*
X95794447Y-145620248D02*
X95803971Y-145610725D01*
X95803971Y-145610725D02*
X95823019Y-145601201D01*
X95823019Y-145601201D02*
X95851590Y-145601201D01*
X95851590Y-145601201D02*
X95870638Y-145610725D01*
X95870638Y-145610725D02*
X95880161Y-145620248D01*
X95880161Y-145620248D02*
X95889685Y-145639296D01*
X95889685Y-145639296D02*
X95889685Y-145715486D01*
X95784923Y-145534534D02*
X95984923Y-145401201D01*
X95784923Y-145401201D02*
X95984923Y-145534534D01*
X110453400Y-119309010D02*
X110462923Y-119280439D01*
X110462923Y-119280439D02*
X110462923Y-119232820D01*
X110462923Y-119232820D02*
X110453400Y-119213772D01*
X110453400Y-119213772D02*
X110443876Y-119204248D01*
X110443876Y-119204248D02*
X110424828Y-119194725D01*
X110424828Y-119194725D02*
X110405780Y-119194725D01*
X110405780Y-119194725D02*
X110386733Y-119204248D01*
X110386733Y-119204248D02*
X110377209Y-119213772D01*
X110377209Y-119213772D02*
X110367685Y-119232820D01*
X110367685Y-119232820D02*
X110358161Y-119270915D01*
X110358161Y-119270915D02*
X110348638Y-119289963D01*
X110348638Y-119289963D02*
X110339114Y-119299486D01*
X110339114Y-119299486D02*
X110320066Y-119309010D01*
X110320066Y-119309010D02*
X110301019Y-119309010D01*
X110301019Y-119309010D02*
X110281971Y-119299486D01*
X110281971Y-119299486D02*
X110272447Y-119289963D01*
X110272447Y-119289963D02*
X110262923Y-119270915D01*
X110262923Y-119270915D02*
X110262923Y-119223296D01*
X110262923Y-119223296D02*
X110272447Y-119194725D01*
X110262923Y-119128058D02*
X110462923Y-119080439D01*
X110462923Y-119080439D02*
X110320066Y-119042344D01*
X110320066Y-119042344D02*
X110462923Y-119004249D01*
X110462923Y-119004249D02*
X110262923Y-118956630D01*
X110262923Y-118842344D02*
X110262923Y-118804249D01*
X110262923Y-118804249D02*
X110272447Y-118785201D01*
X110272447Y-118785201D02*
X110291495Y-118766154D01*
X110291495Y-118766154D02*
X110329590Y-118756630D01*
X110329590Y-118756630D02*
X110396257Y-118756630D01*
X110396257Y-118756630D02*
X110434352Y-118766154D01*
X110434352Y-118766154D02*
X110453400Y-118785201D01*
X110453400Y-118785201D02*
X110462923Y-118804249D01*
X110462923Y-118804249D02*
X110462923Y-118842344D01*
X110462923Y-118842344D02*
X110453400Y-118861392D01*
X110453400Y-118861392D02*
X110434352Y-118880439D01*
X110434352Y-118880439D02*
X110396257Y-118889963D01*
X110396257Y-118889963D02*
X110329590Y-118889963D01*
X110329590Y-118889963D02*
X110291495Y-118880439D01*
X110291495Y-118880439D02*
X110272447Y-118861392D01*
X110272447Y-118861392D02*
X110262923Y-118842344D01*
D10*
X107090819Y-141090166D02*
X107090819Y-141566356D01*
X107090819Y-141566356D02*
X106090819Y-141566356D01*
X106186057Y-140804451D02*
X106138438Y-140756832D01*
X106138438Y-140756832D02*
X106090819Y-140661594D01*
X106090819Y-140661594D02*
X106090819Y-140423499D01*
X106090819Y-140423499D02*
X106138438Y-140328261D01*
X106138438Y-140328261D02*
X106186057Y-140280642D01*
X106186057Y-140280642D02*
X106281295Y-140233023D01*
X106281295Y-140233023D02*
X106376533Y-140233023D01*
X106376533Y-140233023D02*
X106519390Y-140280642D01*
X106519390Y-140280642D02*
X107090819Y-140852070D01*
X107090819Y-140852070D02*
X107090819Y-140233023D01*
X83399333Y-137216819D02*
X82923143Y-137216819D01*
X82923143Y-137216819D02*
X82923143Y-136216819D01*
X84256476Y-137216819D02*
X83685048Y-137216819D01*
X83970762Y-137216819D02*
X83970762Y-136216819D01*
X83970762Y-136216819D02*
X83875524Y-136359676D01*
X83875524Y-136359676D02*
X83780286Y-136454914D01*
X83780286Y-136454914D02*
X83685048Y-136502533D01*
D13*
%TO.C,R6*%
X105997742Y-150477500D02*
X106472258Y-150477500D01*
X105997742Y-151522500D02*
X106472258Y-151522500D01*
%TO.C,F1*%
X115918064Y-131424000D02*
X114713936Y-131424000D01*
X115918064Y-133244000D02*
X114713936Y-133244000D01*
%TO.C,C6*%
X102282164Y-139848000D02*
X102497836Y-139848000D01*
X102282164Y-140568000D02*
X102497836Y-140568000D01*
%TO.C,R14*%
X96417641Y-122050000D02*
X96110359Y-122050000D01*
X96417641Y-122810000D02*
X96110359Y-122810000D01*
%TO.C,C1*%
X103630000Y-129921580D02*
X103630000Y-129640420D01*
X104650000Y-129921580D02*
X104650000Y-129640420D01*
%TO.C,C12*%
X82431836Y-135784000D02*
X82216164Y-135784000D01*
X82431836Y-136504000D02*
X82216164Y-136504000D01*
%TO.C,Y1*%
X80812000Y-130164000D02*
X80812000Y-134164000D01*
X84112000Y-130164000D02*
X80812000Y-130164000D01*
%TO.C,J1*%
X121300000Y-136930000D02*
X129020000Y-136930000D01*
X121300000Y-144050000D02*
X121300000Y-136930000D01*
X121300000Y-144050000D02*
X129020000Y-144050000D01*
X123185000Y-137670000D02*
X123279000Y-137764000D01*
X123391000Y-137465000D02*
X123519000Y-137594000D01*
X125401000Y-139885000D02*
X125529000Y-140014000D01*
X125641000Y-139715000D02*
X125734000Y-139809000D01*
X127460000Y-144050000D02*
X127460000Y-136930000D01*
X128560000Y-144050000D02*
X128560000Y-136930000D01*
X128620000Y-144290000D02*
X129260000Y-144290000D01*
X129020000Y-144050000D02*
X129020000Y-136930000D01*
X129260000Y-144290000D02*
X129260000Y-143890000D01*
X123034642Y-143129894D02*
G75*
G02*
X123020000Y-141374000I1425356J889894D01*
G01*
X123569807Y-140814496D02*
G75*
G02*
X125351000Y-140815000I890193J-1425507D01*
G01*
X125349894Y-143665358D02*
G75*
G02*
X123594000Y-143680000I-889894J1425356D01*
G01*
X125884721Y-141349736D02*
G75*
G02*
X126140000Y-142240000I-1424711J-890261D01*
G01*
X126140099Y-142211326D02*
G75*
G02*
X125900000Y-143106000I-1680113J-28671D01*
G01*
X126140000Y-138740000D02*
G75*
G02*
X122780000Y-138740000I-1680000J0D01*
G01*
X122780000Y-138740000D02*
G75*
G02*
X126140000Y-138740000I1680000J0D01*
G01*
%TO.C,Q1*%
X118188500Y-137124000D02*
X116513500Y-137124000D01*
X118188500Y-137124000D02*
X118838500Y-137124000D01*
X118188500Y-140244000D02*
X117538500Y-140244000D01*
X118188500Y-140244000D02*
X118838500Y-140244000D01*
%TO.C,R5*%
X118603500Y-142414258D02*
X118603500Y-141939742D01*
X119648500Y-142414258D02*
X119648500Y-141939742D01*
%TO.C,C13*%
X113490000Y-135365580D02*
X113490000Y-135084420D01*
X114510000Y-135365580D02*
X114510000Y-135084420D01*
%TO.C,R11*%
X111237500Y-120666742D02*
X111237500Y-121141258D01*
X112282500Y-120666742D02*
X112282500Y-121141258D01*
%TO.C,R15*%
X94078359Y-122048000D02*
X94385641Y-122048000D01*
X94078359Y-122808000D02*
X94385641Y-122808000D01*
%TO.C,SW1*%
X73064000Y-125582000D02*
X73064000Y-126482000D01*
X73274000Y-125382000D02*
X73064000Y-125582000D01*
X73274000Y-126682000D02*
X73064000Y-126482000D01*
X73274000Y-126682000D02*
X74564000Y-126682000D01*
X74564000Y-123932000D02*
X74564000Y-129632000D01*
X74564000Y-125382000D02*
X73274000Y-125382000D01*
X75574000Y-130232000D02*
X76364000Y-130232000D01*
X76364000Y-123332000D02*
X75574000Y-123332000D01*
X77414000Y-125182000D02*
X77414000Y-126882000D01*
X77414000Y-128182000D02*
X77414000Y-128382000D01*
%TO.C,D3*%
X105183000Y-125743500D02*
X105183000Y-128028500D01*
X106653000Y-125743500D02*
X105183000Y-125743500D01*
X106653000Y-128028500D02*
X106653000Y-125743500D01*
%TO.C,R1*%
X81433641Y-127128000D02*
X81126359Y-127128000D01*
X81433641Y-127888000D02*
X81126359Y-127888000D01*
%TO.C,C15*%
X116330000Y-145655420D02*
X116330000Y-145936580D01*
X117350000Y-145655420D02*
X117350000Y-145936580D01*
%TO.C,R10*%
X113015500Y-120666742D02*
X113015500Y-121141258D01*
X114060500Y-120666742D02*
X114060500Y-121141258D01*
%TO.C,L2*%
X107376000Y-137963500D02*
X108726000Y-137963500D01*
X107376000Y-143883500D02*
X107376000Y-137963500D01*
X107376000Y-143883500D02*
X108726000Y-143883500D01*
X113096000Y-137963500D02*
X111746000Y-137963500D01*
X113096000Y-143883500D02*
X111746000Y-143883500D01*
X113096000Y-143883500D02*
X113096000Y-137963500D01*
%TO.C,R16*%
X109203258Y-126985500D02*
X108728742Y-126985500D01*
X109203258Y-128030500D02*
X108728742Y-128030500D01*
%TO.C,R9*%
X113262742Y-150477500D02*
X113737258Y-150477500D01*
X113262742Y-151522500D02*
X113737258Y-151522500D01*
%TO.C,C8*%
X101748000Y-128349836D02*
X101748000Y-128134164D01*
X102468000Y-128349836D02*
X102468000Y-128134164D01*
%TO.C,C14*%
X107990000Y-146359420D02*
X107990000Y-146640580D01*
X109010000Y-146359420D02*
X109010000Y-146640580D01*
%TO.C,R7*%
X118095500Y-145558742D02*
X118095500Y-146033258D01*
X119140500Y-145558742D02*
X119140500Y-146033258D01*
%TO.C,C7*%
X92348164Y-124608000D02*
X92563836Y-124608000D01*
X92348164Y-125328000D02*
X92563836Y-125328000D01*
%TO.C,R3*%
X85837500Y-140508258D02*
X85837500Y-140033742D01*
X86882500Y-140508258D02*
X86882500Y-140033742D01*
%TO.C,C9*%
X84984000Y-136053836D02*
X84984000Y-135838164D01*
X85704000Y-136053836D02*
X85704000Y-135838164D01*
%TO.C,U1*%
X90735000Y-128720000D02*
X90735000Y-129670000D01*
X90735000Y-129670000D02*
X89395000Y-129670000D01*
X90735000Y-138940000D02*
X90735000Y-137990000D01*
X91685000Y-128720000D02*
X90735000Y-128720000D01*
X91685000Y-138940000D02*
X90735000Y-138940000D01*
X100005000Y-128720000D02*
X100955000Y-128720000D01*
X100005000Y-138940000D02*
X100955000Y-138940000D01*
X100955000Y-128720000D02*
X100955000Y-129670000D01*
X100955000Y-138940000D02*
X100955000Y-137990000D01*
%TO.C,J4*%
X92273000Y-146238000D02*
X92273000Y-151958000D01*
X92273000Y-151958000D02*
X95758000Y-151958000D01*
X93343000Y-146238000D02*
X92273000Y-146238000D01*
X93343000Y-146538000D02*
X93343000Y-146238000D01*
X93633000Y-145948000D02*
X93133000Y-145948000D01*
X93633000Y-146248000D02*
X93633000Y-145948000D01*
X95758000Y-146538000D02*
X93343000Y-146538000D01*
X95758000Y-146538000D02*
X98173000Y-146538000D01*
X98173000Y-146238000D02*
X99243000Y-146238000D01*
X98173000Y-146538000D02*
X98173000Y-146238000D01*
X99243000Y-146238000D02*
X99243000Y-151958000D01*
X99243000Y-151958000D02*
X95758000Y-151958000D01*
%TO.C,J2*%
X107001000Y-112617000D02*
X107001000Y-116147000D01*
X107066000Y-112617000D02*
X107001000Y-112617000D01*
X107066000Y-116147000D02*
X107001000Y-116147000D01*
X113406000Y-111292000D02*
X113406000Y-112617000D01*
X113471000Y-112617000D02*
X113406000Y-112617000D01*
X113471000Y-112617000D02*
X113471000Y-116147000D01*
X113471000Y-116147000D02*
X113406000Y-116147000D01*
%TO.C,R2*%
X87529641Y-132208000D02*
X87222359Y-132208000D01*
X87529641Y-132968000D02*
X87222359Y-132968000D01*
%TO.C,C16*%
X108359420Y-135490000D02*
X108640580Y-135490000D01*
X108359420Y-136510000D02*
X108640580Y-136510000D01*
%TO.C,R4*%
X116571500Y-141939742D02*
X116571500Y-142414258D01*
X117616500Y-141939742D02*
X117616500Y-142414258D01*
%TO.C,C10*%
X86762000Y-136025836D02*
X86762000Y-135810164D01*
X87482000Y-136025836D02*
X87482000Y-135810164D01*
%TO.C,R8*%
X109490742Y-150477500D02*
X109965258Y-150477500D01*
X109490742Y-151522500D02*
X109965258Y-151522500D01*
%TO.C,R13*%
X107173500Y-120666742D02*
X107173500Y-121141258D01*
X108218500Y-120666742D02*
X108218500Y-121141258D01*
%TO.C,C3*%
X88265580Y-124458000D02*
X87984420Y-124458000D01*
X88265580Y-125478000D02*
X87984420Y-125478000D01*
%TO.C,C11*%
X82442164Y-128926000D02*
X82657836Y-128926000D01*
X82442164Y-129646000D02*
X82657836Y-129646000D01*
%TO.C,C5*%
X93325836Y-141880000D02*
X93110164Y-141880000D01*
X93325836Y-142600000D02*
X93110164Y-142600000D01*
%TO.C,C2*%
X99935420Y-141476000D02*
X100216580Y-141476000D01*
X99935420Y-142496000D02*
X100216580Y-142496000D01*
%TO.C,TPMP2359DJ1*%
X111658000Y-146862500D02*
X111658000Y-146062500D01*
X111658000Y-146862500D02*
X111658000Y-148662500D01*
X114778000Y-146862500D02*
X114778000Y-146062500D01*
X114778000Y-146862500D02*
X114778000Y-147662500D01*
%TO.C,U2*%
X120396000Y-124678000D02*
X119596000Y-124678000D01*
X120396000Y-124678000D02*
X121196000Y-124678000D01*
X120396000Y-127798000D02*
X119596000Y-127798000D01*
X120396000Y-127798000D02*
X122196000Y-127798000D01*
%TO.C,R12*%
X109459500Y-120666742D02*
X109459500Y-121141258D01*
X110504500Y-120666742D02*
X110504500Y-121141258D01*
%TO.C,FB1*%
X111440000Y-135399622D02*
X111440000Y-134600378D01*
X112560000Y-135399622D02*
X112560000Y-134600378D01*
%TO.C,L1*%
X83458164Y-137562000D02*
X83673836Y-137562000D01*
X83458164Y-138282000D02*
X83673836Y-138282000D01*
%TO.C,D1*%
X88673000Y-139433500D02*
X88673000Y-141718500D01*
X88673000Y-141718500D02*
X90143000Y-141718500D01*
X90143000Y-141718500D02*
X90143000Y-139433500D01*
%TO.C,C4*%
X87016000Y-129619836D02*
X87016000Y-129404164D01*
X87736000Y-129619836D02*
X87736000Y-129404164D01*
%TO.C,D2*%
X118164000Y-131588000D02*
X118164000Y-133588000D01*
X118164000Y-131588000D02*
X122174000Y-131588000D01*
X118164000Y-133588000D02*
X122174000Y-133588000D01*
%TO.C,J3*%
X91160000Y-112280000D02*
X94645000Y-112280000D01*
X91160000Y-118000000D02*
X91160000Y-112280000D01*
X92230000Y-117700000D02*
X92230000Y-118000000D01*
X92230000Y-118000000D02*
X91160000Y-118000000D01*
X94645000Y-117700000D02*
X92230000Y-117700000D01*
X94645000Y-117700000D02*
X97060000Y-117700000D01*
X96770000Y-117990000D02*
X96770000Y-118290000D01*
X96770000Y-118290000D02*
X97270000Y-118290000D01*
X97060000Y-117700000D02*
X97060000Y-118000000D01*
X97060000Y-118000000D02*
X98130000Y-118000000D01*
X98130000Y-112280000D02*
X94645000Y-112280000D01*
X98130000Y-118000000D02*
X98130000Y-112280000D01*
%TO.C,J5*%
X128500000Y-130650000D02*
X126950000Y-130650000D01*
X128500000Y-130650000D02*
X128500000Y-130350000D01*
X131300000Y-130350000D02*
X128500000Y-130350000D01*
X125250000Y-128200000D02*
X125250000Y-127400000D01*
X125700000Y-127800000D02*
X125250000Y-128200000D01*
X125250000Y-127400000D02*
X125700000Y-127800000D01*
X128500000Y-122650000D02*
X128500000Y-122350000D01*
X131300000Y-122650000D02*
X128500000Y-122650000D01*
X128500000Y-122350000D02*
X126950000Y-122350000D01*
%TD*%
M02*
