%TF.GenerationSoftware,KiCad,Pcbnew,8.0.4*%
%TF.CreationDate,2024-07-25T03:06:04-05:00*%
%TF.ProjectId,stm32devBoardf405rg,73746d33-3264-4657-9642-6f6172646634,rev?*%
%TF.SameCoordinates,Original*%
%TF.FileFunction,Soldermask,Bot*%
%TF.FilePolarity,Negative*%
%FSLAX46Y46*%
G04 Gerber Fmt 4.6, Leading zero omitted, Abs format (unit mm)*
G04 Created by KiCad (PCBNEW 8.0.4) date 2024-07-25 03:06:04*
%MOMM*%
%LPD*%
G01*
G04 APERTURE LIST*
G04 Aperture macros list*
%AMRoundRect*
0 Rectangle with rounded corners*
0 $1 Rounding radius*
0 $2 $3 $4 $5 $6 $7 $8 $9 X,Y pos of 4 corners*
0 Add a 4 corners polygon primitive as box body*
4,1,4,$2,$3,$4,$5,$6,$7,$8,$9,$2,$3,0*
0 Add four circle primitives for the rounded corners*
1,1,$1+$1,$2,$3*
1,1,$1+$1,$4,$5*
1,1,$1+$1,$6,$7*
1,1,$1+$1,$8,$9*
0 Add four rect primitives between the rounded corners*
20,1,$1+$1,$2,$3,$4,$5,0*
20,1,$1+$1,$4,$5,$6,$7,0*
20,1,$1+$1,$6,$7,$8,$9,0*
20,1,$1+$1,$8,$9,$2,$3,0*%
G04 Aperture macros list end*
%ADD10R,2.400000X2.400000*%
%ADD11C,2.400000*%
%ADD12C,0.900000*%
%ADD13C,8.600000*%
%ADD14RoundRect,0.200000X-0.200000X-0.450000X0.200000X-0.450000X0.200000X0.450000X-0.200000X0.450000X0*%
%ADD15O,0.800000X1.300000*%
%ADD16RoundRect,0.200000X0.200000X0.450000X-0.200000X0.450000X-0.200000X-0.450000X0.200000X-0.450000X0*%
%ADD17O,1.700000X1.350000*%
%ADD18O,1.500000X1.100000*%
G04 APERTURE END LIST*
D10*
%TO.C,J1*%
X124460000Y-142240000D03*
D11*
X124460000Y-138740000D03*
%TD*%
D12*
%TO.C,SW1*%
X75964000Y-125282000D03*
X75964000Y-128282000D03*
%TD*%
%TO.C,H3*%
X72544000Y-150622000D03*
X73488581Y-148341581D03*
X73488581Y-152902419D03*
X75769000Y-147397000D03*
D13*
X75769000Y-150622000D03*
D12*
X75769000Y-153847000D03*
X78049419Y-148341581D03*
X78049419Y-152902419D03*
X78994000Y-150622000D03*
%TD*%
D14*
%TO.C,J4*%
X93883000Y-147398000D03*
D15*
X95133000Y-147398000D03*
X96383000Y-147398000D03*
X97633000Y-147398000D03*
%TD*%
D12*
%TO.C,H2*%
X73488581Y-115829581D03*
X74433162Y-113549162D03*
X74433162Y-118110000D03*
X76713581Y-112604581D03*
D13*
X76713581Y-115829581D03*
D12*
X76713581Y-119054581D03*
X78994000Y-113549162D03*
X78994000Y-118110000D03*
X79938581Y-115829581D03*
%TD*%
%TO.C,H1*%
X121775000Y-115824000D03*
X122719581Y-113543581D03*
X122719581Y-118104419D03*
X125000000Y-112599000D03*
D13*
X125000000Y-115824000D03*
D12*
X125000000Y-119049000D03*
X127280419Y-113543581D03*
X127280419Y-118104419D03*
X128225000Y-115824000D03*
%TD*%
%TO.C,H4*%
X122000000Y-150291000D03*
X122944581Y-148010581D03*
X122944581Y-152571419D03*
X125225000Y-147066000D03*
D13*
X125225000Y-150291000D03*
D12*
X125225000Y-153516000D03*
X127505419Y-148010581D03*
X127505419Y-152571419D03*
X128450000Y-150291000D03*
%TD*%
D16*
%TO.C,J3*%
X96520000Y-116840000D03*
D15*
X95270000Y-116840000D03*
X94020000Y-116840000D03*
X92770000Y-116840000D03*
%TD*%
D17*
%TO.C,J5*%
X129680000Y-129230000D03*
D18*
X126680000Y-128920000D03*
X126680000Y-124080000D03*
D17*
X129680000Y-123770000D03*
%TD*%
M02*
