%TF.GenerationSoftware,KiCad,Pcbnew,8.0.4*%
%TF.CreationDate,2024-07-25T03:06:04-05:00*%
%TF.ProjectId,stm32devBoardf405rg,73746d33-3264-4657-9642-6f6172646634,rev?*%
%TF.SameCoordinates,Original*%
%TF.FileFunction,Soldermask,Top*%
%TF.FilePolarity,Negative*%
%FSLAX46Y46*%
G04 Gerber Fmt 4.6, Leading zero omitted, Abs format (unit mm)*
G04 Created by KiCad (PCBNEW 8.0.4) date 2024-07-25 03:06:04*
%MOMM*%
%LPD*%
G01*
G04 APERTURE LIST*
G04 Aperture macros list*
%AMRoundRect*
0 Rectangle with rounded corners*
0 $1 Rounding radius*
0 $2 $3 $4 $5 $6 $7 $8 $9 X,Y pos of 4 corners*
0 Add a 4 corners polygon primitive as box body*
4,1,4,$2,$3,$4,$5,$6,$7,$8,$9,$2,$3,0*
0 Add four circle primitives for the rounded corners*
1,1,$1+$1,$2,$3*
1,1,$1+$1,$4,$5*
1,1,$1+$1,$6,$7*
1,1,$1+$1,$8,$9*
0 Add four rect primitives between the rounded corners*
20,1,$1+$1,$2,$3,$4,$5,0*
20,1,$1+$1,$4,$5,$6,$7,0*
20,1,$1+$1,$6,$7,$8,$9,0*
20,1,$1+$1,$8,$9,$2,$3,0*%
G04 Aperture macros list end*
%ADD10RoundRect,0.200000X-0.200000X-0.275000X0.200000X-0.275000X0.200000X0.275000X-0.200000X0.275000X0*%
%ADD11RoundRect,0.250000X0.375000X0.625000X-0.375000X0.625000X-0.375000X-0.625000X0.375000X-0.625000X0*%
%ADD12RoundRect,0.140000X-0.140000X-0.170000X0.140000X-0.170000X0.140000X0.170000X-0.140000X0.170000X0*%
%ADD13RoundRect,0.135000X0.135000X0.185000X-0.135000X0.185000X-0.135000X-0.185000X0.135000X-0.185000X0*%
%ADD14RoundRect,0.225000X0.250000X-0.225000X0.250000X0.225000X-0.250000X0.225000X-0.250000X-0.225000X0*%
%ADD15RoundRect,0.140000X0.140000X0.170000X-0.140000X0.170000X-0.140000X-0.170000X0.140000X-0.170000X0*%
%ADD16R,1.200000X1.400000*%
%ADD17R,2.400000X2.400000*%
%ADD18C,2.400000*%
%ADD19RoundRect,0.150000X-0.587500X-0.150000X0.587500X-0.150000X0.587500X0.150000X-0.587500X0.150000X0*%
%ADD20RoundRect,0.200000X0.275000X-0.200000X0.275000X0.200000X-0.275000X0.200000X-0.275000X-0.200000X0*%
%ADD21RoundRect,0.200000X-0.275000X0.200000X-0.275000X-0.200000X0.275000X-0.200000X0.275000X0.200000X0*%
%ADD22RoundRect,0.135000X-0.135000X-0.185000X0.135000X-0.185000X0.135000X0.185000X-0.135000X0.185000X0*%
%ADD23R,0.800000X1.000000*%
%ADD24C,0.900000*%
%ADD25R,1.500000X0.700000*%
%ADD26RoundRect,0.218750X-0.256250X0.218750X-0.256250X-0.218750X0.256250X-0.218750X0.256250X0.218750X0*%
%ADD27RoundRect,0.225000X-0.250000X0.225000X-0.250000X-0.225000X0.250000X-0.225000X0.250000X0.225000X0*%
%ADD28R,2.500000X1.900000*%
%ADD29RoundRect,0.200000X0.200000X0.275000X-0.200000X0.275000X-0.200000X-0.275000X0.200000X-0.275000X0*%
%ADD30RoundRect,0.140000X0.170000X-0.140000X0.170000X0.140000X-0.170000X0.140000X-0.170000X-0.140000X0*%
%ADD31C,8.600000*%
%ADD32RoundRect,0.075000X-0.700000X-0.075000X0.700000X-0.075000X0.700000X0.075000X-0.700000X0.075000X0*%
%ADD33RoundRect,0.075000X-0.075000X-0.700000X0.075000X-0.700000X0.075000X0.700000X-0.075000X0.700000X0*%
%ADD34RoundRect,0.200000X-0.200000X-0.450000X0.200000X-0.450000X0.200000X0.450000X-0.200000X0.450000X0*%
%ADD35O,0.800000X1.300000*%
%ADD36R,0.740000X2.400000*%
%ADD37RoundRect,0.225000X-0.225000X-0.250000X0.225000X-0.250000X0.225000X0.250000X-0.225000X0.250000X0*%
%ADD38RoundRect,0.225000X0.225000X0.250000X-0.225000X0.250000X-0.225000X-0.250000X0.225000X-0.250000X0*%
%ADD39RoundRect,0.150000X0.150000X-0.512500X0.150000X0.512500X-0.150000X0.512500X-0.150000X-0.512500X0*%
%ADD40RoundRect,0.150000X0.512500X0.150000X-0.512500X0.150000X-0.512500X-0.150000X0.512500X-0.150000X0*%
%ADD41RoundRect,0.218750X0.381250X-0.218750X0.381250X0.218750X-0.381250X0.218750X-0.381250X-0.218750X0*%
%ADD42RoundRect,0.218750X0.256250X-0.218750X0.256250X0.218750X-0.256250X0.218750X-0.256250X-0.218750X0*%
%ADD43RoundRect,0.225000X-0.225000X-0.375000X0.225000X-0.375000X0.225000X0.375000X-0.225000X0.375000X0*%
%ADD44RoundRect,0.200000X0.200000X0.450000X-0.200000X0.450000X-0.200000X-0.450000X0.200000X-0.450000X0*%
%ADD45R,1.650000X0.400000*%
%ADD46R,0.700000X1.825000*%
%ADD47R,1.500000X2.000000*%
%ADD48R,2.000000X1.350000*%
%ADD49O,1.700000X1.350000*%
%ADD50O,1.500000X1.100000*%
%ADD51R,2.500000X1.430000*%
G04 APERTURE END LIST*
D10*
%TO.C,R6*%
X105410000Y-151000000D03*
X107060000Y-151000000D03*
%TD*%
D11*
%TO.C,F1*%
X116716000Y-132334000D03*
X113916000Y-132334000D03*
%TD*%
D12*
%TO.C,C6*%
X101910000Y-140208000D03*
X102870000Y-140208000D03*
%TD*%
D13*
%TO.C,R14*%
X96774000Y-122430000D03*
X95754000Y-122430000D03*
%TD*%
D14*
%TO.C,C1*%
X104140000Y-130556000D03*
X104140000Y-129006000D03*
%TD*%
D15*
%TO.C,C12*%
X82804000Y-136144000D03*
X81844000Y-136144000D03*
%TD*%
D16*
%TO.C,Y1*%
X81612000Y-131064000D03*
X81612000Y-133264000D03*
X83312000Y-133264000D03*
X83312000Y-131064000D03*
%TD*%
D17*
%TO.C,J1*%
X124460000Y-142240000D03*
D18*
X124460000Y-138740000D03*
%TD*%
D19*
%TO.C,Q1*%
X117251000Y-137734000D03*
X117251000Y-139634000D03*
X119126000Y-138684000D03*
%TD*%
D20*
%TO.C,R5*%
X119126000Y-143002000D03*
X119126000Y-141352000D03*
%TD*%
D14*
%TO.C,C13*%
X114000000Y-136000000D03*
X114000000Y-134450000D03*
%TD*%
D21*
%TO.C,R11*%
X111760000Y-120079000D03*
X111760000Y-121729000D03*
%TD*%
D22*
%TO.C,R15*%
X93722000Y-122428000D03*
X94742000Y-122428000D03*
%TD*%
D23*
%TO.C,SW1*%
X77074000Y-123132000D03*
X74864000Y-123132000D03*
D24*
X75964000Y-125282000D03*
X75964000Y-128282000D03*
D23*
X77074000Y-130432000D03*
X74864000Y-130432000D03*
D25*
X77724000Y-124532000D03*
X77724000Y-127532000D03*
X77724000Y-129032000D03*
%TD*%
D26*
%TO.C,D3*%
X105918000Y-126441000D03*
X105918000Y-128016000D03*
%TD*%
D13*
%TO.C,R1*%
X81790000Y-127508000D03*
X80770000Y-127508000D03*
%TD*%
D27*
%TO.C,C15*%
X116840000Y-145021000D03*
X116840000Y-146571000D03*
%TD*%
D21*
%TO.C,R10*%
X113538000Y-120079000D03*
X113538000Y-121729000D03*
%TD*%
D28*
%TO.C,L2*%
X110236000Y-142973500D03*
X110236000Y-138873500D03*
%TD*%
D29*
%TO.C,R16*%
X109791000Y-127508000D03*
X108141000Y-127508000D03*
%TD*%
D10*
%TO.C,R9*%
X112675000Y-151000000D03*
X114325000Y-151000000D03*
%TD*%
D30*
%TO.C,C8*%
X102108000Y-128722000D03*
X102108000Y-127762000D03*
%TD*%
D24*
%TO.C,H3*%
X72544000Y-150622000D03*
X73488581Y-148341581D03*
X73488581Y-152902419D03*
X75769000Y-147397000D03*
D31*
X75769000Y-150622000D03*
D24*
X75769000Y-153847000D03*
X78049419Y-148341581D03*
X78049419Y-152902419D03*
X78994000Y-150622000D03*
%TD*%
D27*
%TO.C,C14*%
X108500000Y-145725000D03*
X108500000Y-147275000D03*
%TD*%
D21*
%TO.C,R7*%
X118618000Y-144971000D03*
X118618000Y-146621000D03*
%TD*%
D12*
%TO.C,C7*%
X91976000Y-124968000D03*
X92936000Y-124968000D03*
%TD*%
D20*
%TO.C,R3*%
X86360000Y-141096000D03*
X86360000Y-139446000D03*
%TD*%
D30*
%TO.C,C9*%
X85344000Y-136426000D03*
X85344000Y-135466000D03*
%TD*%
D32*
%TO.C,U1*%
X90170000Y-130080000D03*
X90170000Y-130580000D03*
X90170000Y-131080000D03*
X90170000Y-131580000D03*
X90170000Y-132080000D03*
X90170000Y-132580000D03*
X90170000Y-133080000D03*
X90170000Y-133580000D03*
X90170000Y-134080000D03*
X90170000Y-134580000D03*
X90170000Y-135080000D03*
X90170000Y-135580000D03*
X90170000Y-136080000D03*
X90170000Y-136580000D03*
X90170000Y-137080000D03*
X90170000Y-137580000D03*
D33*
X92095000Y-139505000D03*
X92595000Y-139505000D03*
X93095000Y-139505000D03*
X93595000Y-139505000D03*
X94095000Y-139505000D03*
X94595000Y-139505000D03*
X95095000Y-139505000D03*
X95595000Y-139505000D03*
X96095000Y-139505000D03*
X96595000Y-139505000D03*
X97095000Y-139505000D03*
X97595000Y-139505000D03*
X98095000Y-139505000D03*
X98595000Y-139505000D03*
X99095000Y-139505000D03*
X99595000Y-139505000D03*
D32*
X101520000Y-137580000D03*
X101520000Y-137080000D03*
X101520000Y-136580000D03*
X101520000Y-136080000D03*
X101520000Y-135580000D03*
X101520000Y-135080000D03*
X101520000Y-134580000D03*
X101520000Y-134080000D03*
X101520000Y-133580000D03*
X101520000Y-133080000D03*
X101520000Y-132580000D03*
X101520000Y-132080000D03*
X101520000Y-131580000D03*
X101520000Y-131080000D03*
X101520000Y-130580000D03*
X101520000Y-130080000D03*
D33*
X99595000Y-128155000D03*
X99095000Y-128155000D03*
X98595000Y-128155000D03*
X98095000Y-128155000D03*
X97595000Y-128155000D03*
X97095000Y-128155000D03*
X96595000Y-128155000D03*
X96095000Y-128155000D03*
X95595000Y-128155000D03*
X95095000Y-128155000D03*
X94595000Y-128155000D03*
X94095000Y-128155000D03*
X93595000Y-128155000D03*
X93095000Y-128155000D03*
X92595000Y-128155000D03*
X92095000Y-128155000D03*
%TD*%
D34*
%TO.C,J4*%
X93883000Y-147398000D03*
D35*
X95133000Y-147398000D03*
X96383000Y-147398000D03*
X97633000Y-147398000D03*
%TD*%
D36*
%TO.C,J2*%
X112776000Y-112432000D03*
X112776000Y-116332000D03*
X111506000Y-112432000D03*
X111506000Y-116332000D03*
X110236000Y-112432000D03*
X110236000Y-116332000D03*
X108966000Y-112432000D03*
X108966000Y-116332000D03*
X107696000Y-112432000D03*
X107696000Y-116332000D03*
%TD*%
D13*
%TO.C,R2*%
X87886000Y-132588000D03*
X86866000Y-132588000D03*
%TD*%
D37*
%TO.C,C16*%
X107725000Y-136000000D03*
X109275000Y-136000000D03*
%TD*%
D21*
%TO.C,R4*%
X117094000Y-141352000D03*
X117094000Y-143002000D03*
%TD*%
D30*
%TO.C,C10*%
X87122000Y-136398000D03*
X87122000Y-135438000D03*
%TD*%
D10*
%TO.C,R8*%
X108903000Y-151000000D03*
X110553000Y-151000000D03*
%TD*%
D21*
%TO.C,R13*%
X107696000Y-120079000D03*
X107696000Y-121729000D03*
%TD*%
D38*
%TO.C,C3*%
X88900000Y-124968000D03*
X87350000Y-124968000D03*
%TD*%
D12*
%TO.C,C11*%
X82070000Y-129286000D03*
X83030000Y-129286000D03*
%TD*%
D15*
%TO.C,C5*%
X93698000Y-142240000D03*
X92738000Y-142240000D03*
%TD*%
D37*
%TO.C,C2*%
X99301000Y-141986000D03*
X100851000Y-141986000D03*
%TD*%
D39*
%TO.C,TPMP2359DJ1*%
X112268000Y-148000000D03*
X113218000Y-148000000D03*
X114168000Y-148000000D03*
X114168000Y-145725000D03*
X113218000Y-145725000D03*
X112268000Y-145725000D03*
%TD*%
D40*
%TO.C,U2*%
X121533500Y-127188000D03*
X121533500Y-126238000D03*
X121533500Y-125288000D03*
X119258500Y-125288000D03*
X119258500Y-126238000D03*
X119258500Y-127188000D03*
%TD*%
D24*
%TO.C,H2*%
X73488581Y-115829581D03*
X74433162Y-113549162D03*
X74433162Y-118110000D03*
X76713581Y-112604581D03*
D31*
X76713581Y-115829581D03*
D24*
X76713581Y-119054581D03*
X78994000Y-113549162D03*
X78994000Y-118110000D03*
X79938581Y-115829581D03*
%TD*%
%TO.C,H1*%
X121775000Y-115824000D03*
X122719581Y-113543581D03*
X122719581Y-118104419D03*
X125000000Y-112599000D03*
D31*
X125000000Y-115824000D03*
D24*
X125000000Y-119049000D03*
X127280419Y-113543581D03*
X127280419Y-118104419D03*
X128225000Y-115824000D03*
%TD*%
D21*
%TO.C,R12*%
X109982000Y-120079000D03*
X109982000Y-121729000D03*
%TD*%
D41*
%TO.C,FB1*%
X112000000Y-136062500D03*
X112000000Y-133937500D03*
%TD*%
D24*
%TO.C,H4*%
X122000000Y-150291000D03*
X122944581Y-148010581D03*
X122944581Y-152571419D03*
X125225000Y-147066000D03*
D31*
X125225000Y-150291000D03*
D24*
X125225000Y-153516000D03*
X127505419Y-148010581D03*
X127505419Y-152571419D03*
X128450000Y-150291000D03*
%TD*%
D12*
%TO.C,L1*%
X83086000Y-137922000D03*
X84046000Y-137922000D03*
%TD*%
D42*
%TO.C,D1*%
X89408000Y-141021000D03*
X89408000Y-139446000D03*
%TD*%
D30*
%TO.C,C4*%
X87376000Y-129992000D03*
X87376000Y-129032000D03*
%TD*%
D43*
%TO.C,D2*%
X118874000Y-132588000D03*
X122174000Y-132588000D03*
%TD*%
D44*
%TO.C,J3*%
X96520000Y-116840000D03*
D35*
X95270000Y-116840000D03*
X94020000Y-116840000D03*
X92770000Y-116840000D03*
%TD*%
D45*
%TO.C,J5*%
X126800000Y-127800000D03*
X126800000Y-127150000D03*
X126800000Y-126500000D03*
X126800000Y-125850000D03*
X126800000Y-125200000D03*
D46*
X128000000Y-129450000D03*
D47*
X126700000Y-129350000D03*
D48*
X128750000Y-129230000D03*
D49*
X129680000Y-129230000D03*
D50*
X126680000Y-128920000D03*
D51*
X129950000Y-127460000D03*
X129950000Y-125540000D03*
D50*
X126680000Y-124080000D03*
D49*
X129680000Y-123770000D03*
D48*
X128750000Y-123750000D03*
D47*
X126680000Y-123600000D03*
D46*
X128000000Y-123500000D03*
%TD*%
M02*
