M48
; DRILL file {KiCad 8.0.4} date 2024-07-25T03:04:52-0500
; FORMAT={3:3/ absolute / metric / suppress leading zeros}
; #@! TF.CreationDate,2024-07-25T03:04:52-05:00
; #@! TF.GenerationSoftware,Kicad,Pcbnew,8.0.4
; #@! TF.FileFunction,MixedPlating,1,4
FMAT,2
METRIC,TZ
; #@! TA.AperFunction,Plated,PTH,ViaDrill
T1C0.400
; #@! TA.AperFunction,Plated,PTH,ComponentDrill
T2C0.500
; #@! TA.AperFunction,Plated,PTH,ComponentDrill
T3C0.600
; #@! TA.AperFunction,Plated,PTH,ComponentDrill
T4C0.650
; #@! TA.AperFunction,Plated,PTH,ComponentDrill
T5C0.700
; #@! TA.AperFunction,Plated,PTH,ComponentDrill
T6C1.200
; #@! TA.AperFunction,Plated,PTH,ComponentDrill
T7C4.300
; #@! TA.AperFunction,NonPlated,NPTH,ComponentDrill
T8C0.900
%
G90
G05
T1
X78994Y-124968
X78994Y-129032
X81026Y-134366
X81026Y-136144
X81788Y-137160
X82550Y-138938
X83820Y-129286
X84582Y-135128
X86360Y-124968
X86614Y-128524
X86614Y-129794
X86614Y-134874
X87122Y-130810
X87376Y-139446
X88138Y-128524
X89154Y-125984
X91948Y-142240
X92710Y-143002
X92964Y-122174
X92964Y-124206
X93726Y-143002
X93980Y-141478
X97536Y-122428
X97536Y-123952
X97536Y-129794
X99060Y-130302
X100838Y-143002
X101600Y-142494
X102108Y-139446
X102108Y-140970
X102616Y-127254
X102870Y-129032
X103632Y-140208
X104140Y-128016
X104902Y-127000
X104902Y-148336
X105156Y-129032
X105664Y-136652
X105664Y-138938
X107188Y-138938
X107696Y-110744
X108204Y-137668
X109220Y-128270
X109220Y-139700
X109728Y-126492
X110236Y-110744
X111252Y-140208
X111506Y-110744
X112500Y-149500
X112776Y-110744
X113538Y-125222
X115062Y-138938
X115824Y-146304
X117348Y-136906
X118618Y-137668
X118872Y-140462
X119380Y-147320
X120142Y-141478
X120650Y-123952
X123444Y-124206
X123698Y-125222
X124460Y-124206
X124714Y-125222
T2
X92770Y-116840
X93883Y-147398
X94020Y-116840
X95133Y-147398
X95270Y-116840
X96383Y-147398
X96520Y-116840
X97633Y-147398
T3
X72544Y-150622
X73489Y-115830
X73489Y-148342
X73489Y-152902
X74433Y-113549
X74433Y-118110
X75769Y-147397
X75769Y-153847
X76714Y-112605
X76714Y-119055
X78049Y-148342
X78049Y-152902
X78994Y-113549
X78994Y-118110
X78994Y-150622
X79939Y-115830
X121775Y-115824
X122000Y-150291
X122720Y-113544
X122720Y-118104
X122945Y-148011
X122945Y-152571
X125000Y-112599
X125000Y-119049
X125225Y-147066
X125225Y-153516
X127280Y-113544
X127280Y-118104
X127505Y-148011
X127505Y-152571
X128225Y-115824
X128450Y-150291
T6
X124460Y-138740
X124460Y-142240
T7
X75769Y-150622
X76714Y-115830
X125000Y-115824
X125225Y-150291
T8
X75964Y-125282
X75964Y-128282
T4
G00X126880Y-124080
M15
G01X126480Y-124080
M16
G05
G00X126880Y-128920
M15
G01X126480Y-128920
M16
G05
T5
G00X129930Y-123770
M15
G01X129430Y-123770
M16
G05
G00X129930Y-129230
M15
G01X129430Y-129230
M16
G05
M30
